<svg version="1.1" xmlns="http://www.w3.org/2000/svg" viewBox="-36.93707903666728 -16.857466303708357 97.70244570185864 37.86192663682729" fill="none" stroke="black" stroke-width="0.6%" vector-effect="non-scaling-stroke">
    <path d="M -27.90644 -7.60824 L -27.4645 -7.57558 L -27.4645 -9.55599 L -25.12585 -10.17305 L -25.80166 -11.1342 L -28.45327 -11.33012 L -30.32419 -10.83647 L -27.67257 -10.64055 L -25.80166 -11.1342" />
    <path d="M -30.99999 -9.81722 L -27.4645 -9.55599 L -27.67257 -10.64055" />
    <path d="M -30.99999 -6.792 L -30.99999 -9.81722 L -30.32419 -10.83647" />
    <path d="M -35.93708 11.97554 A 64 8.93603 180 0 0 -3.63952 19.73821" />
    <path d="M -3.63952 19.74323 L -0.10404 20.00446 L 6.44418 18.27671 L 6.44418 -1.52738 L 2.90869 -1.78861 L -3.63952 -0.06086 L -0.10404 0.20037 L 6.44418 -1.52738" />
    <path d="M -18.79705 9.34705 A 50.5 7.05109 180 0 0 -20.40431 9.99513" />
    <path d="M -18.79705 9.34705 A 12 1.67551 180 0 0 -13.8591 8.04416" />
    <path d="M 49.68166 5.60323 A 50.5 7.05109 180 0 0 6.44418 5.60323" />
    <path d="M -3.63952 6.48699 A 50.5 7.05109 180 0 0 -13.8591 8.04416" />
    <path d="M 49.68166 5.67438 L 53.21715 5.9356 L 59.76537 4.20785 L 59.76537 -15.59624 L 56.22988 -15.85747 L 49.68166 -14.12971 L 53.21715 -13.86848 L 59.76537 -15.59624" />
    <path d="M -3.63952 15.77739 A 64 8.93603 0 0 1 -35.93708 8.01472 A 64 8.93603 0 0 1 -32.33035 5.05726" />
    <path d="M -3.63952 13.50328 A 50.5 7.05109 360 0 1 -22.43708 8.01472 A 50.5 7.05109 360 0 1 -18.79705 5.38623 L -18.79705 9.34705" />
    <path d="M -18.79705 5.38623 A 12 1.67551 0 0 1 -32.33035 5.44147" />
    <path d="M -31.39097 -6.68884 L -31.45254 -6.4132 L -31.51491 -6.13391 L -31.5781 -5.85093 L -31.64212 -5.56421 L -31.70698 -5.2737 L -31.77269 -4.97935 L -31.83926 -4.68111 L -31.90671 -4.37893 L -31.97503 -4.07276 L -32.04426 -3.76255 L -32.11439 -3.44823 L -32.18544 -3.12977 L -32.25742 -2.8071 L -32.33035 -2.48016 A 12 1.67551 180 0 0 -13.85324 -3.89064 L -13.85324 4.031 A 12 1.67551 0 0 1 -13.8591 4.08334 A 50.5 7.05109 360 0 1 -3.63952 2.52617" />
    <path d="M -32.33035 -2.48016 L -32.33035 5.44147" />
    <path d="M -31.39097 -6.68884 L -27.90644 -7.60824" />
    <path d="M -22.08326 -9.14469 A 10 1.39625 0 0 1 -15.87813 -7.9499 A 10 1.39625 0 0 1 -31.39097 -6.68884" />
    <path d="M -25.12585 -8.3419 L -22.08326 -9.14469" />
    <path d="M -27.4645 -7.57558 L -25.12585 -8.19264 L -25.12585 -10.17305" />
    <path d="M -3.63952 19.74323 L -3.63952 -0.06086" />
    <path d="M -13.85324 -3.89064 A 12 1.67551 180 0 0 -13.8831 -4.00877" />
    <path d="M -13.8591 4.08334 L -13.8591 8.04416" />
    <path d="M 6.44418 1.64241 A 50.5 7.05109 360 0 1 49.68166 1.64241" />
    <path d="M -13.85324 1.26194 A 64 8.93603 0 0 1 -3.63952 0.25205" />
    <path d="M 6.44418 -0.39605 A 64 8.93603 0 0 1 49.68166 -0.39605" />
    <path d="M 37.43643 0.01894 A 3.5 0.48869 0 0 1 44.02998 0.24751 A 3.5 0.48869 0 0 1 37.02998 0.24751 A 3.5 0.48869 0 0 1 37.43643 0.01894 Z" />
    <path d="M -0.10404 20.00446 L -0.10404 0.20037" />
    <path d="M 49.68166 5.67438 L 49.68166 -14.12971" />
    <path d="M 53.21715 5.9356 L 53.21715 -13.86848" />
    <path d="M -35.93708 8.01472 L -35.93708 11.97554" />
    <path d="M -15.87813 -7.9499 L -13.8831 -4.00877" />
</svg>