<svg viewBox="0 0 800 800" xmlns="http://www.w3.org/2000/svg"><path d="M640.1741077663826,265.3432115254018 L633.6129140412734,269.12921515345 M633.775688979652,249.26377805789397 L633.6129140412734,269.12921515345 M625.5034321410211,254.03286988510783 L633.775688979652,249.26377805789397 M625.9817827359741,194.3249595886058 L625.5034321410211,254.03286988510783 M625.9817827359741,194.3249595886058 L623.8585985535684,195.54573489478167 M623.8585985535684,195.54573489478167 L623.93798296764,185.57877848249345 M640.9206139202354,175.8185834302567 L623.93798296764,185.57877848249345 M640.1741077663826,265.3432115254018 L640.9206139202354,175.8185834302567 M655.2161081909824,281.3600589550197 L661.7772299535363,277.5698878886309 M661.7772299535363,277.5698878886309 L640.1741077663826,265.3432115254018 M633.6129140412734,269.12921515345 L611.1605191119709,258.22332924303305 M611.1605191119709,258.22332924303305 L587.3642242317381,248.32199257575215 M587.3642242317381,248.32199257575215 L562.359045279523,239.4793847597737 M562.359045279523,239.4793847597737 L536.2863685688654,231.74368262276286 M536.2863685688654,231.74368262276286 L509.2930787912902,225.15697085524178 M509.2930787912902,225.15697085524178 L481.53063854868196,219.75503453041097 M481.53063854868196,219.75503453041097 L453.1545774414143,215.56714522384806 M453.1545774414143,215.56714522384806 L424.3234959063186,212.61596123869845 M424.3234959063186,212.61596123869845 L395.1982517687886,210.91744088511908 M395.1982517687886,210.91744088511908 L365.9413102183894,210.48075874178238 M365.9413102183894,210.48075874178238 L336.7156199900641,211.30830779564295 M336.7156199900641,211.30830779564295 L307.68418348405277,213.3955829899818 M307.68418348405277,213.3955829899818 L279.0088300258946,216.73130324509816 M279.0088300258946,216.73130324509816 L250.84971722373052,221.2974381785327 M250.84971722373052,221.2974381785327 L223.36427239213344,227.06926053343653 M223.36427239213344,227.06926053343653 L196.7065638608206,234.01547142916607 M196.7065638608206,234.01547142916607 L171.026415609215,242.0983251113346 M171.026415609215,242.0983251113346 L146.4686205681897,251.2738473451445 M146.4686205681897,251.2738473451445 L123.17220248808434,261.49193485294114 M123.17220248808434,261.49193485294114 L101.26962507290551,272.69670955917263 M158.87939622264014,305.7666556408417 L101.26962507290551,272.69670955917263 M563.3659549620551,295.9302512748378 L542.3607881888743,287.0662673870986 M542.3607881888743,287.0662673870986 L520.1442054480405,279.2557509755718 M520.1442054480405,279.2557509755718 L496.8748945441524,272.55292334120514 M496.8748945441524,272.55292334120514 L472.7184951451818,267.00425248430753 M472.7184951451818,267.00425248430753 L447.84651241506594,262.64811349868353 M447.84651241506594,262.64811349868353 L422.43525028230033,259.5145870751603 M422.43525028230033,259.5145870751603 L396.6644275100722,257.62531605561185 M396.6644275100722,257.62531605561185 L370.7162021096853,256.9933138507698 M370.7162021096853,256.9933138507698 L344.77388782102474,257.62294963693944 M344.77388782102474,257.62294963693944 L319.0207236595947,259.50987206967795 M319.0207236595947,259.50987206967795 L293.6387257503223,262.64109492096964 M293.6387257503223,262.64109492096964 L268.80748547513525,266.9949653079283 M268.80748547513525,266.9949653079283 L244.70294302394865,272.54144384693245 M244.70294302394865,272.54144384693245 L221.4962943755034,279.24213856827237 M221.4962943755034,279.24213856827237 L199.35271846563614,287.0506253579748 M199.35271846563614,287.0506253579748 L178.43040231247306,295.9126884634269 M178.43040231247306,295.9126884634269 L158.87939622264014,305.7666556408417 M563.3659549620551,295.9302512748378 L568.8648795860314,302.8383944420459 M568.8648795860314,302.8383944420459 L576.4561915652307,309.07541609926534 M576.4561915652307,309.07541609926534 L585.8894822830175,314.4335581268623 M585.8894822830175,314.4335581268623 L596.8524820349262,318.7340755676497 M596.8524820349262,318.7340755676497 L608.9813982986457,321.83333598258446 M595.2301369674157,556.2466554940011 L612.4672145306496,544.8286632834518 M612.4672145306496,544.8286632834518 L627.9356859687301,532.608593128487 M627.9356859687301,532.608593128487 L641.5250436746501,519.6773332224936 M641.5250436746501,519.6773332224936 L653.1390826580966,506.13073936136027 M653.1390826580966,506.13073936136027 L662.6965452064786,492.0688406185972 M662.6965452064786,492.0688406185972 L670.1315615641441,477.59514052827683 M670.1315615641441,477.59514052827683 L675.3941900274488,462.8157445107548 M675.3941900274488,462.8157445107548 L678.45041436657,447.83859643362484 M678.45041436657,447.83859643362484 L679.2825386188657,432.7726448982132 M679.2825386188657,432.7726448982132 L677.8889975507379,417.7270354339171 M677.8889975507379,417.7270354339171 L674.2843453084348,402.81034784224295 M674.2843453084348,402.81034784224295 L668.4989322230095,388.1298030380471 M668.4989322230095,388.1298030380471 L660.5786693736846,373.79045825293684 M660.5786693736846,373.79045825293684 L650.5844706463955,359.8946015832319 M650.5844706463955,359.8946015832319 L638.5917671473875,346.54093222737316 M638.5917671473875,346.54093222737316 L624.6899205746083,333.8239466034645 M624.6899205746083,333.8239466034645 L608.9813982986457,321.83333598258446 M654.3200226186397,590.1662370764211 L595.2301369674157,556.2466554940011 M654.3200226186397,590.1662370764211 L673.9777178492769,577.3348316595617 M673.9777178492769,577.3348316595617 L691.865046281443,563.6834170316374 M691.865046281443,563.6834170316374 L707.8807325460036,549.2932516753144 M707.8807325460036,549.2932516753144 L721.9348724006101,534.2496916073592 M721.9348724006101,534.2496916073592 L733.9496189341672,518.6416151069382 M733.9496189341672,518.6416151069382 L743.8593861663389,502.56087394565816 M743.8593861663389,502.56087394565816 L751.6112321495133,486.10171537500594 M751.6112321495133,486.10171537500594 L757.1650434698075,469.36014806229844 M757.1650434698075,469.36014806229844 L760.4936937571171,452.4334623225186 M760.4936937571171,452.4334623225186 L761.5830389195665,435.41950637788585 M761.5830389195665,435.41950637788585 L760.4318477400882,418.4162984776509 M760.4318477400882,418.4162984776509 L757.0518681642434,401.52122617336755 M757.0518681642434,401.52122617336755 L751.4674608844218,384.8307230635007 M751.4674608844218,384.8307230635007 L743.7154174763617,368.43955689910314 M743.7154174763617,368.43955689910314 L733.8446198167663,352.4404092018574 M733.8446198167663,352.4404092018574 L721.9156835167988,336.92337683985454 M721.9156835167988,336.92337683985454 L708.0005717109207,321.97538610846374 M708.0005717109207,321.97538610846374 L692.182013883397,307.679905042677 M692.182013883397,307.679905042677 L674.5529361479441,294.11643704799985 M674.5529361479441,294.11643704799985 L655.2161081909824,281.3600589550197 M689.9787956592901,523.7094714231202 L685.8802475722727,521.869024729705 M685.8802475722727,521.869024729705 L681.1500268520984,520.644421526755 M681.1500268520984,520.644421526755 L676.0627212426016,520.1065952435322 M676.0627212426016,520.1065952435322 L670.9135302661205,520.2867421483973 M670.9135302661205,520.2867421483973 L666.0012137036653,521.1744134312917 M666.0012137036653,521.1744134312917 L661.6108972241083,522.7181636965875 M661.6108972241083,522.7181636965875 L657.9974736531957,524.8285388069817 M657.9974736531957,524.8285388069817 L655.3709708487945,527.3831564281666 M655.3709708487945,527.3831564281666 L653.8842326558766,530.2338199933424 M653.8842326558766,530.2338199933424 L653.6240894237101,533.2149983597592 M653.6240894237101,533.2149983597592 L654.6061621781985,536.1534783153388 M654.6061621781985,536.1534783153388 L656.7737595514295,538.8783896345462 M656.7737595514295,538.8783896345462 L660.0012727369426,541.2311562779797 M660.0012727369426,541.2311562779797 L664.1012306818834,543.074774875534 M664.1012306818834,543.074774875534 L668.8352420212001,544.3018233241188 M668.8352420212001,544.3018233241188 L673.9278506075018,544.840808073955 M673.9278506075018,544.840808073955 L679.0826420868684,544.6602673878367 M679.0826420868684,544.6602673878367 L683.9995736710214,543.7707403141196 M683.9995736710214,543.7707403141196 L688.3924624252323,542.2240974172522 M688.3924624252323,542.2240974172522 L692.0058262685452,540.1104554711876 M692.0058262685452,540.1104554711876 L694.6296510268305,537.5529452213171 M694.6296510268305,537.5529452213171 L696.1117063409612,534.7004258801596 M696.1117063409612,534.7004258801596 L696.3662346732146,531.7188537418702 M696.3662346732146,531.7188537418702 L695.3789013025066,528.7815322205499 M695.3789013025066,528.7815322205499 L693.2076027218827,526.0590661622614 M693.2076027218827,526.0590661622614 L689.9787956592901,523.7094714231202 M101.19806834685733,252.8296531488212 L123.1103193314247,241.62996607505437 M123.1103193314247,241.62996607505437 L146.41701196575895,231.41652251817933 M146.41701196575895,231.41652251817933 L170.9856247277243,222.24517392902519 M170.9856247277243,222.24517392902519 L196.67707353734994,214.16599963360127 M196.67707353734994,214.16599963360127 L223.34650294475352,207.22295278115217 M223.34650294475352,207.22295278115217 L250.84402455261505,201.4537609810934 M250.84402455261505,201.4537609810934 L279.01550401936777,196.88970803506126 M279.01550401936777,196.88970803506126 L307.70344676654946,193.55550926584127 M307.70344676654946,193.55550926584127 L336.74762689412535,191.46918634175185 M336.74762689412535,191.46918634175185 L365.9861461654845,190.6420148854439 M365.9861461654845,190.6420148854439 L395.2559328104278,191.07849777424246 M395.2559328104278,191.07849777424246 L424.3939687433101,192.77624317847847 M424.3939687433101,192.77624317847847 L453.2377195716931,195.72608095854076 M453.2377195716931,195.72608095854076 L481.6262588492416,199.91206051925093 M481.6262588492416,199.91206051925093 L509.40091832879455,205.31153449839377 M509.40091832879455,205.31153449839377 L536.4061017142775,211.8952454312597 M536.4061017142775,211.8952454312597 L562.4902812118186,219.62742545911055 M562.4902812118186,219.62742545911055 L587.5065086239595,228.46601008722953 M587.5065086239595,228.46601008722953 L611.3133361864449,238.36284554243417 M611.3133361864449,238.36284554243417 L633.775688979652,249.26377805789397 M101.19806834685733,252.8296531488212 L101.26962507290551,272.69670955917263 M158.83313276412446,285.8846124951035 L101.19806834685733,252.8296531488212 M158.83313276412446,285.8846124951035 L178.39277542986014,276.0351064391674 M178.39277542986014,276.0351064391674 L199.3243233244204,267.1770586801535 M199.3243233244204,267.1770586801535 L221.47766052351267,259.3721124445833 M221.47766052351267,259.3721124445833 L244.6945311690401,252.67445790246666 M244.6945311690401,252.67445790246666 L268.80968473512155,247.1304972066526 M268.80968473512155,247.1304972066526 L293.6518512905679,242.77860412750246 M293.6518512905679,242.77860412750246 L319.04501484089855,239.6488037832513 M319.04501484089855,239.6488037832513 L344.80950677164935,237.76273876228277 M344.80950677164935,237.76273876228277 L370.7632327746185,237.13338911204903 M370.7632327746185,237.13338911204903 L396.7228751632275,237.7651041055734 M396.7228751632275,237.7651041055734 L422.5050414760193,239.65351664642606 M422.5050414760193,239.65351664642606 L447.92749540341777,242.78561951712936 M447.92749540341777,242.78561951712936 L472.8104408060906,247.13978016606816 M472.8104408060906,247.13978016606816 L496.9774976690902,252.685932186846 M496.9774976690902,252.685932186846 L520.2570865842679,259.38571867759254 M520.2570865842679,259.38571867759254 L542.4834959018489,267.1926936192308 M542.4834959018489,267.1926936192308 L563.4979685357785,276.05266129606315 M563.4979685357785,276.05266129606315 L560.397751974433,269.15551070286926 M560.397751974433,269.15551070286926 L559.3960783801539,262.0707180602019 M559.3960783801539,262.0707180602019 L560.5202742197606,255.00571319342458 M560.5202742197606,255.00571319342458 L563.7355049576064,248.16693490714218 M563.7355049576064,248.16693490714218 L568.9459436567873,241.7538831374758 M568.9459436567873,241.7538831374758 L575.997913403318,235.95325685276774 M575.997913403318,235.95325685276774 L584.6843621872324,230.93370887957897 M625.5034321410211,254.03286988510783 L584.6843621872324,230.93370887957897 M593.7803288716545,176.1516390333502 L584.966853876491,191.16705294137256 M584.966853876491,191.16705294137256 L584.6843621872324,230.93370887957897 M593.7803288716545,176.1516390333502 L625.9817827359741,194.3249595886058 M679.913500850496,224.76204499228382 L671.5941373487856,229.57697105171687 M671.5941373487856,229.57697105171687 L661.7655609724299,233.36370341125178 M661.7655609724299,233.36370341125178 L650.8071812004648,235.97524821122607 M650.8071812004648,235.97524821122607 L639.1425804854384,237.3101630702544 M639.1425804854384,237.3101630702544 L627.2230633089895,237.31654172896415 M627.2230633089895,237.31654172896415 L615.509873197347,235.99415052532385 M615.509873197347,235.99415052532385 L604.4561958729483,233.3943744909669 M604.4561958729483,233.3943744909669 L594.4893216778081,229.618221032389 M594.4893216778081,229.618221032389 L585.9939913253169,224.8122733622373 M585.9939913253169,224.8122733622373 L579.2974687586683,219.16286435471062 M579.2974687586683,219.16286435471062 L574.6569323486191,212.88871435254953 M574.6569323486191,212.88871435254953 L572.2496746512247,206.232347324681 M572.2496746512247,206.232347324681 L572.1664566944373,199.45064033986893 M572.1664566944373,199.45064033986893 L574.4084022240868,192.80481339337234 M574.4084022240868,192.80481339337234 L578.88716601276,186.5504228142524 M578.88716601276,186.5504228142524 L585.4287479795998,180.92753045962473 M585.4287479795998,180.92753045962473 L593.7803288716545,176.1516390333502 M647.6235330598095,206.5387704205341 L679.913500850496,224.76204499228382 M645.5003714793281,207.76089230610427 L647.6235330598095,206.5387704205341 M623.8585985535684,195.54573489478167 L645.5003714793281,207.76089230610427 M645.5003714793281,207.76089230610427 L645.584573946336,197.79113372447574 M623.93798296764,185.57877848249345 L645.584573946336,197.79113372447574 M623.93798296764,185.57877848249345 L628.2653918720029,180.59365193736164 M641.0037418879172,173.2735403761745 L628.2653918720029,180.59365193736164 M640.9206139202354,175.8185834302567 L641.0037418879172,173.2735403761745 M661.7772299535363,277.5698878886309 L662.567020421627,188.02017236614975 M662.567020421627,188.02017236614975 L640.9206139202354,175.8185834302567 M647.1163192131786,266.26341700044554 L647.6235330598095,206.5387704205341 M655.3884869961792,261.4890722771535 L647.1163192131786,266.26341700044554 M655.3884869961792,261.4890722771535 L655.2161081909824,281.3600589550197 M645.584573946336,197.79113372447574 L662.567020421627,188.02017236614975 M158.83313276412446,285.8846124951035 L158.87939622264014,305.7666556408417 M563.4979685357785,276.05266129606315 L563.3659549620551,295.9302512748378 M584.966853876491,191.16705294137256 L576.1399989236793,196.27343405301067 M576.1399989236793,196.27343405301067 L569.0084495416813,202.18380353235398 M569.0084495416813,202.18380353235398 L563.788621897334,208.72054466474748 M563.788621897334,208.72054466474748 L560.639796322014,215.68685957064838 M560.639796322014,215.68685957064838 L559.6590073771737,222.87268912227125 M559.6590073771737,222.87268912227125 L560.878012890763,230.06090324821653 M560.878012890763,230.06090324821653 L564.2620735320428,237.03386042604262 M564.2620735320428,237.03386042604262 L569.7106125556429,243.5800992046086 M569.7106125556429,243.5800992046086 L577.0602154672498,249.5006919436044 M577.0602154672498,249.5006919436044 L586.0893007912641,254.61544375788307 M586.0893007912641,254.61544375788307 L596.5247739823856,258.76845124810154 M596.5247739823856,258.76845124810154 L608.0502913375735,261.8329653953475 M608.0502913375735,261.8329653953475 L620.3158678356107,263.71538479937703 M620.3158678356107,263.71538479937703 L632.9487523452946,264.358136361005 M632.9487523452946,264.358136361005 L645.5647257610091,263.7415928049127 M645.5647257610091,263.7415928049127 L657.780121204552,261.88461111233266 M657.780121204552,261.88461111233266 L669.2237119375502,258.84393164635634 M669.2237119375502,258.84393164635634 L679.5480026957318,254.7124612306916 M679.5480026957318,254.7124612306916 L688.4400397026404,249.61627750313397 M688.4400397026404,249.61627750313397 L688.0655473668171,289.4362334130654 M688.0655473668171,289.4362334130654 L679.3405887094358,294.46017979496526 M679.3405887094358,294.46017979496526 L669.2267592154512,298.5524058701269 M669.2267592154512,298.5524058701269 L658.0206637863226,301.5920786508299 M658.0206637863226,301.5920786508299 L646.051355760428,303.48940560480855 M646.051355760428,303.48940560480855 L633.670760543051,304.18826751280596 M633.670760543051,304.18826751280596 L621.2430140528386,303.6680098566951 M621.2430140528386,303.6680098566951 L609.1336916648675,301.94402731829484 M609.1336916648675,301.94402731829484 L608.9813982986457,321.83333598258446 M688.4400397026404,249.61627750313397 L679.913500850496,224.76204499228382 M688.0655473668171,289.4362334130654 L647.1163192131786,266.26341700044554 M645.584573946336,197.79113372447574 L645.584573946336,190.36133664868623 M628.2653918720029,180.59365193736164 L645.584573946336,190.36133664868623 M645.584573946336,190.36133664868623 L658.3228132393306,183.0347653344526 M658.3228132393306,183.0347653344526 L641.0037418879172,173.2735403761745 M662.567020421627,188.02017236614975 L658.3228132393306,183.0347653344526 M609.1336916648675,301.94402731829484 L624.8492304530828,313.9292223206856 M624.8492304530828,313.9292223206856 L638.7573084103493,326.64047047476066 M638.7573084103493,326.64047047476066 L650.7554114261735,339.9881220020137 M650.7554114261735,339.9881220020137 L660.7541364787894,353.87772400175925 M660.7541364787894,353.87772400175925 L668.6780169617855,368.21062251253585 M668.6780169617855,368.21062251253585 L674.4661096248365,382.8845760883872 M674.4661096248365,382.8845760883872 L678.0724804375889,397.79457516811857 M678.0724804375889,397.79457516811857 L679.4667628458726,412.83344723640073 M679.4667628458726,412.83344723640073 L678.6343933870249,427.89266124660935 M678.6343933870249,427.89266124660935 L675.5769351055931,442.86312041836277 M675.5769351055931,442.86312041836277 L670.3120889857441,457.6359245533528 M670.3120889857441,457.6359245533528 L662.8738836510643,472.10317748816664 M662.8738836510643,472.10317748816664 L653.3122804703272,486.1588204508022 M653.3122804703272,486.1588204508022 L641.6931762054562,499.6993951809982 M641.6931762054562,499.6993951809982 L628.0978627385745,512.6249161436672 M628.0978627385745,512.6249161436672 L612.622586248617,524.8395690679699 M612.622586248617,524.8395690679699 L595.3779023054783,536.2525049563898 M654.4943959580071,570.157096096114 L595.3779023054783,536.2525049563898 M655.3884869961792,261.4890722771535 L674.7339348873411,274.23966864301065 M674.7339348873411,274.23966864301065 L692.3708962076838,287.79699616981566 M692.3708962076838,287.79699616981566 L708.196554735438,302.0860132532179 M708.196554735438,302.0860132532179 L722.1179417572192,317.0272536098993 M722.1179417572192,317.0272536098993 L734.0522893085315,332.53728798057125 M734.0522893085315,332.53728798057125 L743.9276001825608,348.52923023934727 M743.9276001825608,348.52923023934727 L751.683229403319,364.9130249234605 M751.683229403319,364.9130249234605 L757.2702706603728,381.5960328638975 M757.2702706603728,381.5960328638975 L760.6519130912358,398.4835293652676 M760.6519130912358,398.4835293652676 L761.8037820768674,415.47912438337784 M761.8037820768674,415.47912438337784 L760.7141212545959,432.4854740900284 M760.7141212545959,432.4854740900284 L757.384159163811,449.4046039787311 M757.384159163811,449.4046039787311 L751.8280430017237,466.13870923217587 M751.8280430017237,466.13870923217587 L744.0729081257097,482.5905424357723 M744.0729081257097,482.5905424357723 L734.1588828901948,498.66413700750707 M734.1588828901948,498.66413700750707 L722.1389301292317,514.2652867700479 M722.1389301292317,514.2652867700479 L708.0786626327708,529.3021797554261 M708.0786626327708,529.3021797554261 L692.0559599263039,543.6859759881462 M692.0559599263039,543.6859759881462 L674.1607646248366,557.3313560429403 M674.1607646248366,557.3313560429403 L654.4943959580071,570.157096096114 M690.1685305169349,503.72974319276597 L693.3987950692912,506.0782950555626 M693.3987950692912,506.0782950555626 L695.5710837153831,508.7995530105218 M695.5710837153831,508.7995530105218 L696.5588819296745,511.73557141476715 M696.5588819296745,511.73557141476715 L696.3042657748539,514.7158211539087 M696.3042657748539,514.7158211539087 L694.821574657992,517.567075663365 M694.821574657992,517.567075663365 L692.1966027205333,520.1234521649944 M692.1966027205333,520.1234521649944 L688.5816467728121,522.2361573257574 M688.5816467728121,522.2361573257574 L684.1868135195675,523.7821148485101 M684.1868135195675,523.7821148485101 L679.2676982266921,524.671247783097 M679.2676982266921,524.671247783097 L674.1106111037348,524.8517084775553 M674.1106111037348,524.8517084775553 L669.015728773956,524.3129625380185 M669.015728773956,524.3129625380185 L664.2795981371177,523.0864578059814 M664.2795981371177,523.0864578059814 L660.1777988006372,521.2436562449861 M660.1777988006372,521.2436562449861 L656.9488292523126,518.891932472715 M656.9488292523126,518.891932472715 L654.7802450913413,516.1682292528419 M654.7802450913413,516.1682292528419 L653.797712170868,513.2310524124447 M653.797712170868,513.2310524124447 L654.0579482315057,510.25119644581923 M654.0579482315057,510.25119644581923 L655.5453264145742,507.401797715376 M655.5453264145742,507.401797715376 L658.1729788077773,504.8483138471581 M658.1729788077773,504.8483138471581 L661.78799456294,502.7388755274033 M661.78799456294,502.7388755274033 L666.1802532732918,501.1958106409488 M666.1802532732918,501.1958106409488 L671.0947494477579,500.30853350021715 M671.0947494477579,500.30853350021715 L676.2462310811703,500.12846658765585 M676.2462310811703,500.12846658765585 L681.3358056999197,500.6660540586859 M681.3358056999197,500.6660540586859 L686.0681423203664,501.8901135410924 M686.0681423203664,501.8901135410924 L690.1685305169349,503.72974319276597 M654.4943959580071,570.157096096114 L654.3200226186397,590.1662370764211 M595.3779023054783,536.2525049563898 L595.2301369674157,556.2466554940011 M689.9787956592901,523.7094714231202 L690.1685305169349,503.72974319276597" stroke="black"  stroke-width="4"  fill="red"/>
<path d="M491.9969251432742,626.7264596238256 L510.8346214891891,614.713811630301 M510.8346214891891,614.713811630301 L527.7730493868809,601.8039319076779 M527.7730493868809,601.8039319076779 L542.685428442986,588.0974472603705 M542.685428442986,588.0974472603705 L555.4612035627441,573.700852228869 M555.4612035627441,573.700852228869 L566.0067357079193,558.7255438792981 M566.0067357079193,558.7255438792981 L574.2459635164238,543.286983571744 M574.2459635164238,543.286983571744 L580.1208708223498,527.5037199493172 M580.1208708223498,527.5037199493172 L583.5917342075838,511.4964483172566 M583.5917342075838,511.4964483172566 L584.6373575418736,495.38704842874023 M584.6373575418736,495.38704842874023 L583.2550485037319,479.29767113209573 M583.2550485037319,479.29767113209573 L579.4604088329096,463.3498172539665 M579.4604088329096,463.3498172539665 L573.2871988744267,447.66334744877673 M573.2871988744267,447.66334744877673 L564.7868004828321,432.3556930870126 M564.7868004828321,432.3556930870126 L554.027774183234,417.5409818600461 M554.027774183234,417.5409818600461 L541.0951800770302,403.3291861114072 M541.0951800770302,403.3291861114072 L526.0898335979248,389.825423822355 M492.07345921558874,611.7092031813634 L491.9969251432742,626.7264596238256 M526.1768794319433,374.88711989915083 L541.1872615454465,388.3863369745082 M541.1872615454465,388.3863369745082 L554.1242116176966,402.5933550410004 M554.1242116176966,402.5933550410004 L564.8868793175238,417.4030922833755 M564.8868793175238,417.4030922833755 L573.390174588765,432.7056140021877 M573.390174588765,432.7056140021877 L579.56551218798,448.38683136584285 M579.56551218798,448.38683136584285 L583.3614910594986,464.32935277061216 M583.3614910594986,464.32935277061216 L584.7443373831901,480.41335792526553 M584.7443373831901,480.41335792526553 L583.6984419148572,496.51738668699744 M583.6984419148572,496.51738668699744 L580.2264955569577,512.5193288757358 M580.2264955569577,512.5193288757358 L574.3496992462614,528.2973450848965 M574.3496992462614,528.2973450848965 L566.1077875098694,543.730779737686 M566.1077875098694,543.730779737686 L555.5587939129481,558.7011229954244 M555.5587939129481,558.7011229954244 L542.778803485283,573.0929510862895 M542.778803485283,573.0929510862895 L527.8614850989836,586.79490301803 M527.8614850989836,586.79490301803 L510.91742967227606,599.7005185625276 M510.91742967227606,599.7005185625276 L492.07345921558874,611.7092031813634 M526.1768794319433,374.88711989915083 L526.0898335979248,389.825423822355 M496.30243076839986,387.3562765248956 L506.01912935974383,388.93555647877173 M506.01912935974383,388.93555647877173 L516.0071520301585,389.7635138399948 M516.0071520301585,389.7635138399948 L526.0898335979248,389.825423822355 M476.7012261189625,617.8954836746952 L494.07897632591744,606.8348742782589 M494.07897632591744,606.8348742782589 L509.7312442919897,594.9559367438501 M509.7312442919897,594.9559367438501 L523.5436374492099,582.3488396962274 M523.5436374492099,582.3488396962274 L535.4160551248237,569.1089754289856 M535.4160551248237,569.1089754289856 L545.2633657583506,555.3361672281271 M545.2633657583506,555.3361672281271 L553.0159850456795,541.1339100395971 M553.0159850456795,541.1339100395971 L558.6202698979605,526.6085246510183 M558.6202698979605,526.6085246510183 L562.0388202963832,511.86834952345697 M562.0388202963832,511.86834952345697 L563.2506012423953,497.0228714921578 M563.2506012423953,497.0228714921578 L562.251031934295,482.18196335732455 M562.251031934295,482.18196335732455 L559.0518788696462,467.4549907291953 M559.0518788696462,467.4549907291953 L553.6809539523421,452.9500882267579 M553.6809539523421,452.9500882267579 L546.1819070190355,438.7733334313244 M546.1819070190355,438.7733334313244 L536.6137407218552,425.0279702077676 M536.6137407218552,425.0279702077676 L525.0502225007891,411.8137861811606 M525.0502225007891,411.8137861811606 L511.57932072076346,399.2263185270612 M511.57932072076346,399.2263185270612 L496.30243076839986,387.3562765248956 M491.9969251432742,626.7264596238256 L476.7012261189625,617.8954836746952 M476.77260205914376,602.8811404496787 L476.7012261189625,617.8954836746952 M492.07345921558874,611.7092031813634 L476.77260205914376,602.8811404496787 M526.1768794319433,374.88711989915083 L516.0908513688729,374.825230767459 M516.0908513688729,374.825230767459 L506.0995108807472,373.99755226500537 M506.0995108807472,373.99755226500537 L496.3795821631727,372.41880427426486 M496.3795821631727,372.41880427426486 L511.6615853754797,384.28484979638444 M511.6615853754797,384.28484979638444 L525.1370086413951,396.8680839934968 M525.1370086413951,396.8680839934968 L536.7044219197641,410.0778288455468 M536.7044219197641,410.0778288455468 L546.2758263853502,423.8185799515619 M546.2758263853502,423.8185799515619 L553.7774286212336,437.9905837570469 M553.7774286212336,437.9905837570469 L559.1502047092503,452.49063147517785 M559.1502047092503,452.49063147517785 L562.3504884987135,467.2126813833476 M562.3504884987135,467.2126813833476 L563.3504569363229,482.04863522810166 M563.3504569363229,482.04863522810166 L562.1383376637572,496.8891639864949 M562.1383376637572,496.8891639864949 L558.7187110677836,511.62443142193024 M558.7187110677836,511.62443142193024 L553.1126172713576,526.1449869428247 M553.1126172713576,526.1449869428247 L545.3574669834127,540.3425277648448 M545.3574669834127,540.3425277648448 L535.5069195617818,554.1107679331392 M535.5069195617818,554.1107679331392 L523.6305811068601,567.3462462391094 M523.6305811068601,567.3462462391094 L509.8136104146846,579.9491717794872 M509.8136104146846,579.9491717794872 L494.15614067568515,591.824183062394 M494.15614067568515,591.824183062394 L476.77260205914376,602.8811404496787 M496.3795821631727,372.41880427426486 L496.30243076839986,387.3562765248956" stroke="black"  stroke-width="4"  fill="red"/>
<path d="M445.57431515769235,343.8674334058244 L422.07728144411,335.37915735543436 M422.07728144411,335.37915735543436 L397.4079320877057,328.09585136765406 M397.4079320877057,328.09585136765406 L371.74999605063505,322.0702363496639 M371.74999605063505,322.0702363496639 L345.29395476371957,317.3458498742466 M345.29395476371957,317.3458498742466 L318.2358282494406,313.9567805342151 M318.2358282494406,313.9567805342151 L290.77574549312345,311.92743927792384 M290.77574549312345,311.92743927792384 L263.116523470604,311.2724595042825 M263.116523470604,311.2724595042825 L235.46243708502044,311.99653261283663 M235.46243708502044,311.99653261283663 L208.01768430211308,314.0944590687533 M208.01768430211308,314.0944590687533 L180.98500631715115,317.55113853279016 M180.98500631715115,317.55113853279016 L154.56435101139596,322.3416444405793 M154.56435101139596,322.3416444405793 L128.95147553347329,328.43142137611034 M128.95147553347329,328.43142137611034 L104.33660174807989,335.7764637957499 M104.33660174807989,335.7764637957499 L80.90301710127596,344.3235926931003 M80.90301710127596,344.3235926931003 L58.82591111873046,354.01081390089684 M58.82591111873046,354.01081390089684 L38.27098656293856,364.76766684615313 M53.22554078789028,373.40168275353943 L38.27098656293856,364.76766684615313 M450.00496482781625,360.91263775918145 L429.3174463514813,352.234345422688 M429.3174463514813,352.234345422688 L407.4311472587549,344.609367219546 M407.4311472587549,344.609367219546 L384.5056702835225,338.0917921760757 M384.5056702835225,338.0917921760757 L360.70763661584056,332.72777527168466 M360.70763661584056,332.72777527168466 L336.2096505215701,328.55522399757535 M336.2096505215701,328.55522399757535 L311.18892872309186,325.6036083143796 M311.18892872309186,325.6036083143796 L285.82626541972417,323.8937538274581 M285.82626541972417,323.8937538274581 L260.3047690016344,323.4376894955589 M260.3047690016344,323.4376894955589 L234.80855018541024,324.2386448431255 M234.80855018541024,324.2386448431255 L209.52161845165864,326.29098052286247 M209.52161845165864,326.29098052286247 L184.62651629709376,329.58021608060113 M184.62651629709376,329.58021608060113 L160.30320160975123,334.083150524913 M160.30320160975123,334.083150524913 L136.72776493291673,339.7679826998734 M136.72776493291673,339.7679826998734 L114.07126353333302,346.59451228190835 M114.07126353333302,346.59451228190835 L92.49849677521229,354.5143713481907 M92.49849677521229,354.5143713481907 L72.16692787417276,363.4713376828315 M72.16692787417276,363.4713376828315 L53.22554078789028,373.40168275353943 M445.57431515769235,343.8674334058244 L445.7288945172953,349.6386958038463 M445.7288945172953,349.6386958038463 L447.2141539785233,355.3539932567244 M447.2141539785233,355.3539932567244 L450.00496482781625,360.91263775918145 M445.6345152201882,328.9446389924077 L445.57431515769235,343.8674334058244 M38.196217923132735,349.83781142563976 L58.757989399369364,339.0845909929167 M58.757989399369364,339.0845909929167 L80.84243695841735,329.4006440308049 M80.84243695841735,329.4006440308049 L104.28380320552418,320.85640634580886 M104.28380320552418,320.85640634580886 L128.90684118243541,313.5138502451707 M128.90684118243541,313.5138502451707 L154.52820364284452,307.42613593210166 M154.52820364284452,307.42613593210166 L180.9576069030262,302.63725335426807 M180.9576069030262,302.63725335426807 L207.99923039514783,299.181745657656 M207.99923039514783,299.181745657656 L235.45306161221987,297.0845305433355 M235.45306161221987,297.0845305433355 L263.1162939326577,296.36070297578203 M263.1162939326577,296.36070297578203 L290.7846635459108,297.01546063804585 M290.7846635459108,297.01546063804585 L318.2538296801506,299.044113801619 M318.2538296801506,299.044113801619 L345.32090991276533,302.43203427588446 M345.32090991276533,302.43203427588446 L371.785710580384,307.15481979340666 M371.785710580384,307.15481979340666 L397.4521481646241,313.1783938664373 M397.4521481646241,313.1783938664373 L422.12967934246944,320.45923435394116 M422.12967934246944,320.45923435394116 L445.6345152201882,328.9446389924077 M38.196217923132735,349.83781142563976 L38.27098656293856,364.76766684615313 M53.15570272208754,358.4689141729279 L38.196217923132735,349.83781142563976 M53.15570272208754,358.4689141729279 L53.22554078789028,373.40168275353943 M450.0666794675028,345.9840837595011 L450.00496482781625,360.91263775918145 M53.15570272208754,358.4689141729279 L72.10339976949581,348.541919841363 M72.10339976949581,348.541919841363 L92.44173119320703,339.58797831580046 M92.44173119320703,339.58797831580046 L114.0216638715329,331.67079580698555 M114.0216638715329,331.67079580698555 L136.68568289970744,324.8465747805253 M136.68568289970744,324.8465747805253 L160.26893505600776,319.1636661245422 M160.26893505600776,319.1636661245422 L184.60030737547896,314.66225597351524 M184.60030737547896,314.66225597351524 L209.50365214526317,311.3741342390205 M209.50365214526317,311.3741342390205 L234.79895318068498,309.3224936978555 M234.79895318068498,309.3224936978555 L260.3036089398353,308.52180967266247 M260.3036089398353,308.52180967266247 L285.8335504691806,308.9777195111461 M285.8335504691806,308.9777195111461 L311.204607552697,310.68699483375474 M311.204607552697,310.68699483375474 L336.23361258859654,313.637610945803 M336.23361258859654,313.637610945803 L360.73971283820487,317.8087496175455 M360.73971283820487,317.8087496175455 L384.54563408315335,323.17095131255354 M384.54563408315335,323.17095131255354 L407.478715904605,329.6863219266095 M407.478715904605,329.6863219266095 L429.37228271850574,337.3087227459883 M429.37228271850574,337.3087227459883 L450.0666794675028,345.9840837595011 M450.0666794675028,345.9840837595011 L447.27492845116603,340.4273165789392 M447.27492845116603,340.4273165789392 L445.78916137344504,334.71395031095756 M445.78916137344504,334.71395031095756 L445.6345152201882,328.9446389924077" stroke="black"  stroke-width="4"  fill="red"/>
<path d="M496.30243076839986,387.3562765248956 L511.57932072076346,399.2263185270612 M511.57932072076346,399.2263185270612 L525.0502225007891,411.8137861811606 M525.0502225007891,411.8137861811606 L536.6137407218552,425.0279702077676 M536.6137407218552,425.0279702077676 L546.1819070190355,438.7733334313244 M546.1819070190355,438.7733334313244 L553.6809539523421,452.9500882267579 M553.6809539523421,452.9500882267579 L559.0518788696462,467.4549907291953 M559.0518788696462,467.4549907291953 L562.251031934295,482.18196335732455 M562.251031934295,482.18196335732455 L563.2506012423953,497.0228714921578 M563.2506012423953,497.0228714921578 L562.0388202963832,511.86834952345697 M562.0388202963832,511.86834952345697 L558.6202698979605,526.6085246510183 M558.6202698979605,526.6085246510183 L553.0159850456795,541.1339100395971 M553.0159850456795,541.1339100395971 L545.2633657583506,555.3361672281271 M545.2633657583506,555.3361672281271 L535.4160551248237,569.1089754289856 M535.4160551248237,569.1089754289856 L523.5436374492099,582.3488396962274 M523.5436374492099,582.3488396962274 L509.7312442919897,594.9559367438501 M509.7312442919897,594.9559367438501 L494.07897632591744,606.8348742782589 M494.07897632591744,606.8348742782589 L476.7012261189543,617.8954836747 M476.9154976173145,572.8222305397851 L476.7012261189543,617.8954836747 M496.53403866884355,342.5140984140445 L511.82627867583017,354.37212718392806 M511.82627867583017,354.37212718392806 L525.3107540244076,366.94686923677057 M525.3107540244076,366.94686923677057 L536.8859652933311,380.1477092530691 M536.8859652933311,380.1477092530691 L546.4638526735524,393.879208572516 M546.4638526735524,393.879208572516 L553.9705707395628,408.0416819817935 M553.9705707395628,408.0416819817935 L559.3470529954014,422.5319910571332 M559.3470529954014,422.5319910571332 L562.549600626158,437.2441660059818 M562.549600626158,437.2441660059818 L563.5503682536573,452.07018152272343 M563.5503682536573,452.07018152272343 L562.337571782455,466.9007819782415 M562.337571782455,466.9007819782415 L558.915790764719,481.62620448341346 M558.915790764719,481.62620448341346 L553.3060755786669,496.13707115346665 M553.3060755786669,496.13707115346665 L545.5458583312796,510.32515077471675 M545.5458583312796,510.32515077471675 L535.6888309476471,524.0842272709883 M535.6888309476471,524.0842272709883 L523.8046431615046,537.3109071158427 M523.8046431615046,537.3109071158427 L509.97850829217134,549.9054643715785 M509.97850829217134,549.9054643715785 L494.3106246287558,561.7725993409615 M494.3106246287558,561.7725993409615 L476.9154976173145,572.8222305397851 M496.53403866884355,342.5140984140445 L496.30243076839986,387.3562765248956 M450.00496482781625,360.91263775918145 L455.67875226046624,367.9199540799309 M455.67875226046624,367.9199540799309 L463.4147450732538,374.2533806532749 M463.4147450732538,374.2533806532749 L472.9715772129108,379.71332801300525 M472.9715772129108,379.71332801300525 L484.0500367442414,384.127463041329 M484.0500367442414,384.127463041329 L496.30243076839986,387.3562765248956 M53.225540787894545,373.401682753537 L72.16692787417276,363.4713376828315 M72.16692787417276,363.4713376828315 L92.49849677521229,354.5143713481907 M92.49849677521229,354.5143713481907 L114.07126353333302,346.59451228190835 M114.07126353333302,346.59451228190835 L136.72776493291673,339.7679826998734 M136.72776493291673,339.7679826998734 L160.30320160975123,334.083150524913 M160.30320160975123,334.083150524913 L184.62651629709376,329.58021608060113 M184.62651629709376,329.58021608060113 L209.52161845165864,326.29098052286247 M209.52161845165864,326.29098052286247 L234.80855018541024,324.2386448431255 M234.80855018541024,324.2386448431255 L260.3047690016344,323.4376894955589 M260.3047690016344,323.4376894955589 L285.82626541972417,323.8937538274581 M285.82626541972417,323.8937538274581 L311.18892872309186,325.6036083143796 M311.18892872309186,325.6036083143796 L336.2096505215701,328.55522399757535 M336.2096505215701,328.55522399757535 L360.70763661584056,332.72777527168466 M360.70763661584056,332.72777527168466 L384.5056702835225,338.0917921760757 M384.5056702835225,338.0917921760757 L407.4311472587549,344.609367219546 M407.4311472587549,344.609367219546 L429.3174463514813,352.234345422688 M429.3174463514813,352.234345422688 L450.00496482781625,360.91263775918145 M134.6096869769762,420.3888414635766 L53.225540787894545,373.401682753537 M134.6096869769762,420.3888414635766 L149.92796521753706,412.5349210077524 M149.92796521753706,412.5349210077524 L166.6626573458364,405.7188631141593 M166.6626573458364,405.7188631141593 L184.60450895440022,400.02441619493834 M184.60450895440022,400.02441619493834 L203.52982783960402,395.52143565243324 M203.52982783960402,395.52143565243324 L223.20318083682008,392.265082650045 M223.20318083682008,392.265082650045 L243.38021421970564,390.29520324064714 M243.38021421970564,390.29520324064714 L263.8105885322454,389.63589319871375 M263.8105885322454,389.63589319871375 L284.24096284478514,390.29520324064714 M284.24096284478514,390.29520324064714 L304.41799622767064,392.265082650045 M304.41799622767064,392.265082650045 L324.0913492248868,395.52143565243324 M324.0913492248868,395.52143565243324 L343.01666811009056,400.0244161949384 M343.01666811009056,400.0244161949384 L360.95851971865443,405.7188631141593 M360.95851971865443,405.7188631141593 L377.6932118469538,412.5349210077524 M377.6932118469538,412.5349210077524 L393.01149008751736,420.3888414635783 M393.01149008751736,420.3888414635783 L406.7211603590905,429.1839194721493 M406.7211603590905,429.1839194721493 L418.6494239569936,438.81163509418946 M418.6494239569936,438.81163509418946 L428.6451169715979,449.1528806069134 M428.6451169715979,449.1528806069134 L436.58063403713913,460.07938980658065 M436.58063403713913,460.07938980658065 L442.3536430265941,471.45525058701753 M442.3536430265941,471.45525058701753 L445.88849655075455,483.13853142407095 M445.88849655075455,483.13853142407095 L447.1373146265288,494.98301675605535 M447.1373146265288,494.98301675605535 L446.0808015076119,506.8400118607275 M446.0808015076119,506.8400118607275 L442.72861030125955,518.560194773593 M442.72861030125955,518.560194773593 L437.1194617699754,529.9954996250965 M437.1194617699754,529.9954996250965 L429.3207867428406,541.0010142586473 M429.3207867428406,541.0010142586473 L419.4280555689602,551.4368651087215 M419.4280555689602,551.4368651087215 L407.56371059454796,561.1700422680888 M407.56371059454796,561.1700422680888 L393.8757101648074,570.0761497427982 M476.7012261189543,617.8954836747 L393.8757101648074,570.0761497427982 M153.16128185789785,370.3173390297438 L150.5724605502386,369.1502513387045 M150.5724605502386,369.1502513387045 L147.570821783378,368.37364388759033 M147.570821783378,368.37364388759033 L144.3306807860829,368.03257220699993 M144.3306807860829,368.03257220699993 L141.04016957108195,368.1468152039206 M141.04016957108195,368.1468152039206 L137.89032224905634,368.70975279545837 M137.89032224905634,368.70975279545837 L135.0640164909032,369.688719563404 M135.0640164909032,369.688719563404 L132.72543319933044,371.0269365270386 M132.72543319933044,371.0269365270386 L131.0104878145562,372.6467408078464 M131.0104878145562,372.6467408078464 L130.0189114201322,374.45408478411474 M130.0189114201322,374.45408478411474 L129.80851609993357,376.3440066982781 M129.80851609993357,376.3440066982781 L130.39171459423773,378.20668664201014 M130.39171459423773,378.20668664201014 L131.73480291236712,379.9338264081484 M131.73480291236712,379.9338264081484 L133.75984548870247,381.424965802968 M133.75984548870247,381.424965802968 L136.34921080642073,382.5933371390933 M136.34921080642073,382.5933371390933 L139.3523708117316,383.3709341728727 M139.3523708117316,383.3709341728727 L142.59466178264535,383.7124746649189 M142.59466178264535,383.7124746649189 L145.88745916520622,383.598072312799 M145.88745916520622,383.598072312799 L149.03920511530288,383.0343836984138 M149.03920511530288,383.0343836984138 L151.86658702589904,382.05424630690374 M151.86658702589904,382.05424630690374 L154.2051774414221,380.7147072772074 M154.2051774414221,380.7147072772074 L155.91905928969572,379.09373236367935 M155.91905928969572,379.09373236367935 L156.90874515004026,377.2856373708107 M156.90874515004026,377.2856373708107 L157.11685602036772,375.39555609835037 M157.11685602036772,375.39555609835037 L156.53150250018143,373.533344964807 M156.53150250018143,373.533344964807 L155.18688227864942,371.80719477833844 M155.18688227864942,371.80719477833844 L153.16128185789785,370.3173390297438 M481.56649417882954,559.4074315147453 L478.93843913255625,558.2204932764151 M478.93843913255625,558.2204932764151 L475.8998643228531,557.4306773890319 M475.8998643228531,557.4306773890319 L472.62722819485873,557.0838049536919 M472.62722819485873,557.0838049536919 L469.31054758309494,557.1999909210656 M469.31054758309494,557.1999909210656 L466.14237440822853,557.7725027354053 M466.14237440822853,557.7725027354053 L463.30664921974585,558.7681199702319 M463.30664921974585,558.7681199702319 L460.9681006509194,560.12909879762 M460.9681006509194,560.12909879762 L459.26264380049133,561.7764563367217 M459.26264380049133,561.7764563367217 L458.28946097533253,563.6145460556166 M458.28946097533253,563.6145460556166 L458.1052993529254,565.5366211873891 M458.1052993529254,565.5366211873891 L458.7210505354483,567.4309935776846 M458.7210505354483,567.4309935776846 L460.10112118007476,569.187522042477 M460.10112118007476,569.187522042477 L462.1654273061514,570.704036247327 M462.1654273061514,570.704036247327 L464.79405481435185,571.8922910283433 M464.79405481435185,571.8922910283433 L467.834191542711,572.6831218596824 M467.834191542711,572.6831218596824 L471.1090212334841,573.0304751213041 M471.1090212334841,573.0304751213041 L474.42802452508477,572.9141257147332 M474.42802452508477,572.9141257147332 L477.59811739878205,572.3408436301306 M477.59811739878205,572.3408436301306 L480.4349195424253,571.3440257706848 M480.4349195424253,571.3440257706848 L482.7734555853946,569.9816909949724 M482.7734555853946,569.9816909949724 L484.47781329862266,568.3331328218633 M484.47781329862266,568.3331328218633 L485.4490621942074,566.4942728391152 M485.4490621942074,566.4942728391152 L485.6308981174526,564.572034264969 M485.6308981174526,564.572034264969 L485.0129622557188,562.678142699654 M485.0129622557188,562.678142699654 L483.63134844367494,560.9226291757423 M483.63134844367494,560.9226291757423 L481.56649417882954,559.4074315147453 M394.0063413549319,525.050437931865 L393.8757101648074,570.0761497427982 M476.9154976173145,572.8222305397851 L394.0063413549319,525.050437931865 M496.53403866884355,342.5140984140445 L484.2694071001898,339.2885548649143 M484.2694071001898,339.2885548649143 L473.17987162419035,334.8788916909251 M473.17987162419035,334.8788916909251 L463.6134736121779,329.4244780739963 M463.6134736121779,329.4244780739963 L455.8697245132431,323.0974738549924 M455.8697245132431,323.0974738549924 L450.19023156121546,316.09726740386316 M53.01588753239065,328.5736436229358 L71.97621712243381,318.6533706736201 M71.97621712243381,318.6533706736201 L92.32808709607531,309.70549671906736 M92.32808709607531,309.70549671906736 L113.92236590621712,301.79368319922946 M113.92236590621712,301.79368319922946 L136.60143516795608,294.97409296649175 M136.60143516795608,294.97409296649175 L160.20033383890842,289.29504274265406 M160.20033383890842,289.29504274265406 L184.54783744885157,284.79669020345796 M184.54783744885157,284.79669020345796 L209.46768383439735,281.5108027080679 M209.46768383439735,281.5108027080679 L234.77974010426544,279.4605565575355 M234.77974010426544,279.4605565575355 L260.3012865115529,278.6604167824396 M260.3012865115529,278.6604167824396 L285.8481350415321,279.1160167200052 M285.8481350415321,279.1160167200052 L311.23599636392817,280.8241302869342 M311.23599636392817,280.8241302869342 L336.2815843388176,283.7727413407666 M336.2815843388176,283.7727413407666 L360.8039290350726,287.94104644471145 M360.8039290350726,287.94104644471145 L384.6256411304058,293.29960696978975 M384.6256411304058,293.29960696978975 L407.5739477903935,299.8105556617056 M407.5739477903935,299.8105556617056 L429.4820645364116,307.4277864305785 M429.4820645364116,307.4277864305785 L450.19023156121546,316.09726740386316 M134.48078684240016,375.5132634442585 L53.01588753239065,328.5736436229358 M134.48078684240016,375.5132634442585 L149.81438761697962,367.6672754423108 M149.81438761697962,367.6672754423108 L166.56579916552244,360.8581062155053 M166.56579916552244,360.8581062155053 L184.5255592409602,355.1694175768413 M184.5255592409602,355.1694175768413 L203.46975430309618,350.6709925375013 M203.46975430309618,350.6709925375013 L223.16271892426408,347.4179349954375 M223.16271892426408,347.4179349954375 L243.35985884283264,345.45004958131796 M243.35985884283264,345.45004958131796 L263.8105885322454,344.79140699810523 M263.8105885322454,344.79140699810523 L284.2613182216581,345.45004958131796 M284.2613182216581,345.45004958131796 L304.45845814022675,347.4179349954375 M304.45845814022675,347.4179349954375 L324.15142276139454,350.67099253750143 M324.15142276139454,350.67099253750143 L343.0956178235305,355.1694175768413 M343.0956178235305,355.1694175768413 L361.05537789896835,360.8581062155053 M361.05537789896835,360.8581062155053 L377.80678944751116,367.6672754423108 M377.80678944751116,367.6672754423108 L393.1403902220918,375.51326344425905 M393.1403902220918,375.51326344425905 L406.86379434091816,384.29946495206667 M406.86379434091816,384.29946495206667 L418.8040296434548,393.91747162691513 M418.8040296434548,393.91747162691513 L428.80977937060493,404.24829783944773 M428.80977937060493,404.24829783944773 L436.75330791184956,415.16380840742414 M436.75330791184956,415.16380840742414 L442.53217733759914,426.5282295380937 M442.53217733759914,426.5282295380937 L446.0706604755692,438.1997735801874 M446.0706604755692,438.1997735801874 L447.32082486285947,450.03237258581345 M447.32082486285947,450.03237258581345 L446.26335062013266,461.8774813265046 M446.26335062013266,461.8774813265046 L442.90789567404556,473.58592733351037 M442.90789567404556,473.58592733351037 L437.29321492141423,485.00979235685736 M437.29321492141423,485.00979235685736 L429.48680251677854,496.0043081221136 M429.48680251677854,496.0043081221136 L419.5842208674886,506.42973938940685 M419.5842208674886,506.42973938940685 L407.7080322224798,516.153207287506 M407.7080322224798,516.153207287506 L394.0063413549319,525.050437931865 M153.05113738008015,325.4924273378669 L155.07874693753888,326.980772308381 M155.07874693753888,326.980772308381 L156.42469747003912,328.705172351241 M156.42469747003912,328.705172351241 L157.01062489045046,330.5654956865951 M157.01062489045046,330.5654956865951 L156.80229779464975,332.45366122364953 M156.80229779464975,332.45366122364953 L155.81161775038663,334.25992387799744 M155.81161775038663,334.25992387799744 L154.09602123976856,335.8792563296071 M154.09602123976856,335.8792563296071 L151.75509512646533,337.2174382404932 M151.75509512646533,337.2174382404932 L148.92489223263328,338.19658273278947 M148.92489223263328,338.19658273278947 L145.77000416109894,338.7597003578427 M145.77000416109894,338.7597003578427 L142.47392643388196,338.8739868293623 M142.47392643388196,338.8739868293623 L139.22840792349035,338.53279229447355 M139.22840792349035,338.53279229447355 L136.2222611335049,337.7559829520602 M136.2222611335049,337.7559829520602 L133.6303236265959,336.588795255678 M133.6303236265959,336.588795255678 L131.60327303188274,335.0991666632494 M131.60327303188274,335.0991666632494 L130.25885746021163,333.3737770594613 M130.25885746021163,333.3737770594613 L129.6750893617948,331.51298492279716 M129.6750893617948,331.51298492279716 L129.8857054580613,329.62497874102166 M129.8857054580613,329.62497874102166 L130.87827979899504,327.8194670890507 M130.87827979899504,327.8194670890507 L132.59494195877033,326.20130524799094 M132.59494195877033,326.20130524799094 L134.9358609268226,324.86444537812844 M134.9358609268226,324.86444537812844 L137.764985517833,323.88647148722686 M137.764985517833,323.88647148722686 L140.91797117450386,323.32410487079767 M140.91797117450386,323.32410487079767 L144.21175817843,323.2099777514596 M144.21175817843,323.2099777514596 L147.45512243419677,323.5507034837711 M147.45512243419677,323.5507034837711 L150.4597449601941,324.3265232622603 M150.4597449601941,324.3265232622603 L153.05113738008015,325.4924273378669 M481.7850941231501,514.3923541881992 L483.852036109878,515.9060408957939 M483.852036109878,515.9060408957939 L485.23505431422336,517.6598040793231 M485.23505431422336,517.6598040793231 L485.85362934525665,519.5518076418142 M485.85362934525665,519.5518076418142 L485.6716298524616,521.4721302809771 M485.6716298524616,521.4721302809771 L484.6994237448573,523.309157741942 M484.6994237448573,523.309157741942 L482.99337049804467,524.956073295202 M482.99337049804467,524.956073295202 L480.6524989213077,526.3170508261369 M480.6524989213077,526.3170508261369 L477.8128569790988,527.3128756968034 M477.8128569790988,527.3128756968034 L474.63958528372325,527.8855867415612 M474.63958528372325,527.8855867415612 L471.31724919990097,528.0018202573688 M471.31724919990097,528.0018202573688 L468.03912683232227,527.6548129833338 M468.03912683232227,527.6548129833338 L464.9959292890396,526.8647699136379 M464.9959292890396,526.8647699136379 L462.3646509815095,525.6776988805639 M462.3646509815095,525.6776988805639 L460.2982582226699,524.1626956207375 M460.2982582226699,524.1626956207375 L458.91678627694046,522.4079174898689 M458.91678627694046,522.4079174898689 L458.30040031024737,520.5154330993372 M458.30040031024737,520.5154330993372 L458.484730176668,518.5952739035879 M458.484730176668,518.5952739035879 L459.45887410678154,516.7590167113783 M459.45887410678154,516.7590167113783 L461.16602871041107,515.1133017997663 M461.16602871041107,515.1133017997663 L463.50691285077573,513.7536802257853 M463.50691285077573,513.7536802257853 L466.3454756850955,512.759055987379 M466.3454756850955,512.759055987379 L469.5168238316163,512.1871152177864 M469.5168238316163,512.1871152177864 L472.8368325702422,512.0710451422163 M472.8368325702422,512.0710451422163 L476.1127569631251,512.4175715869092 M476.1127569631251,512.4175715869092 L479.15438944001073,513.2065997061899 M479.15438944001073,513.2065997061899 L481.7850941231501,514.3923541881992 M450.19023156121546,316.09726740386316 L450.00496482781625,360.91263775918145 M53.01588753239065,328.5736436229358 L53.225540787894545,373.401682753537 M134.48078684240016,375.5132634442585 L134.6096869769762,420.3888414635766 M153.16128185789785,370.3173390297438 L153.05113738008015,325.4924273378669 M481.56649417882954,559.4074315147453 L481.7850941231501,514.3923541881992" stroke="black"  stroke-width="4"  fill="red"/></svg>