<svg viewBox="0 0 800 800" xmlns="http://www.w3.org/2000/svg"><path d="M647.845319687851,260.6542199808847 L641.3668812924011,264.3916402806868 M641.4811381197092,244.85510894767967 L641.3668812924011,264.3916402806868 M633.3132248305914,249.5629963056424 L641.4811381197092,244.85510894767967 M633.6458420288267,190.8433591865088 L633.3132248305914,249.5629963056424 M633.6458420288267,190.8433591865088 L631.5494176743563,192.04847840758896 M631.5494176743563,192.04847840758896 L631.6044791892846,182.24644982733952 M648.3730695893851,172.61142705051827 L631.6044791892846,182.24644982733952 M647.845319687851,260.6542199808847 L648.3730695893851,172.61142705051827 M662.5814140523952,276.46552882019523 L669.0598010378192,272.7239827523576 M669.0598010378192,272.7239827523576 L647.845319687851,260.6542199808847 M641.3668812924011,264.3916402806868 L619.310029025902,253.62572053540927 M619.310029025902,253.62572053540927 L595.9251642683105,243.8515097944628 M595.9251642683105,243.8515097944628 L571.3450531502898,235.12243831625028 M571.3450531502898,235.12243831625028 L545.7086328805575,227.48608456623015 M545.7086328805575,227.48608456623015 L519.1603132553053,220.98399524237334 M519.1603132553053,220.98399524237334 L491.84913549968974,215.65144405240142 M491.84913549968974,215.65144405240142 L463.92803080750156,211.517358286617 M463.92803080750156,211.517358286617 L435.55306391554194,208.60409206266084 M435.55306391554194,208.60409206266084 L406.8825530349585,206.9273866926637 M406.8825530349585,206.9273866926637 L378.07635043272006,206.49633387554428 M378.07635043272006,206.49633387554428 L349.2949925436575,207.31323132246445 M349.2949925436575,207.31323132246445 L320.69887700369594,209.3736967672454 M320.69887700369594,209.3736967672454 L292.44745527245453,212.66655944135957 M292.44745527245453,212.66655944135957 L264.69848534159956,217.17403293064868 M264.69848534159956,217.17403293064868 L237.607085728334,222.87171189394223 M237.607085728334,222.87171189394223 L211.3251001252514,229.7287047481623 M211.3251001252514,229.7287047481623 L186.00022128870816,237.70775896953796 M186.00022128870816,237.70775896953796 L161.77523982843132,246.7654627371025 M161.77523982843132,246.7654627371025 L138.7872525878227,256.8523796552374 M138.7872525878227,256.8523796552374 L117.16698328682492,267.9133408050435 M173.73610879554715,300.55902661362285 L117.16698328682492,267.9133408050435 M572.070469616741,290.848776905206 L551.4290078573443,282.09851476808956 M551.4290078573443,282.09851476808956 L529.5897911814842,274.38821295266 M529.5897911814842,274.38821295266 L506.70878158994117,267.77140906399853 M506.70878158994117,267.77140906399853 L482.9488849625257,262.29395059481476 M482.9488849625257,262.29395059481476 L458.4787871483383,257.99371517729514 M458.4787871483383,257.99371517729514 L433.4719047997574,254.90041179859418 M433.4719047997574,254.90041179859418 L408.1051038498174,253.03539333359177 M408.1051038498174,253.03539333359177 L382.55767608593527,252.41150433815784 M382.55767608593527,252.41150433815784 L357.0100918236278,253.03305729318424 M357.0100918236278,253.03305729318424 L331.6427810715961,254.89576191774938 M331.6427810715961,254.89576191774938 L306.6350512482171,257.9867820891249 M306.6350512482171,257.9867820891249 L282.1637836806161,262.2847734130883 M282.1637836806161,262.2847734130883 L258.4023939721422,267.76006307690136 M258.4023939721422,267.76006307690136 L235.51959092435976,274.37477751973756 M235.51959092435976,274.37477751973756 L213.67826703808163,282.08307572738977 M213.67826703808163,282.08307572738977 L193.03443091635347,290.8314474555639 M193.03443091635347,290.8314474555639 L173.73610879554715,300.55902661362285 M572.070469616741,290.848776905206 L577.4525491381946,297.668321360452 M577.4525491381946,297.668321360452 L584.8981557268725,303.8253444829527 M584.8981557268725,303.8253444829527 L594.1616514871524,309.11477668475334 M594.1616514871524,309.11477668475334 L604.9363938841302,313.3601612265706 M604.9363938841302,313.3601612265706 L616.8648868561266,316.4196759405832 M602.2204177077581,547.8346207979001 L619.247641439453,536.5623507492421 M619.247641439453,536.5623507492421 L634.5370266163161,524.4982808753831 M634.5370266163161,524.4982808753831 L647.979346240101,511.73213792030924 M647.979346240101,511.73213792030924 L659.4794280393405,498.3585567390583 M659.4794280393405,498.3585567390583 L668.9567626114964,484.4763134651086 M668.9567626114964,484.4763134651086 L676.3460471344835,470.18757311992425 M676.3460471344835,470.18757311992425 L681.5975759296525,455.59711258182205 M681.5975759296525,455.59711258182205 L684.677406121042,440.8114705771685 M684.677406121042,440.8114705771685 L685.567580935555,425.93822297474435 M685.567580935555,425.93822297474435 L684.2660670468416,411.08511496598294 M684.2660670468416,411.08511496598294 L680.7866982725441,396.3593362686934 M680.7866982725441,396.3593362686934 L675.1588686396185,381.8667334712351 M675.1588686396185,381.8667334712351 L667.4272878758205,367.71102491270403 M667.4272878758205,367.71102491270403 L657.6514985513669,353.99316591841614 M657.6514985513669,353.99316591841614 L645.9053212772174,340.8105862213029 M645.9053212772174,340.8105862213029 L632.2762796977697,328.2565840191448 M632.2762796977697,328.2565840191448 L616.8648868561266,316.4196759405832 M660.247173776226,581.3214960159056 L602.2204177077581,547.8346207979001 M660.247173776226,581.3214960159056 L679.6646293551523,568.6537465621759 M679.6646293551523,568.6537465621759 L697.3425894530103,555.1764853738779 M697.3425894530103,555.1764853738779 L713.1809213735318,540.969958941385 M713.1809213735318,540.969958941385 L727.0907293811556,526.1184251500003 M727.0907293811556,526.1184251500003 L738.9949320211181,510.70964419365896 M738.9949320211181,510.70964419365896 L748.8285294790053,494.8342988261741 M748.8285294790053,494.8342988261741 L756.5389590361045,478.58543771922575 M756.5389590361045,478.58543771922575 L762.0862834128449,462.0578469925859 M762.0862834128449,462.0578469925859 L765.4433647668992,445.34756710403866 M765.4433647668992,445.34756710403866 L766.5957667804697,428.5512344245657 M766.5957667804697,428.5512344245657 L765.5419442453364,411.7655486236124 M765.5419442453364,411.7655486236124 L762.2929109718611,395.08671588320544 M762.2929109718611,395.08671588320544 L756.8722806640528,378.60989625021756 M756.8722806640528,378.60989625021756 L749.3158344811392,362.4286503153451 M749.3158344811392,362.4286503153451 L739.6712673834314,346.6344775892221 M739.6712673834314,346.6344775892221 L727.9979188641744,331.3162782799602 M727.9979188641744,331.3162782799602 L714.3661714385306,316.55990486216234 M714.3661714385306,316.55990486216234 L698.8571191144418,302.4477391212004 M698.8571191144418,302.4477391212004 L681.5619445932418,289.05822975188426 M681.5619445932418,289.05822975188426 L662.5814140523952,276.46552882019523 M695.6729474361557,515.7127835416459 L691.6457402395152,513.8958387567179 M691.6457402395152,513.8958387567179 L686.993639825103,512.6868691100406 M686.993639825103,512.6868691100406 L681.986667108052,512.1559204415867 M681.986667108052,512.1559204415867 L676.9153982887477,512.3337668098752 M676.9153982887477,512.3337668098752 L672.0740706723727,513.2100929354658 M672.0740706723727,513.2100929354658 L667.7436486415971,514.7341343866441 M667.7436486415971,514.7341343866441 L664.1755780127618,516.8175612191819 M664.1755780127618,516.8175612191819 L661.577233086755,519.3395640701752 M661.577233086755,519.3395640701752 L660.099845355667,522.1538228887932 M660.099845355667,522.1538228887932 L659.8296681817392,525.0969370017627 M659.8296681817392,525.0969370017627 L660.7828873387933,527.9979118534725 M660.7828873387933,527.9979118534725 L662.9045276587129,530.6880324464514 M662.9045276587129,530.6880324464514 L666.0716157237262,533.0107653711414 M666.0716157237262,533.0107653711414 L670.1002002938905,534.8308506515355 M670.1002002938905,534.8308506515355 L674.7560326445705,536.0422413406034 M674.7560326445705,536.0422413406034 L679.7682369407469,536.5743369840195 M679.7682369407469,536.5743369840195 L684.8450344226519,536.396103093136 M684.8450344226519,536.396103093136 L689.6909324281306,535.5179372135594 M689.6909324281306,535.5179372135594 L694.0239083763189,533.9910317645833 M694.0239083763189,533.9910317645833 L697.5919354163868,531.9043704450758 M697.5919354163868,531.9043704450758 L700.1876492336918,529.3795036043703 M700.1876492336918,529.3795036043703 L701.6604170547803,526.5634097482935 M701.6604170547803,526.5634097482935 L701.9250550597482,523.6199034039406 M701.9250550597482,523.6199034039406 L700.9666352379642,520.7200755192251 M700.9666352379642,520.7200755192251 L698.8413282335318,518.0323759707204 M698.8413282335318,518.0323759707204 L695.6729474361557,515.7127835416459 M117.04982348022361,248.37521826545137 L138.67969258215498,237.31925646090605 M138.67969258215498,237.31925646090605 L161.67786886804174,227.2369029403964 M161.67786886804174,227.2369029403964 L185.91357128471142,218.1833004436936 M185.91357128471142,218.1833004436936 L211.24964322658852,210.2078618289279 M211.24964322658852,210.2078618289279 L237.54323216735423,203.3539781851135 M237.54323216735423,203.3539781851135 L264.6465815951996,197.65888419965032 M264.6465815951996,197.65888419965032 L292.40778251417146,193.1534566319802 M292.40778251417146,193.1534566319802 L320.67164989537326,189.86208909118014 M320.67164989537326,189.86208909118014 L349.28035825555935,187.80255942882374 M349.28035825555935,187.80255942882374 L378.0743880248013,186.9860330320205 M378.0743880248013,186.9860330320205 L406.89327310917776,187.4168900535248 M406.89327310917776,187.4168900535248 L435.5764085640118,189.0928338907706 M435.5764085640118,189.0928338907706 L463.9638738631625,192.0047772254878 M463.9638738631625,192.0047772254878 L491.8972831025491,196.1369863258839 M491.8972831025491,196.1369863258839 L519.2205046791603,201.46711782596122 M519.2205046791603,201.46711782596122 L545.7805416943809,207.96625832400747 M545.7805416943809,207.96625832400747 L571.4282886650627,215.59915101425463 M571.4282886650627,215.59915101425463 L596.0192732681049,224.32426905614236 M596.0192732681049,224.32426905614236 L619.4144978344542,234.0940566596985 M619.4144978344542,234.0940566596985 L641.4811381197092,244.85510894767967 M117.04982348022361,248.37521826545137 L117.16698328682492,267.9133408050435 M173.64378675445684,281.00617761623664 L117.04982348022361,248.37521826545137 M173.64378675445684,281.00617761623664 L192.95067903807393,271.2829820698697 M192.95067903807393,271.2829820698697 L213.60366881132953,262.5385559454963 M213.60366881132953,262.5385559454963 L235.4546647956109,254.8337368162385 M235.4546647956109,254.8337368162385 L258.3475901930668,248.22200978222656 M258.3475901930668,248.22200978222656 L282.11948160956484,242.74919426287812 M282.11948160956484,242.74919426287812 L306.6015570824465,238.4531459392531 M306.6015570824465,238.4531459392531 L331.6203260201337,235.36352359129208 M331.6203260201337,235.36352359129208 L356.99883077168823,233.50166150646805 M356.99883077168823,233.50166150646805 L382.5576866566702,232.88038972380951 M382.5576866566702,232.88038972380951 L408.11638597598665,233.50399649014878 M408.11638597598665,233.50399649014878 L433.49438070587604,235.36817136907482 M433.49438070587604,235.36817136907482 L458.5123018035688,238.46007589257033 M458.5123018035688,238.46007589257033 L482.9932070187208,242.7583672966574 M482.9932070187208,242.7583672966574 L506.7636047098041,248.2333506436155 M506.7636047098041,248.2333506436155 L529.6547358762558,254.8471661831015 M529.6547358762558,254.8471661831015 L551.5036237384602,262.55398802031397 M551.5036237384602,262.55398802031397 L572.154238120702,271.300303706819 M572.154238120702,271.300303706819 L569.1340677105698,264.4916272174356 M569.1340677105698,264.4916272174356 L568.1811843947974,257.49771884084055 M568.1811843947974,257.49771884084055 L569.3215111720973,250.52334794468976 M569.3215111720973,250.52334794468976 L572.5197194878892,243.77233171101693 M572.5197194878892,243.77233171101693 L577.6805687807682,237.44157165435186 M577.6805687807682,237.44157165435186 L584.6517891745975,231.71540504349838 M584.6517891745975,231.71540504349838 L593.2287529098118,226.76028941077809 M633.3132248305914,249.5629963056424 L593.2287529098118,226.76028941077809 M602.0238716307123,172.90315127109048 L593.4147774166603,187.65187622132913 M593.4147774166603,187.65187622132913 L593.2287529098118,226.76028941077809 M602.0238716307123,172.90315127109048 L633.6458420288267,190.8433591865088 M686.607362197237,220.89021178221432 L678.3926846373893,225.64343680314244 M678.3926846373893,225.64343680314244 L668.696793883577,229.381631642826 M668.696793883577,229.381631642826 L657.8939360861425,231.9597107247059 M657.8939360861425,231.9597107247059 L646.4017207426646,233.2775107228124 M646.4017207426646,233.2775107228124 L634.6647580473341,233.28380764632567 M634.6647580473341,233.28380764632567 L623.1372492498688,231.97836159236599 M623.1372492498688,231.97836159236599 L612.2651844970258,229.41190967694558 M612.2651844970258,229.41190967694558 L602.4688509770542,225.68415813116545 M602.4688509770542,225.68415813116545 L594.1264200716317,220.93980559131836 M594.1264200716317,220.93980559131836 L587.5592599748268,215.36280023382596 M587.5592599748268,215.36280023382596 L583.0195549105413,209.16907126335644 M583.0195549105413,209.16907126335644 L580.6807121689188,202.59804526100362 M580.6807121689188,202.59804526100362 L580.6308958382955,195.9032979512636 M580.6308958382955,195.9032979512636 L582.8699530086018,189.34270895376642 M582.8699530086018,189.34270895376642 L587.3097081375845,183.16853752101565 M587.3097081375845,183.16853752101565 L593.7776542403774,177.61778241819525 M593.7776542403774,177.61778241819525 L602.0238716307123,172.90315127109048 M654.8982205309131,202.90054867294688 L686.607362197237,220.89021178221432 M652.8018121095856,204.10700102727714 L654.8982205309131,202.90054867294688 M631.5494176743563,192.04847840758896 L652.8018121095856,204.10700102727714 M652.8018121095856,204.10700102727714 L652.8616059360676,194.302218785782 M631.6044791892846,182.24644982733952 L652.8616059360676,194.302218785782 M631.6044791892846,182.24644982733952 L635.8540242089865,177.34380981376611 M648.4318380989856,170.11757095994147 L635.8540242089865,177.34380981376611 M648.3730695893851,172.61142705051827 L648.4318380989856,170.11757095994147 M669.0598010378192,272.7239827523576 L669.6300652487083,184.65653720868227 M669.6300652487083,184.65653720868227 L648.3730695893851,172.61142705051827 M654.5372537133707,261.6366319693136 L654.8982205309131,202.90054867294688 M662.7051038699258,256.92354423605553 L654.5372537133707,261.6366319693136 M662.7051038699258,256.92354423605553 L662.5814140523952,276.46552882019523 M652.8616059360676,194.302218785782 L669.6300652487083,184.65653720868227 M173.64378675445684,281.00617761623664 L173.73610879554715,300.55902661362285 M572.154238120702,271.300303706819 L572.070469616741,290.848776905206 M593.4147774166603,187.65187622132913 L584.6990798549394,192.69272219996648 M584.6990798549394,192.69272219996648 L577.6488733597906,198.5272571364411 M577.6488733597906,198.5272571364411 L572.4781154826793,204.98013730608847 M572.4781154826793,204.98013730608847 L569.3445644559498,211.85710140373493 M569.3445644559498,211.85710140373493 L568.3447990258301,218.95076814810128 M568.3447990258301,218.95076814810128 L569.5111238233757,226.04679288612593 M569.5111238233757,226.04679288612593 L572.8103196290702,232.93035213781695 M572.8103196290702,232.93035213781695 L578.144388662676,239.39267569591863 M578.144388662676,239.39267569591863 L585.35338130998,245.23737437784519 M585.35338130998,245.23737437784519 L594.2199493556492,250.286569153402 M594.2199493556492,250.286569153402 L604.4759194356017,254.38635144218287 M604.4759194356017,254.38635144218287 L615.8104073431855,257.4115841772566 M615.8104073431855,257.4115841772566 L627.8792120171951,259.2698720652912 M627.8792120171951,259.2698720652912 L640.3155271780515,259.904396529288 M640.3155271780515,259.904396529288 L652.7411542436224,259.2957534737766 M652.7411542436224,259.2957534737766 L664.7782085460229,257.4625588300456 M664.7782085460229,257.4625588300456 L676.0608449588811,254.46084604946907 M676.0608449588811,254.46084604946907 L686.2464651982391,250.3823247305025 M686.2464651982391,250.3823247305025 L695.0262969187985,245.35146914730683 M695.0262969187985,245.35146914730683 L694.7499089577396,284.51225804251703 M694.7499089577396,284.51225804251703 L686.1350057224539,289.47179060419535 M686.1350057224539,289.47179060419535 L676.1569007391101,293.5115442945924 M676.1569007391101,293.5115442945924 L665.1081768254886,296.51225988227765 M665.1081768254886,296.51225988227765 L653.3133359053561,298.38525640557896 M653.3133359053561,298.38525640557896 L641.1191165824755,299.07516932155096 M641.1191165824755,299.07516932155096 L628.8842267168957,298.5615804856718 M628.8842267168957,298.5615804856718 L616.9685738487616,296.8596877249303 M616.9685738487616,296.8596877249303 L616.8648868561266,316.4196759405832 M695.0262969187985,245.35146914730683 L686.607362197237,220.89021178221432 M694.7499089577396,284.51225804251703 L654.5372537133707,261.6366319693136 M652.8616059360676,194.302218785782 L652.8616059360676,186.98625567077949 M635.8540242089865,177.34380981376611 L652.8616059360676,186.98625567077949 M652.8616059360676,186.98625567077949 L665.4393411475728,179.75362156173142 M665.4393411475728,179.75362156173142 L648.4318380989856,170.11757095994147 M669.6300652487083,184.65653720868227 L665.4393411475728,179.75362156173142 M616.9685738487616,296.8596877249303 L632.3868456028528,308.6912743692232 M632.3868456028528,308.6912743692232 L646.0219877638414,321.2396389334237 M646.0219877638414,321.2396389334237 L657.7734414824671,334.4163055588178 M657.7734414824671,334.4163055588178 L667.5536427035973,348.1280188227729 M667.5536427035973,348.1280188227729 L675.288736159046,362.2773934475351 M675.288736159046,362.2773934475351 L680.919150680901,376.7635199419252 M680.919150680901,376.7635199419252 L684.4001543095654,391.482726814079 M684.4001543095654,391.482726814079 L685.7023374326232,406.32921503330806 M685.7023374326232,406.32921503330806 L684.8118574739498,421.19584278673256 M684.8118574739498,421.19584278673256 L681.7307460398673,435.9749127780577 M681.7307460398673,435.9749127780577 L676.4769653226111,450.5588967021419 M676.4769653226111,450.5588967021419 L669.0844708597765,464.84130268693036 M669.0844708597765,464.84130268693036 L659.6029882060246,478.7173996921401 M659.6029882060246,478.7173996921401 L648.097847266826,492.0850671624278 M648.097847266826,492.0850671624278 L634.649591620539,504.84557174164894 M634.649591620539,504.84557174164894 L619.3534346144102,516.9043193628718 M619.3534346144102,516.9043193628718 L602.318650990681,528.1716217787985 M660.3715415390828,561.6437697268279 L602.318650990681,528.1716217787985 M662.7051038699258,256.92354423605553 L681.694093627529,269.5105638558081 M681.694093627529,269.5105638558081 L698.9969968672767,282.8940394416413 M698.9969968672767,282.8940394416413 L714.5130017955519,296.9998535717162 M714.5130017955519,296.9998535717162 L728.1508839421945,311.749594024322 M728.1508839421945,311.749594024322 L739.829511627556,327.06091711928116 M739.829511627556,327.06091711928116 L749.478469073044,342.84800988047215 M749.478469073044,342.84800988047215 L757.0383881201475,359.02201277373774 M757.0383881201475,359.02201277373774 L762.4615500583251,375.491467912461 M762.4615500583251,375.491467912461 L765.71215506964,392.16285701897175 M765.71215506964,392.16285701897175 L766.766576056738,408.94106282668116 M766.766576056738,408.94106282668116 L765.6137913390727,425.72992214382015 M765.6137913390727,425.72992214382015 L762.2553438275839,442.43277825003713 M762.2553438275839,442.43277825003713 L756.7056733321899,458.95303743528723 M756.7056733321899,458.95303743528723 L748.9919269601726,475.19470138427727 M748.9919269601726,475.19470138427727 L739.1540571390027,491.06302532118997 M739.1540571390027,491.06302532118997 L727.2446476021428,506.4650009231009 M727.2446476021428,506.4650009231009 L713.3287250189326,521.309984534052 M713.3287250189326,521.309984534052 L697.483403430771,535.5102535880778 M697.483403430771,535.5102535880778 L679.7976168147935,548.9815861330648 M679.7976168147935,548.9815861330648 L660.3715415390828,561.6437697268279 M695.8127651427027,496.06395396122764 L698.9825754425452,498.3825217881046 M698.9825754425452,498.3825217881046 L701.1088487786004,501.06903440684334 M701.1088487786004,501.06903440684334 L702.067715329945,503.9675820093995 M702.067715329945,503.9675820093995 L701.8029780819201,506.90978913430405 M701.8029780819201,506.90978913430405 L700.3295703990135,509.72464033599306 M700.3295703990135,509.72464033599306 L697.7327129276737,512.2483933036688 M697.7327129276737,512.2483933036688 L694.1631047053708,514.3341342634387 M694.1631047053708,514.3341342634387 L689.8282019372153,515.860366354408 M689.8282019372153,515.860366354408 L684.9801436436815,516.7381450096223 M684.9801436436815,516.7381450096223 L679.9010783046549,516.9163003126539 M679.9010783046549,516.9163003126539 L674.8866307934193,516.3844392875264 M674.8866307934193,516.3844392875264 L670.2287106559996,515.1735827826378 M670.2287106559996,515.1735827826378 L666.1983153380088,513.354300212357 M666.1983153380088,513.354300212357 L663.0297989067366,511.0325918739539 M663.0297989067366,511.0325918739539 L660.9071955169935,508.3436581984753 M660.9071955169935,508.3436581984753 L659.9535342705497,505.44396362311426 M659.9535342705497,505.44396362311426 L660.2238156412527,502.50214873052795 M660.2238156412527,502.50214873052795 L661.7018473715574,499.6891325766466 M661.7018473715574,499.6891325766466 L664.3013383198958,497.16824361319283 M664.3013383198958,497.16824361319283 L667.8709901894031,495.0857371567797 M667.8709901894031,495.0857371567797 L672.2033367753348,493.56236907811865 M672.2033367753348,493.56236907811865 L677.0468206087553,492.68643018515957 M677.0468206087553,492.68643018515957 L682.1203523455471,492.50866240773865 M682.1203523455471,492.50866240773865 L687.1295635960412,493.03937645209254 M687.1295635960412,493.03937645209254 L691.7837484479154,494.2478119023243 M691.7837484479154,494.2478119023243 L695.8127651427027,496.06395396122764 M660.3715415390828,561.6437697268279 L660.247173776226,581.3214960159056 M602.318650990681,528.1716217787985 L602.2204177077581,547.8346207979001 M695.6729474361557,515.7127835416459 L695.8127651427027,496.06395396122764" stroke="black"  stroke-width="4"  fill="red"/>
<path d="M33.23342394326198,356.2954159227241 L52.627486712240284,346.11366956381096 M52.627486712240284,346.11366956381096 L73.39348285776475,336.8949166332721 M73.39348285776475,336.8949166332721 L95.38892773989892,328.7004473926208 M95.38892773989892,328.7004473926208 L118.46349218664193,321.5846005007635 M118.46349218664193,321.5846005007635 L142.46001640508996,315.594466953 M142.46001640508996,315.594466953 L167.21557975502742,310.769634547226 M167.21557975502742,310.769634547226 L192.5624249371406,307.141903270427 M192.5624249371406,307.141903270427 L218.3291604747389,304.73518969009683 M218.3291604747389,304.73518969009683 L244.34174006587313,303.5653365677686 M244.34174006587313,303.5653365677686 L270.42457904264313,303.6400279392027 M270.42457904264313,303.6400279392027 L296.4016654408131,304.95878223670434 M296.4016654408131,304.95878223670434 L322.0976543239183,307.5129121226248 M322.0976543239183,307.5129121226248 L347.338956717131,311.2856129204366 M347.338956717131,311.2856129204366 L371.9548340841756,316.25202859560125 M371.9548340841756,316.25202859560125 L395.77845449421795,322.379387972294 M395.77845449421795,322.379387972294 L418.6479708167848,329.62721702836086 M33.34957989043295,370.9821400761341 L33.23342394326198,356.2954159227241 M418.63597599322804,344.30497784700435 L395.77405689984175,337.05470903216803 M395.77405689984175,337.05470903216803 L371.95834556497505,330.92528582752993 M371.95834556497505,330.92528582752993 L347.35063637679514,325.9571965213281 M347.35063637679514,325.9571965213281 L322.11770705978705,322.18322386293863 M322.11770705978705,322.18322386293863 L296.43024079867075,319.6282326788839 M296.43024079867075,319.6282326788839 L270.4617703786241,318.3090335965929 M270.4617703786241,318.3090335965929 L244.3875840250223,318.2343170319412 M244.3875840250223,318.2343170319412 L218.38363678230925,319.40456472347984 M218.38363678230925,319.40456472347984 L192.62545650388242,321.8120899122045 M192.62545650388242,321.8120899122045 L167.2870331025071,325.4410442258796 M167.2870331025071,325.4410442258796 L142.5397024148134,330.267502636312 M142.5397024148134,330.267502636312 L118.55116713091832,336.2596539230953 M118.55116713091832,336.2596539230953 L95.4842946724109,343.37789633146184 M95.4842946724109,343.37789633146184 L73.49619327745955,351.57512230225063 M73.49619327745955,351.57512230225063 L52.737142555065134,360.7969741153129 M52.737142555065134,360.7969741153129 L33.34957989043295,370.9821400761341 M418.63597599322804,344.30497784700435 L418.6479708167848,329.62721702836086 M418.6479708167848,329.62721702836086 L414.8701593668178,331.6095443262264 M414.8701593668178,331.6095443262264 L411.33672800364815,333.7362957549172 M411.33672800364815,333.7362957549172 L408.06424260989655,335.99758558292325 M43.72436063995059,362.38760737208065 L63.305129056134206,352.15154999014214 M63.305129056134206,352.15154999014214 L84.34113093412691,342.94585610068503 M84.34113093412691,342.94585610068503 L106.67083497493803,334.839106566266 M106.67083497493803,334.839106566266 L130.1234801468288,327.89158514019954 M130.1234801468288,327.89158514019954 L154.52032550635954,322.15481626757077 M154.52032550635954,322.15481626757077 L179.67593847663215,317.67127687746193 M179.67593847663215,317.67127687746193 L205.399556299567,314.47413274026735 M205.399556299567,314.47413274026735 L231.49640364448356,312.5869926592353 M231.49640364448356,312.5869926592353 L257.7690810353044,312.02378169541413 M257.7690810353044,312.02378169541413 L284.0189877325474,312.78866378054647 M284.0189877325474,312.78866378054647 L310.04765159649935,314.8759875104454 M310.04765159649935,314.8759875104454 L335.65818260840143,318.27035554083017 M335.65818260840143,318.27035554083017 L360.6566125308453,322.9466802026748 M360.6566125308453,322.9466802026748 L384.8532968614481,328.87038707495867 M384.8532968614481,328.87038707495867 L408.06424260989655,335.99758558292325 M33.23342394326198,356.2954159227241 L43.72436063995059,362.38760737208065 M127.94666632502674,425.95216277421565 L127.91837258752003,421.0515436844388 M33.34957989043295,370.9821400761341 L127.94666632502674,425.95216277421565 M43.799501326526524,372.1812057586882 L43.72436063995059,362.38760737208065 M43.799501326526524,372.1812057586882 L127.91837258752003,421.0515436844388 M418.63597599322804,344.30497784700435 L409.533851670008,349.6162619394833 M409.533851670008,349.6162619394833 L402.16257701068776,355.7566842778242 M402.16257701068776,355.7566842778242 L396.7450018015223,362.54250004041387 M396.7450018015223,362.54250004041387 L393.44578518680873,369.7702956121546 M393.44578518680873,369.7702956121546 L392.36628359666,377.2229965886334 M392.36628359666,377.2229965886334 L393.54124766240864,384.6763343677474 M393.54124766240864,384.6763343677474 L396.937520070686,391.9055618243201 M396.937520070686,391.9055618243201 L402.4547580481277,398.6922633185726 M402.4547580481277,398.6922633185726 L409.92822553344325,404.83100553632704 M409.92822553344325,404.83100553632704 L419.13358115730205,410.13564126951064 M419.13358115730205,410.13564126951064 L429.7935382923486,414.4450715349665 M429.7935382923486,414.4450715349665 L441.58621200602914,417.6282528718751 M441.58621200602914,417.6282528718751 L454.1549206393333,419.58829085541475 M454.1549206393333,419.58829085541475 L467.11909775923255,420.26548085822463 M467.11909775923255,420.26548085822463 L480.0859813120911,419.6391892841694 M480.0859813120911,419.6391892841694 L492.6627369693189,417.7284984060198 M492.6627369693189,417.7284984060198 L504.4685391263836,414.591612034399 M504.4685391263836,414.591612034399 L515.1462896452407,410.3240157014717 M515.1462896452407,410.3240157014717 L524.3735508463799,405.0554935966354 M478.88719859540805,629.8824290400585 L496.7348603236394,618.5508265281023 M496.7348603236394,618.5508265281023 L512.8819973448209,606.4048324488111 M512.8819973448209,606.4048324488111 L527.2180651304635,593.5310060491539 M527.2180651304635,593.5310060491539 L539.6457792574055,580.0208066352855 M539.6457792574055,580.0208066352855 L550.0817047571702,565.9698795214317 M550.0817047571702,565.9698795214317 L558.4567380750144,551.4773045625278 M558.4567380750144,551.4773045625278 L564.7166043361534,536.644929339957 M564.7166043361534,536.644929339957 L568.8219846700355,521.5765405398822 M568.8219846700355,521.5765405398822 L570.7487763830652,506.3771729225272 M570.7487763830652,506.3771729225272 L570.488134272371,491.1523465444416 M570.488134272371,491.1523465444416 L568.0463452942745,476.00731926975755 M568.0463452942745,476.00731926975755 L563.4447360269814,461.0463641299819 M563.4447360269814,461.0463641299819 L556.7193332108358,446.37206655849235 M556.7193332108358,446.37206655849235 L547.9205474964925,432.08463737019923 M547.9205474964925,432.08463737019923 L537.1127233705639,418.28126796420264 M537.1127233705639,418.28126796420264 L524.3735508463799,405.0554935966354 M382.533716411073,573.8917711631457 L478.88719859540805,629.8824290400585 M382.533716411073,573.8917711631457 L396.0705973446525,565.0894571273584 M396.0705973446525,565.0894571273584 L407.81537309386533,555.469739889481 M407.81537309386533,555.469739889481 L417.6215564171632,545.1555762472271 M417.6215564171632,545.1555762472271 L425.36777824295166,534.2784211890539 M425.36777824295166,534.2784211890539 L430.95917581557325,522.9765301403655 M430.95917581557325,522.9765301403655 L434.32850001894536,511.39312829867094 M434.32850001894536,511.39312829867094 L435.4367839946896,499.6745487363433 M435.4367839946896,499.6745487363433 L434.2736689897533,487.96837797298923 M434.2736689897533,487.96837797298923 L430.8573377970625,476.42157105149573 M430.8573377970625,476.42157105149573 L425.234144986165,465.1786330819265 M425.234144986165,465.1786330819265 L417.4778267244846,454.3798326714424 M417.4778267244846,454.3798326714424 L407.6884395089763,444.1594892681359 M407.6884395089763,444.1594892681359 L395.99097884704685,434.64436563976665 M395.99097884704685,434.64436563976665 L382.5337164110719,425.952162774215 M382.5337164110719,425.952162774215 L367.4862702128528,418.1901321837477 M367.4862702128528,418.1901321837477 L351.0374591528429,411.4538323733574 M351.0374591528429,411.4538323733574 L333.3929550383248,405.8260321262103 M333.3929550383248,405.8260321262103 L314.7727467286178,401.3757610238868 M314.7727467286178,401.3757610238868 L295.4084697571748,398.1575285404569 M295.4084697571748,398.1575285404569 L275.5406310191497,396.2107111042207 M275.5406310191497,396.2107111042207 L255.41572419287206,395.5591200677799 M255.41572419287206,395.5591200677799 L235.28328687590155,396.21071343368 M235.28328687590155,396.21071343368 L215.3929647873322,398.1575285404569 M215.3929647873322,398.1575285404569 L195.9915144769638,401.3757610238868 M195.9915144769638,401.3757610238868 L177.31989866876322,405.82603504057903 M177.31989866876322,405.82603504057903 L159.61039499524642,411.45383193597854 M159.61039499524642,411.45383193597854 L143.08376849548188,418.19012977669286 M143.08376849548188,418.19012977669286 L127.94666632502674,425.95216277421565 M486.1170706173636,573.2712360064436 L483.5324365456102,572.097080687477 M483.5324365456102,572.097080687477 L480.5411906701413,571.3157774244019 M480.5411906701413,571.3157774244019 L477.31706652931956,570.9726391974774 M477.31706652931956,570.9726391974774 L474.0472435625888,571.0875759497787 M474.0472435625888,571.0875759497787 L470.9215685301983,571.6539182377035 M470.9215685301983,571.6539182377035 L468.12150190567024,572.6388108434838 M468.12150190567024,572.6388108434838 L465.80970415261993,573.9851299770713 M465.80970415261993,573.9851299770713 L464.1205350565744,575.6147439653781 M464.1205350565744,575.6147439653781 L463.15223334988605,577.4330345070656 M463.15223334988605,577.4330345070656 L462.9612481296417,579.3344118912058 M462.9612481296417,579.3344118912058 L463.5588815773565,581.208381390087 M463.5588815773565,581.208381390087 L464.91057140207073,582.9459996164065 M464.91057140207073,582.9459996164065 L466.93790615440753,584.4461818956618 M466.93790615440753,584.4461818956618 L469.5231002105984,585.6216446821413 M469.5231002105984,585.6216446821413 L472.51588669762134,586.4039558846437 M472.51588669762134,586.4039558846437 L475.7421791246662,586.7475716255916 M475.7421791246662,586.7475716255916 L479.014301332165,586.6324725577501 M479.014301332165,586.6324725577501 L482.1418798214105,586.0653653141844 M482.1418798214105,586.0653653141844 L484.94301808321296,585.0792803625452 M484.94301808321296,585.0792803625452 L487.2548101328533,583.7316146304101 M487.2548101328533,583.7316146304101 L488.94289749150545,582.1008082869223 M488.94289749150545,582.1008082869223 L489.90928926180123,580.281752793251 M489.90928926180123,580.281752793251 L490.0979738666379,578.3802130931261 M490.0979738666379,578.3802130931261 L489.49817617773346,576.5067211027517 M489.49817617773346,576.5067211027517 L488.1449542793348,574.7701108216589 M488.1449542793348,574.7701108216589 L486.1170706173636,573.2712360064436 M129.68879799193599,366.71818413537585 L127.1469099389019,365.5657875846063 M127.1469099389019,365.5657875846063 L124.19594127323415,364.79896235319546 M124.19594127323415,364.79896235319546 L121.00728845228338,364.4621825305063 M121.00728845228338,364.4621825305063 L117.76607347737092,364.57498949787225 M117.76607347737092,364.57498949787225 L114.660483874141,365.13083727024264 M114.660483874141,365.13083727024264 L111.87081519324533,366.0974788513384 M111.87081519324533,366.0974788513384 L109.55912328952701,367.4188480802344 M109.55912328952701,367.4188480802344 L107.85975997664605,369.0182601637193 M107.85975997664605,369.0182601637193 L106.87155353192725,370.80284944527006 M106.87155353192725,370.80284944527006 L106.6521054040648,372.6689826767755 M106.6521054040648,372.6689826767755 L107.21436813293246,374.5082131454212 M107.21436813293246,374.5082131454212 L108.52583230660196,376.21361739235556 M108.52583230660196,376.21361739235556 L110.51042328233535,377.6859855546716 M110.51042328233535,377.6859855546716 L113.0528403308819,378.83965338812277 M113.0528403308819,378.83965338812277 L116.00530516304372,379.60745866372116 M116.00530516304372,379.60745866372116 L119.19607855101447,379.9447027849886 M119.19607855101447,379.9447027849886 L122.43955270527402,379.8317379942483 M122.43955270527402,379.8317379942483 L125.54702253942031,379.275146436776 M125.54702253942031,379.275146436776 L128.33776178736207,378.3073455086029 M128.33776178736207,378.3073455086029 L130.64946931896327,376.9846669489615 M130.64946931896327,376.9846669489615 L132.34778974041524,375.3840955093325 M132.34778974041524,375.3840955093325 L133.33413370973835,373.59876244623297 M133.33413370973835,373.59876244623297 L133.5513264260485,371.73247139092024 M133.5513264260485,371.73247139092024 L132.98693204680234,369.8937052154906 M132.98693204680234,369.8937052154906 L131.67394831115053,368.189281018386 M131.67394831115053,368.189281018386 L129.68879799193599,366.71818413537585 M408.05858728147615,345.78527210578113 L408.06424260989655,335.99758558292325 M408.05858728147615,345.78527210578113 L401.15765977839914,351.9154024473357 M401.15765977839914,351.9154024473357 L396.15728633518376,358.63340904168507 M396.15728633518376,358.63340904168507 L393.2031777159056,365.74637364085254 M393.2031777159056,365.74637364085254 L392.3824603817848,373.0496491385048 M392.3824603817848,373.0496491385048 L393.7209144385361,380.33271202341626 M393.7209144385361,380.33271202341626 L397.18201400929377,387.38519263968396 M397.18201400929377,387.38519263968396 L402.66772558896565,394.00300268482107 M402.66772558896565,394.00300268482107 L410.02113312882005,399.9942677015031 M410.02113312882005,399.9942677015031 L419.0308124604518,405.18499086058233 M419.0308124604518,405.18499086058233 L429.4368410876933,409.4241941430816 M429.4368410876933,409.4241941430816 L440.93830642194956,412.58842130928895 M440.93830642194956,412.58842130928895 L453.20204873921415,414.58542913331604 M453.20204873921415,414.58542913331604 L465.8724607071325,415.3569603126412 M465.8724607071325,415.3569603126412 L478.5819073784662,414.8805019390085 M478.5819073784662,414.8805019390085 L490.96162544855287,413.1699551878348 M490.96162544855287,413.1699551878348 L502.6525641641896,410.27523066605517 M502.6525641641896,410.27523066605517 L513.3159850074215,406.28072554370914 M513.3159850074215,406.28072554370914 L513.3450411621117,396.4795107388638 M513.3450411621117,396.4795107388638 L517.2782894552424,394.58633594667185 M517.2782894552424,394.58633594667185 L520.9759894534491,392.54239637507044 M520.9759894534491,392.54239637507044 L524.4208069527762,390.35735235028943 M524.3735508463799,405.0554935966354 L524.4208069527762,390.35735235028943 M43.799501326526524,372.1812057586882 L63.375894178221245,361.94285697541505 M63.375894178221245,361.94285697541505 L84.40720519676904,352.7351005310065 M84.40720519676904,352.7351005310065 L106.73193880268275,344.6265332457915 M106.73193880268275,344.6265332457915 L130.1793715040634,337.67745294328313 M130.1793715040634,337.67745294328313 L154.5708014575392,331.9393961269186 M154.5708014575392,331.9393961269186 L179.7208364842915,327.45484968911535 M179.7208364842915,327.45484968911535 L205.438755249105,324.2569871935758 M205.438755249105,324.2569871935758 L231.52982460976824,322.36942299889756 M231.52982460976824,322.36942299889756 L257.796687772955,321.80608544577564 M257.796687772955,321.80608544577564 L284.0407868995344,322.57113944697073 M284.0407868995344,322.57113944697073 L310.06369271274946,324.65893226683846 M310.06369271274946,324.65893226683846 L335.668557737085,328.0540629350194 M335.668557737085,328.0540629350194 L360.6614557002558,332.73143788040016 M360.6614557002558,332.73143788040016 L384.85278321238474,338.656474559404 M384.85278321238474,338.656474559404 L408.05858728147615,345.78527210578113 M382.533716411073,568.9748064102455 L396.0721112750803,560.1734587563517 M396.0721112750803,560.1734587563517 L407.81819930377634,550.5547985343002 M407.81819930377634,550.5547985343002 L417.6254770249978,540.2417692503344 M417.6254770249978,540.2417692503344 L425.3725620403482,529.365811630742 M425.3725620403482,529.365811630742 L430.96458131194004,518.0651660425483 M430.96458131194004,518.0651660425483 L434.33427859089835,506.48304202016516 M434.33427859089835,506.48304202016516 L435.44268308786354,494.76575656597646 M435.44268308786354,494.76575656597646 L434.27943533241717,483.06087992295863 M434.27943533241717,483.06087992295863 L430.86272058071535,471.5153508577918 M430.86272058071535,471.5153508577918 L425.23889897958435,460.2736584079536 M425.23889897958435,460.2736584079536 L417.4817152759298,449.4760555146388 M417.4817152759298,449.4760555146388 L407.6912374091001,439.2568465644476 M407.6912374091001,439.2568465644476 L395.99247502066476,429.74278005691576 M395.99247502066476,429.74278005691576 L382.5337164110719,421.0515436844382 M382.5337164110719,421.0515436844382 L367.48459849176584,413.29037680436363 M367.48459849176584,413.29037680436363 L351.03396109364917,406.55482705984224 M351.03396109364917,406.55482705984224 L333.3874987275984,400.9276538014327 M333.3874987275984,400.9276538014327 L314.7652244565449,396.47787872638816 M314.7652244565449,396.47787872638816 L295.3987992344453,393.2600050716215 M295.3987992344453,393.2600050716215 L275.52875630330954,391.3134047536505 M275.52875630330954,391.3134047536505 L255.40161631534454,390.66188639425235 M255.40161631534454,390.66188639425235 L235.26694416551186,391.31340708285 M235.26694416551186,391.31340708285 L215.3744128922192,393.2600050716215 M215.3744128922192,393.2600050716215 L195.97080607797548,396.47787872638816 M195.97080607797548,396.47787872638816 L177.29711289329248,400.92765671547664 M177.29711289329248,400.92765671547664 L159.5856365305322,406.55482662251217 M159.5856365305322,406.55482662251217 L143.05716640487628,413.2903743975766 M143.05716640487628,413.2903743975766 L127.91837258752003,421.0515436844388 M382.533716411073,573.8917711631457 L382.533716411073,568.9748064102455 M513.3159850074215,406.28072554370914 L525.8367640800228,419.70828394791073 M525.8367640800228,419.70828394791073 L536.2809577900887,433.7319730583288 M536.2809577900887,433.7319730583288 L544.564406458158,448.24527006990945 M544.564406458158,448.24527006990945 L550.6191554157404,463.13750814293434 M550.6191554157404,463.13750814293434 L554.3940127987653,478.29466714651414 M554.3940127987653,478.29466714651414 L555.8551565398767,493.60023391080904 M555.8551565398767,493.60023391080904 L554.9864655675846,508.9360510537108 M554.9864655675846,508.9360510537108 L551.7898521756027,524.1832553486283 M551.7898521756027,524.1832553486283 L546.2853470451671,539.2231640386947 M546.2853470451671,539.2231640386947 L538.5111083941682,553.9382325074666 M538.5111083941682,553.9382325074666 L528.5233041236726,568.2130051344892 M528.5233041236726,568.2130051344892 L516.3957408814318,581.93503310149 M516.3957408814318,581.93503310149 L502.2194162659712,594.9958223224454 M502.2194162659712,594.9958223224454 L486.10198114568686,607.2917382551288 M486.10198114568686,607.2917382551288 L468.16685028729074,618.7248818384733 M382.533716411073,568.9748064102455 L468.16685028729074,618.7248818384733 M486.1286593908043,568.354339354797 L483.5437355554614,567.180312905309 M483.5437355554614,567.180312905309 L480.55215465478085,566.3990954019174 M480.55215465478085,566.3990954019174 L477.3276696708453,566.0559948414754 M477.3276696708453,566.0559948414754 L474.0574809714402,566.1709189769705 M474.0574809714402,566.1709189769705 L470.9314565293736,566.737199098467 M470.9314565293736,566.737199098467 L468.1310770848938,567.7219836019669 M468.1310770848938,567.7219836019669 L465.8190212636255,569.0681549787504 M465.8190212636255,569.0681549787504 L464.12966384989613,570.6975901434556 M464.12966384989613,570.6975901434556 L463.1612545386341,572.5156811889703 M463.1612545386341,572.5156811889703 L462.9702487183755,574.416849996612 M462.9702487183755,574.416849996612 L463.56794981253887,576.2906139612434 M463.56794981253887,576.2906139612434 L464.9197916385274,578.0280416397626 M464.9197916385274,578.0280416397626 L466.94735394394087,579.5280594330129 M466.94735394394087,579.5280594330129 L469.5328378896802,580.7033933528927 M469.5328378896802,580.7033933528927 L472.5259597472221,581.4856187979308 M472.5259597472221,581.4856187979308 L475.75261350292675,581.8291968734478 M475.75261350292675,581.8291968734478 L479.02510195765365,581.7141104220552 M479.02510195765365,581.7141104220552 L482.1530302822563,581.1470653432333 M482.1530302822563,581.1470653432333 L484.9544816033059,580.1610884912493 M484.9544816033059,580.1610884912493 L487.26653171924926,578.8135705129532 M487.26653171924926,578.8135705129532 L488.95480715289864,577.1829429904417 M488.95480715289864,577.1829429904417 L489.92130609991125,575.3640869912587 M489.92130609991125,575.3640869912587 L490.1100107897471,573.4627558672751 M490.1100107897471,573.4627558672751 L489.5101449702063,571.5894694122018 M489.5101449702063,571.5894694122018 L488.15677072809285,569.8530496811287 M488.15677072809285,569.8530496811287 L486.1286593908043,568.354339354797 M129.6607733951426,361.8241716054138 L127.11860509077383,360.6719039360613 M127.11860509077383,360.6719039360613 L124.16731036445162,359.90516447206574 M124.16731036445162,359.90516447206574 L120.9783045975015,359.568422319201 M120.9783045975015,359.568422319201 L117.73673026198514,359.68121666864494 M117.73673026198514,359.68121666864494 L114.63079572691305,360.23700226903566 M114.63079572691305,360.23700226903566 L111.84081655017678,361.203535737984 M111.84081655017678,361.203535737984 L109.52886661350112,362.52475719615154 M109.52886661350112,362.52475719615154 L107.82931272669055,364.123990438506 M107.82931272669055,364.123990438506 L106.8409942597554,365.90838020345336 M106.8409942597554,365.90838020345336 L106.62151920813653,367.7743048361118 M106.62151920813653,367.7743048361118 L107.18384171984655,369.61332974749695 M107.18384171984655,369.61332974749695 L108.49544894740256,371.3185434244208 M108.49544894740256,371.3185434244208 L110.48025796469744,372.79074708088035 M110.48025796469744,372.79074708088035 L113.02295538019655,373.9442860317393 M113.02295538019655,373.9442860317393 L115.97574660347829,374.7120055390168 M115.97574660347829,374.7120055390168 L119.16687340705221,375.0492119900306 M119.16687340705221,375.0492119900306 L122.41070742307909,374.93625981735823 M122.41070742307909,374.93625981735823 L125.51852260697774,374.37973043255306 M125.51852260697774,374.37973043255306 L128.30957258968397,373.4120376175989 M128.30957258968397,373.4120376175989 L130.62153815944077,372.0895068298961 M130.62153815944077,372.0895068298961 L132.3200489251043,370.48911423246903 M132.3200489251043,370.48911423246903 L133.30650450463952,368.70398068666043 M133.30650450463952,368.70398068666043 L133.52372364479606,366.83789823034056 M133.52372364479606,366.83789823034056 L132.95926900941708,364.99933761174236 M132.95926900941708,364.99933761174236 L131.64614188163114,363.2951039837424 M131.64614188163114,363.2951039837424 L129.6607733951426,361.8241716054138 M478.88719859540805,629.8824290400585 L478.9196281064366,615.1098345585825 M524.4208069527762,390.35735235028943 L537.164254670031,403.57870456738095 M537.164254670031,403.57870456738095 L547.9757163036412,417.37746434222737 M547.9757163036412,417.37746434222737 L556.7774747343398,431.6601283182267 M556.7774747343398,431.6601283182267 L563.5051626074721,446.329538075375 M563.5051626074721,446.329538075375 L568.1083508783563,461.2855166251167 M568.1083508783563,461.2855166251167 L570.5509990821131,476.42551297677903 M570.5509990821131,476.42551297677903 L570.8117717406216,491.6452889175272 M570.8117717406216,491.6452889175272 L568.8843779881961,506.83962153722683 M568.8843779881961,506.83962153722683 L564.777664193863,521.9030256266467 M564.777664193863,521.9030256266467 L558.5157393889983,536.7305009213305 M558.5157393889983,536.7305009213305 L550.1379339925319,551.2182946347806 M550.1379339925319,551.2182946347806 L539.6985396006917,565.2645922734627 M539.6985396006917,565.2645922734627 L527.2666816658049,578.7703460022356 M527.2666816658049,578.7703460022356 L512.9258221029382,591.639941260147 M512.9258221029382,591.639941260147 L496.7732772021561,603.7819480052372 M496.7732772021561,603.7819480052372 L478.9196281064366,615.1098345585825 M468.16685028729074,618.7248818384733 L468.1860591553653,608.8767441420293 M468.1860591553653,608.8767441420293 L478.9196281064366,615.1098345585825 M486.1286593908043,568.354339354797 L486.1170706173636,573.2712360064436 M129.6607733951426,361.8241716054138 L129.68879799193599,366.71818413537585 M513.3450411621117,396.4795107388638 L525.8686214188813,409.9040764206934 M525.8686214188813,409.9040764206934 L536.3151587094019,423.9246438267893 M536.3151587094019,423.9246438267893 L544.6004737532477,438.4347143238974 M544.6004737532477,438.4347143238974 L550.6565957309225,453.3236460556128 M550.6565957309225,453.3236460556128 L554.432320234601,468.47744449495804 M554.432320234601,468.47744449495804 L555.8938164330797,483.779622493867 M555.8938164330797,483.779622493867 L555.0249583853428,499.11204891368374 M555.0249583853428,499.11204891368374 L551.8276575267248,514.3558867812621 M551.8276575267248,514.3558867812621 L546.3219477535033,529.3924794075049 M546.3219477535033,529.3924794075049 L538.5459946168489,544.104307851159 M538.5459946168489,544.104307851159 L528.5559774838316,558.3759415734545 M528.5559774838316,558.3759415734545 L516.425718555503,572.094956054854 M516.425718555503,572.094956054854 L502.2462350038917,585.152880532884 M502.2462350038917,585.152880532884 L486.1252011982612,597.4461026342827 M486.1252011982612,597.4461026342827 L468.1860591553653,608.8767441420293" stroke="black"  stroke-width="4"  fill="red"/>
<path d="M408.07556078808807,316.40919532252656 L384.85432484248463,309.28520124582144 M384.85432484248463,309.28520124582144 L360.6469197546424,303.364159268393 M360.6469197546424,303.364159268393 L335.6374185636945,298.6899393428942 M335.6374185636945,298.6899393428942 L310.0155480505212,295.29709961441444 M310.0155480505212,295.29709961441444 L283.9753604372585,293.2107159254435 M283.9753604372585,293.2107159254435 L257.7138308843118,292.44617835438004 M257.7138308843118,292.44617835438004 L231.42951731285083,293.00913563745956 M231.42951731285083,293.00913563745956 L205.32110631866482,294.89542580868664 M205.32110631866482,294.89542580868664 L179.5860827987121,298.0911303787178 M179.5860827987121,298.0911303787178 L154.4193065154449,302.5726516760474 M154.4193065154449,302.5726516760474 L130.01162312664883,308.3068395464598 M130.01162312664883,308.3068395464598 L106.5485460581981,315.2512370254068 M106.5485460581981,315.2512370254068 L84.2088945050017,323.3543438304369 M84.2088945050017,323.3543438304369 L63.163504628008525,332.5559044023728 M63.163504628008525,332.5559044023728 L43.57397921262208,342.78736985534135 M43.799501326526524,372.1812057586882 L43.57397921262208,342.78736985534135 M408.05858728147615,345.78527210578113 L384.85278321238474,338.656474559404 M384.85278321238474,338.656474559404 L360.6614557002558,332.73143788040016 M360.6614557002558,332.73143788040016 L335.668557737085,328.0540629350194 M335.668557737085,328.0540629350194 L310.06369271274946,324.65893226683846 M310.06369271274946,324.65893226683846 L284.0407868995344,322.57113944697073 M284.0407868995344,322.57113944697073 L257.796687772955,321.80608544577564 M257.796687772955,321.80608544577564 L231.52982460976824,322.36942299889756 M231.52982460976824,322.36942299889756 L205.438755249105,324.2569871935758 M205.438755249105,324.2569871935758 L179.7208364842915,327.45484968911535 M179.7208364842915,327.45484968911535 L154.5708014575392,331.9393961269186 M154.5708014575392,331.9393961269186 L130.1793715040634,337.67745294328313 M130.1793715040634,337.67745294328313 L106.73193880268275,344.6265332457915 M106.73193880268275,344.6265332457915 L84.40720519676904,352.7351005310065 M84.40720519676904,352.7351005310065 L63.375894178221245,361.94285697541505 M63.375894178221245,361.94285697541505 L43.799501326526524,372.1812057586882 M408.05858728147615,345.78527210578113 L408.07556078808807,316.40919532252656 M513.4031922214895,376.8640099896863 L502.73267541794087,380.8558395357868 M502.73267541794087,380.8558395357868 L491.03394913711145,383.7486257334526 M491.03394913711145,383.7486257334526 L478.64597851384923,385.4580273311072 M478.64597851384923,385.4580273311072 L465.92805491955835,385.9341667634155 M465.92805491955835,385.9341667634155 L453.249189029462,385.163152054095 M453.249189029462,385.163152054095 L440.9772624788052,383.1674812126148 M440.9772624788052,383.1674812126148 L429.4681211316521,380.00537296820596 M429.4681211316521,380.00537296820596 L419.0551479580951,375.769009413988 M419.0551479580951,375.769009413988 L410.03945683803073,370.5817648619697 M410.03945683803073,370.5817648619697 L402.6811437017738,364.5945169695385 M402.6811437017738,364.5945169695385 L397.19177328608276,357.9811466701929 M397.19177328608276,357.9811466701929 L393.72836540284993,350.9334003282196 M393.72836540284993,350.9334003282196 L392.38901772748386,343.6552296650556 M392.38901772748386,343.6552296650556 L393.21027913841687,336.35686319008295 M393.21027913841687,336.35686319008295 L396.16635102877393,329.24868279582154 M396.16635102877393,329.24868279582154 L401.1700477715752,322.5351975679431 M401.1700477715752,322.5351975679431 L408.07556078808807,316.40919532252656 M468.22450275623794,589.1672082405735 L486.171672553101,577.7415810749364 M486.171672553101,577.7415810749364 L502.2999085525727,565.4537575961352 M502.2999085525727,565.4537575961352 L516.4857142017188,552.4015742458458 M516.4857142017188,552.4015742458458 L528.6213680987811,538.6885989670302 M528.6213680987811,538.6885989670302 L538.6158138995056,524.423255778355 M538.6158138995056,524.423255778355 L546.3951982766533,509.7179205016521 M546.3951982766533,509.7179205016521 L551.903318917235,494.68797340940114 M551.903318917235,494.68797340940114 L555.1019955952916,479.4508819876877 M555.1019955952916,479.4508819876877 L555.9711879818431,464.12525068426623 M555.9711879818431,464.12525068426623 L554.5089863611864,448.82986385942684 M554.5089863611864,448.82986385942684 L550.7315264216119,433.682800059582 M550.7315264216119,433.682800059582 L544.6726565353775,418.8004942853782 M544.6726565353775,418.8004942853782 L536.3836062161065,404.2968897543187 M536.3836062161065,404.2968897543187 L525.932378608247,390.282578257524 M525.932378608247,390.282578257524 L513.4031922214895,376.8640099896863 M382.533716411073,539.4498973689274 L468.22450275623794,589.1672082405735 M382.533716411073,539.4498973689274 L396.08120197361575,530.6543617279551 M396.08120197361575,530.6543617279551 L407.8351698415885,521.0420585967005 M407.8351698415885,521.0420585967005 L417.6490190835705,510.73585154092234 M417.6490190835705,510.73585154092234 L425.4012872788816,499.86709550897297 M425.4012872788816,499.86709550897297 L430.9970396494642,488.5739403020865 M430.9970396494642,488.5739403020865 L434.36897711798883,476.999501252815 M434.36897711798883,476.999501252815 L435.47810529273534,465.2899987154835 M435.47810529273534,465.2899987154835 L434.31406039778386,453.5929050432052 M434.31406039778386,453.5929050432052 L430.8950424822541,442.05506111632155 M430.8950424822541,442.05506111632155 L425.26744518469104,430.8208593115122 M425.26744518469104,430.8208593115122 L417.5050647707634,420.0304583554999 M417.5050647707634,420.0304583554999 L407.7080378891312,409.8180720565308 M407.7080378891312,409.8180720565308 L396.0014590534854,400.31036310718224 M396.0014590534854,400.31036310718224 L382.5337164110717,391.6249392434453 M382.5337164110717,391.6249392434453 L367.47456035969054,383.8689667259648 M367.47456035969054,383.8689667259648 L351.01295641044334,377.1379278778734 M351.01295641044334,377.1379278778734 L333.35473540109285,371.51452532505624 M333.35473540109285,371.51452532505624 L314.7200557281482,367.06773335119783 M314.7200557281482,367.06773335119783 L295.34073098581706,363.8520176852997 M295.34073098581706,363.8520176852997 L275.4574526185281,361.90672311180265 M275.4574526185281,361.90672311180265 L255.3169032457821,361.25564183042195 M255.3169032457821,361.25564183042195 L235.1688116724245,361.9067254394396 M235.1688116724245,361.9067254394396 L215.26301497836607,363.8520176852997 M215.26301497836607,363.8520176852997 L195.84645906681016,367.06773335119783 M195.84645906681016,367.06773335119783 L177.16029190950596,371.5145282371469 M177.16029190950596,371.5145282371469 L159.43697017608073,377.1379274408362 M159.43697017608073,377.1379274408362 L142.89742965149787,383.8689643207892 M142.89742965149787,383.8689643207892 L127.74847800756652,391.6249392434461 M43.57397921262208,342.78736985534135 L127.74847800756652,391.6249392434461 M486.1982465225883,538.829839888326 L488.2277249860807,540.3275609448267 M488.2277249860807,540.3275609448267 L489.58201401126973,542.0628346686603 M489.58201401126973,542.0628346686603 L490.1822889398126,543.9348849914301 M490.1822889398126,543.9348849914301 L489.99346365036564,545.8349616943507 M489.99346365036564,545.8349616943507 L489.0263211435353,547.65261789097 M489.0263211435353,547.65261789097 L487.3369163792639,549.2821699454463 M487.3369163792639,549.2821699454463 L485.0233166547625,550.628799299904 M485.0233166547625,550.628799299904 L482.219985507754,551.6141260168033 M482.219985507754,551.6141260168033 L479.0899565264101,552.1807972231308 M479.0899565264101,552.1807972231308 L475.8152688654144,552.2958077964084 M475.8152688654144,552.2958077964084 L472.58644543699415,551.9524562491209 M472.58644543699415,551.9524562491209 L469.59130977685595,551.1707465683693 M469.59130977685595,551.1707465683693 L467.0040851276318,549.9961876804531 M467.0040851276318,549.9961876804531 L464.97515643031653,548.497159141787 M464.97515643031653,548.497159141787 L463.62240187830923,546.7608774587533 M463.62240187830923,546.7608774587533 L463.02429458368533,544.8883496208574 M463.02429458368533,544.8883496208574 L463.2154240972812,542.9884352361713 M463.2154240972812,542.9884352361713 L464.1844795385225,541.1715440021405 M464.1844795385225,541.1715440021405 L465.87496774070996,539.5431843193751 M465.87496774070996,539.5431843193751 L468.1885731820443,538.197901582133 M468.1885731820443,538.197901582133 L470.9908310150262,537.2137672276224 M470.9908310150262,537.2137672276224 L474.118953556746,536.6478609875408 M474.118953556746,536.6478609875408 L477.3913383714674,536.5330127320533 M477.3913383714674,536.5330127320533 L480.6179901114149,536.8758867586974 M480.6179901114149,536.8758867586974 L483.6115827404084,537.6565884860486 M483.6115827404084,537.6565884860486 L486.1982465225883,538.829839888326 M129.49249526863815,332.4372988627679 L131.47917376637452,333.90724191974186 M131.47917376637452,333.90724191974186 L132.79316190496718,335.6103294761165 M132.79316190496718,335.6103294761165 L133.35797834710786,337.44765388730366 M133.35797834710786,337.44765388730366 L133.14060052981995,339.3124818403349 M133.14060052981995,339.3124818403349 L132.15347475843612,341.09641549926897 M132.15347475843612,341.09641549926897 L130.45382103100098,342.6957325483754 M130.45382103100098,342.6957325483754 L128.1403060218331,344.0173746425409 M128.1403060218331,344.0173746425409 L125.34739017644466,344.9844172694888 M125.34739017644466,344.9844172694888 L122.2375012809789,345.5405727506279 M122.2375012809789,345.5405727506279 L118.99150641631957,345.6534490387933 M118.99150641631957,345.6534490387933 L115.79825747394926,345.31646913502624 M115.79825747394926,345.31646913502624 L112.84350638750834,344.5492654345964 M112.84350638750834,344.5492654345964 L110.29912547093346,343.3965015777285 M110.29912547093346,343.3965015777285 L108.31300719755609,341.9252872516623 M108.31300719755609,341.9252872516623 L107.00054099105239,340.22121965333196 M107.00054099105239,340.22121965333196 L106.43785951563666,338.3834309526591 M106.43785951563666,338.3834309526591 L106.65749624734059,336.5187608221671 M106.65749624734059,336.5187608221671 L107.64648738102278,334.73557093880595 M107.64648738102278,334.73557093880595 L109.34718560950921,333.13741323652897 M109.34718560950921,333.13741323652897 L111.66068495435769,331.8170804625896 M111.66068495435769,331.8170804625896 L114.45252855855165,330.8511971734046 M114.45252855855165,330.8511971734046 L117.56053429480096,330.29578547139187 M117.56053429480096,330.29578547139187 L120.80426646846433,330.1830670053327 M120.80426646846433,330.1830670053327 L123.99539155330933,330.5195826142518 M123.99539155330933,330.5195826142518 L126.94864415769655,331.28580627836783 M126.94864415769655,331.28580627836783 L129.49249526863815,332.4372988627679 M127.91837258752003,421.0515436844388 L127.74847800756652,391.6249392434461 M43.799501326526524,372.1812057586882 L127.91837258752003,421.0515436844388 M408.05858728147615,345.78527210578113 L401.15765977839914,351.9154024473357 M401.15765977839914,351.9154024473357 L396.15728633518376,358.63340904168507 M396.15728633518376,358.63340904168507 L393.2031777159056,365.74637364085254 M393.2031777159056,365.74637364085254 L392.3824603817848,373.0496491385048 M392.3824603817848,373.0496491385048 L393.7209144385361,380.33271202341626 M393.7209144385361,380.33271202341626 L397.18201400929377,387.38519263968396 M397.18201400929377,387.38519263968396 L402.66772558896565,394.00300268482107 M402.66772558896565,394.00300268482107 L410.02113312882005,399.9942677015031 M410.02113312882005,399.9942677015031 L419.0308124604518,405.18499086058233 M419.0308124604518,405.18499086058233 L429.4368410876933,409.4241941430816 M429.4368410876933,409.4241941430816 L440.93830642194956,412.58842130928895 M440.93830642194956,412.58842130928895 L453.20204873921415,414.58542913331604 M453.20204873921415,414.58542913331604 L465.8724607071325,415.3569603126412 M465.8724607071325,415.3569603126412 L478.5819073784662,414.8805019390085 M478.5819073784662,414.8805019390085 L490.96162544855287,413.1699551878348 M490.96162544855287,413.1699551878348 L502.6525641641896,410.27523066605517 M502.6525641641896,410.27523066605517 L513.3159850074215,406.28072554370914 M468.16685028729074,618.7248818384733 L486.10198114568686,607.2917382551288 M486.10198114568686,607.2917382551288 L502.2194162659712,594.9958223224454 M502.2194162659712,594.9958223224454 L516.3957408814318,581.93503310149 M516.3957408814318,581.93503310149 L528.5233041236726,568.2130051344892 M528.5233041236726,568.2130051344892 L538.5111083941682,553.9382325074666 M538.5111083941682,553.9382325074666 L546.2853470451671,539.2231640386947 M546.2853470451671,539.2231640386947 L551.7898521756027,524.1832553486283 M551.7898521756027,524.1832553486283 L554.9864655675846,508.9360510537108 M554.9864655675846,508.9360510537108 L555.8551565398767,493.60023391080904 M555.8551565398767,493.60023391080904 L554.3940127987653,478.29466714651414 M554.3940127987653,478.29466714651414 L550.6191554157404,463.13750814293434 M550.6191554157404,463.13750814293434 L544.564406458158,448.24527006990945 M544.564406458158,448.24527006990945 L536.2809577900887,433.7319730583288 M536.2809577900887,433.7319730583288 L525.8367640800228,419.70828394791073 M525.8367640800228,419.70828394791073 L513.3159850074215,406.28072554370914 M382.533716411073,568.9748064102455 L468.16685028729074,618.7248818384733 M382.533716411073,568.9748064102455 L396.0721112750803,560.1734587563517 M396.0721112750803,560.1734587563517 L407.81819930377634,550.5547985343002 M407.81819930377634,550.5547985343002 L417.6254770249978,540.2417692503344 M417.6254770249978,540.2417692503344 L425.3725620403482,529.365811630742 M425.3725620403482,529.365811630742 L430.96458131194004,518.0651660425483 M430.96458131194004,518.0651660425483 L434.33427859089835,506.48304202016516 M434.33427859089835,506.48304202016516 L435.44268308786354,494.76575656597646 M435.44268308786354,494.76575656597646 L434.27943533241717,483.06087992295863 M434.27943533241717,483.06087992295863 L430.86272058071535,471.5153508577918 M430.86272058071535,471.5153508577918 L425.23889897958435,460.2736584079536 M425.23889897958435,460.2736584079536 L417.4817152759298,449.4760555146388 M417.4817152759298,449.4760555146388 L407.6912374091001,439.2568465644476 M407.6912374091001,439.2568465644476 L395.99247502066476,429.74278005691576 M395.99247502066476,429.74278005691576 L382.5337164110719,421.0515436844382 M382.5337164110719,421.0515436844382 L367.48459849176584,413.29037680436363 M367.48459849176584,413.29037680436363 L351.03396109364917,406.55482705984224 M351.03396109364917,406.55482705984224 L333.3874987275984,400.9276538014327 M333.3874987275984,400.9276538014327 L314.7652244565449,396.47787872638816 M314.7652244565449,396.47787872638816 L295.3987992344453,393.2600050716215 M295.3987992344453,393.2600050716215 L275.52875630330954,391.3134047536505 M275.52875630330954,391.3134047536505 L255.40161631534454,390.66188639425235 M255.40161631534454,390.66188639425235 L235.26694416551186,391.31340708285 M235.26694416551186,391.31340708285 L215.3744128922192,393.2600050716215 M215.3744128922192,393.2600050716215 L195.97080607797548,396.47787872638816 M195.97080607797548,396.47787872638816 L177.29711289329248,400.92765671547664 M177.29711289329248,400.92765671547664 L159.5856365305322,406.55482662251217 M159.5856365305322,406.55482662251217 L143.05716640487628,413.2903743975766 M143.05716640487628,413.2903743975766 L127.91837258752003,421.0515436844388 M486.1286593908043,568.354339354797 L483.5437355554614,567.180312905309 M483.5437355554614,567.180312905309 L480.55215465478085,566.3990954019174 M480.55215465478085,566.3990954019174 L477.3276696708453,566.0559948414754 M477.3276696708453,566.0559948414754 L474.0574809714402,566.1709189769705 M474.0574809714402,566.1709189769705 L470.9314565293736,566.737199098467 M470.9314565293736,566.737199098467 L468.1310770848938,567.7219836019669 M468.1310770848938,567.7219836019669 L465.8190212636255,569.0681549787504 M465.8190212636255,569.0681549787504 L464.12966384989613,570.6975901434556 M464.12966384989613,570.6975901434556 L463.1612545386341,572.5156811889703 M463.1612545386341,572.5156811889703 L462.9702487183755,574.416849996612 M462.9702487183755,574.416849996612 L463.56794981253887,576.2906139612434 M463.56794981253887,576.2906139612434 L464.9197916385274,578.0280416397626 M464.9197916385274,578.0280416397626 L466.94735394394087,579.5280594330129 M466.94735394394087,579.5280594330129 L469.5328378896802,580.7033933528927 M469.5328378896802,580.7033933528927 L472.5259597472221,581.4856187979308 M472.5259597472221,581.4856187979308 L475.75261350292675,581.8291968734478 M475.75261350292675,581.8291968734478 L479.02510195765365,581.7141104220552 M479.02510195765365,581.7141104220552 L482.1530302822563,581.1470653432333 M482.1530302822563,581.1470653432333 L484.9544816033059,580.1610884912493 M484.9544816033059,580.1610884912493 L487.26653171924926,578.8135705129532 M487.26653171924926,578.8135705129532 L488.95480715289864,577.1829429904417 M488.95480715289864,577.1829429904417 L489.92130609991125,575.3640869912587 M489.92130609991125,575.3640869912587 L490.1100107897471,573.4627558672751 M490.1100107897471,573.4627558672751 L489.5101449702063,571.5894694122018 M489.5101449702063,571.5894694122018 L488.15677072809285,569.8530496811287 M488.15677072809285,569.8530496811287 L486.1286593908043,568.354339354797 M129.6607733951426,361.8241716054138 L127.11860509077383,360.6719039360613 M127.11860509077383,360.6719039360613 L124.16731036445162,359.90516447206574 M124.16731036445162,359.90516447206574 L120.9783045975015,359.568422319201 M120.9783045975015,359.568422319201 L117.73673026198514,359.68121666864494 M117.73673026198514,359.68121666864494 L114.63079572691305,360.23700226903566 M114.63079572691305,360.23700226903566 L111.84081655017678,361.203535737984 M111.84081655017678,361.203535737984 L109.52886661350112,362.52475719615154 M109.52886661350112,362.52475719615154 L107.82931272669055,364.123990438506 M107.82931272669055,364.123990438506 L106.8409942597554,365.90838020345336 M106.8409942597554,365.90838020345336 L106.62151920813653,367.7743048361118 M106.62151920813653,367.7743048361118 L107.18384171984655,369.61332974749695 M107.18384171984655,369.61332974749695 L108.49544894740256,371.3185434244208 M108.49544894740256,371.3185434244208 L110.48025796469744,372.79074708088035 M110.48025796469744,372.79074708088035 L113.02295538019655,373.9442860317393 M113.02295538019655,373.9442860317393 L115.97574660347829,374.7120055390168 M115.97574660347829,374.7120055390168 L119.16687340705221,375.0492119900306 M119.16687340705221,375.0492119900306 L122.41070742307909,374.93625981735823 M122.41070742307909,374.93625981735823 L125.51852260697774,374.37973043255306 M125.51852260697774,374.37973043255306 L128.30957258968397,373.4120376175989 M128.30957258968397,373.4120376175989 L130.62153815944077,372.0895068298961 M130.62153815944077,372.0895068298961 L132.3200489251043,370.48911423246903 M132.3200489251043,370.48911423246903 L133.30650450463952,368.70398068666043 M133.30650450463952,368.70398068666043 L133.52372364479606,366.83789823034056 M133.52372364479606,366.83789823034056 L132.95926900941708,364.99933761174236 M132.95926900941708,364.99933761174236 L131.64614188163114,363.2951039837424 M131.64614188163114,363.2951039837424 L129.6607733951426,361.8241716054138 M513.3159850074215,406.28072554370914 L513.4031922214895,376.8640099896863 M468.16685028729074,618.7248818384733 L468.22450275623794,589.1672082405735 M382.533716411073,568.9748064102455 L382.533716411073,539.4498973689274 M486.1982465225883,538.829839888326 L486.1286593908043,568.354339354797 M129.49249526863815,332.4372988627679 L129.6607733951426,361.8241716054138" stroke="black"  stroke-width="4"  fill="red"/></svg>