<svg version="1.1" xmlns="http://www.w3.org/2000/svg" viewBox="-70.58906303091194 -36.39316386530545 188.19765285382886 88.16885826799493" fill="none" stroke="black" stroke-width="0.6%" vector-effect="non-scaling-stroke">
    <path d="M 60.61004 5.17198 L 54.12344 6.39792" />
    <path d="M -35.65615 23.36584 L -55.99839 27.21043 L 0.00016 41.01136 L 116.60859 18.97292 L 60.61004 5.17198" />
    <path d="M -55.99839 36.97476 L -55.99839 27.21043" />
    <path d="M -42.79369 24.7148 A 50.5 10.8989 360 0 1 -46.87656 20.42167" />
    <path d="M -53.35663 26.71115 A 64 13.81247 360 0 1 -60.37656 20.42167 A 64 13.81247 360 0 1 -46.87656 11.93649" />
    <path d="M -46.87656 1.16617 A 12 2.58984 360 0 1 -47.53653 0.98988 L -47.53653 12.12268" />
    <path d="M -60.37656 24.3274 A 64 13.81247 180 0 0 -55.99839 29.34834" />
    <path d="M -55.99839 36.97476 L 0.00016 50.77569 L 0.00016 41.01136" />
    <path d="M 0.00016 50.77569 L 116.60859 28.73725 L 116.60859 18.97292" />
    <path d="M -35.65615 23.36584 A 50.5 10.8989 180 0 0 54.12344 16.51593" />
    <path d="M -29.64629 -32.69364 A 50.5 10.8989 360 0 1 54.12344 -24.49426 L 54.12344 16.51593" />
    <path d="M 54.12344 -24.49426 A 50.5 10.8989 360 0 1 -46.87656 -24.49426 L -46.87656 20.42167" />
    <path d="M -46.87656 -24.49426 A 50.5 10.8989 360 0 1 -29.64629 -32.69364" />
    <path d="M -47.53653 0.98988 L -46.87656 0.86515" />
    <path d="M -49.82487 12.82408 L -49.82487 -12.2477 L -46.87656 -12.80492" />
    <path d="M -69.58906 12.17437 L -69.58906 -17.11862 L -49.82487 -12.2477" />
    <path d="M -69.58906 12.17437 L -56.1513 15.48613" />
    <path d="M -46.87656 -21.34885 L -47.01969 -21.38413 L -69.58906 -17.11862" />
    <path d="M -60.37656 20.42167 L -60.37656 24.3274" />
</svg>