<svg viewBox="0 0 800 800" xmlns="http://www.w3.org/2000/svg"><path d="M647.7167223586562,261.4155894231609 L641.2431633423394,265.15019480221997 M641.3573341145914,245.62837783979083 L641.2431633423394,265.15019480221997 M633.1955726699815,250.332719348286 L641.3573341145914,245.62837783979083 M633.5279393502191,191.65730822229563 L633.1955726699815,250.332719348286 M633.5279393502191,191.65730822229563 L631.4330939641086,192.86151978118593 M631.4330939641086,192.86151978118593 L631.4881140082394,183.06687381551055 M648.244074773682,173.43910786914958 L631.4881140082394,183.06687381551055 M647.7167223586562,261.4155894231609 L648.244074773682,173.43910786914958 M662.4417179078757,277.21498962558917 L668.9152255528873,273.47626158590805 M668.9152255528873,273.47626158590805 L647.7167223586562,261.4155894231609 M641.2431633423394,265.15019480221997 L619.2029236818603,254.39238364746166 M619.2029236818603,254.39238364746166 L595.8356717522622,244.62553456946836 M595.8356717522622,244.62553456946836 L571.2740736884615,235.90303758446265 M571.2740736884615,235.90303758446265 L545.6569620555445,228.27243532312943 M545.6569620555445,228.27243532312943 L519.1286378842718,221.77524319162524 M519.1286378842718,221.77524319162524 L491.8380301461056,216.44670833049892 M491.8380301461056,216.44670833049892 L463.937954851326,212.31573624282458 M463.937954851326,212.31573624282458 L435.5843591931268,209.404664209745 M435.5843591931268,209.404664209745 L406.9354421417941,207.7292216874738 M406.9354421417941,207.7292216874738 L378.15093556802697,207.29849352731526 M378.15093556802697,207.29849352731526 L349.39125499509066,208.11477570985943 M349.39125499509066,208.11477570985943 L320.81667725188396,210.17368926952832 M320.81667725188396,210.17368926952832 L292.58653370363334,213.46407185130556 M292.58653370363334,213.46407185130556 L264.85846352308505,217.96815043726394 M264.85846352308505,217.96815043726394 L237.78746839650086,223.66153806765558 M237.78746839650086,223.66153806765558 L211.52527765203965,230.51336642608118 M211.52527765203965,230.51336642608118 L186.21947280799233,238.486411046332 M186.21947280799233,238.486411046332 L162.0127369281809,247.53729280401413 M162.0127369281809,247.53729280401413 L139.04206359848786,257.6166125376237 M139.04206359848786,257.6166125376237 L117.43807808139559,268.66924287995266 M173.96459730234756,301.29034086838254 L117.43807808139559,268.66924287995266 M571.9989437914602,291.5874046492531 L551.373028605425,282.8437329655566 M551.373028605425,282.8437329655566 L529.5502606185273,275.1392383344345 M529.5502606185273,275.1392383344345 L506.68648436531794,268.5274180379369 M506.68648436531794,268.5274180379369 L482.94448302944176,263.05408503772037 M482.94448302944176,263.05408503772037 L458.49281541052176,258.75708843759503 M458.49281541052176,258.75708843759503 L433.50476754835023,255.66611484873482 M433.50476754835023,255.66611484873482 L408.157072165473,253.80250106362996 M408.157072165473,253.80250106362996 L382.62888601173245,253.1790819639887 M382.62888601173245,253.1790819639887 L357.100543477437,253.80016678266284 M357.100543477437,253.80016678266284 L331.75233867643675,255.6614684700507 M331.75233867643675,255.6614684700507 L306.7634439777614,258.75016057123344 M306.7634439777614,258.75016057123344 L282.3106074864535,263.04491476799126 M282.3106074864535,263.04491476799126 L258.5671141940659,268.5160805963208 M258.5671141940659,268.5160805963208 L235.70154583539832,275.12581302070555 M235.70154583539832,275.12581302070555 L213.87667222517467,282.82830555311176 M213.87667222517467,282.82830555311176 L193.24838446511154,291.57008825166906 M193.24838446511154,291.57008825166906 L173.96459730234756,301.29034086838254 M571.9989437914602,291.5874046492531 L577.3769696807101,298.4018128137943 M577.3769696807101,298.4018128137943 L584.8169684461435,304.5541986381822 M584.8169684461435,304.5541986381822 L594.0734871997513,309.8396469871566 M594.0734871997513,309.8396469871566 L604.8401143612347,314.08183402372947 M604.8401143612347,314.08183402372947 L616.7596231249787,317.13904439658126 M602.1261837823772,548.379693970981 L619.1405830840015,537.11591388177 M619.1405830840015,537.11591388177 L634.4184527223298,525.060930328905 M634.4184527223298,525.060930328905 L647.8506479658447,512.3044024766909 M647.8506479658447,512.3044024766909 L659.3420682241799,498.94089390383203 M659.3420682241799,498.94089390383203 L668.8122647322338,485.0691063483774 M668.8122647322338,485.0691063483774 L676.1959838521857,470.7911278839459 M676.1959838521857,470.7911278839459 L681.4435573423173,456.21165647383174 M681.4435573423173,456.21165647383174 L684.521067891495,441.4371506024036 M684.521067891495,441.4371506024036 L685.4105722511624,426.57510511529824 M685.4105722511624,426.57510511529824 L684.1100386264142,411.73318405327524 M684.1100386264142,411.73318405327524 L680.633290415647,397.01849640183764 M680.633290415647,397.01849640183764 L675.0096995070559,382.5368090286461 M675.0096995070559,382.5368090286461 L667.2839419542757,368.3917621550361 M667.2839419542757,368.3917621550361 L657.5155154817205,354.68423506958794 M657.5155154817205,354.68423506958794 L645.778185100724,341.51158412387537 M645.778185100724,341.51158412387537 L632.1594085353163,328.96703724607806 M632.1594085353163,328.96703724607806 L616.7596231249787,317.13904439658126 M660.1092357163867,581.8413478084325 L602.1261837823772,548.379693970981 M660.1092357163867,581.8413478084325 L679.5120666092723,569.1831393503214 M679.5120666092723,569.1831393503214 L697.1767121605761,555.7160288593052 M697.1767121605761,555.7160288593052 L713.003115091184,541.520202386339 M713.003115091184,541.520202386339 L726.9024466193243,526.6798543560361 M726.9024466193243,526.6798543560361 L738.797683345835,511.2826788638009 M738.797683345835,511.2826788638009 L748.6238744123499,495.4192903637256 M748.6238744123499,495.4192903637256 L756.32849668893,479.18266744582525 M756.32849668893,479.18266744582525 L761.8716429756499,462.66752483961017 M761.8716429756499,462.66752483961017 L765.2261958696487,445.9698306678696 M765.2261958696487,445.9698306678696 L766.37772992616,429.18614851776556 M766.37772992616,429.18614851776556 L765.3247011007719,412.4131052272493 M765.3247011007719,412.4131052272493 L762.0781149085512,395.746834518534 M762.0781149085512,395.746834518534 L756.6615672683238,379.2824247665988 M756.6615672683238,379.2824247665988 L749.1108123899459,363.1133660949124 M749.1108123899459,363.1133660949124 L739.4735093112147,347.33108909922925 M739.4735093112147,347.33108909922925 L727.8089528325236,332.024427030503 M727.8089528325236,332.024427030503 L714.1874724588876,317.27916770164734 M714.1874724588876,317.27916770164734 L698.6901011205028,303.17763085037063 M698.6901011205028,303.17763085037063 L681.4079528424356,289.7982060861135 M681.4079528424356,289.7982060861135 L662.4417179078757,277.21498962558917 M695.5083276715268,516.2820499867553 L691.4841536550387,514.4664736739695 M691.4841536550387,514.4664736739695 L686.8355570729237,513.258414589515 M686.8355570729237,513.258414589515 L681.8323554680919,512.7278658167913 M681.8323554680919,512.7278658167913 L676.7649061870382,512.905578236155 M676.7649061870382,512.905578236155 L671.927224923612,513.7812443373464 M671.927224923612,513.7812443373464 L667.6000644459461,515.3041379230051 M667.6000644459461,515.3041379230051 L664.0346811884043,517.3859955765538 M664.0346811884043,517.3859955765538 L661.4382932633349,519.9060989253318 M661.4382932633349,519.9060989253318 L659.9620182594855,522.7182381226899 M659.9620182594855,522.7182381226899 L659.6920445754706,525.6591355641851 M659.6920445754706,525.6591355641851 L660.6445457944384,528.557925482537 M660.6445457944384,528.557925482537 L662.7645881540358,531.2460199517056 M662.7645881540358,531.2460199517056 L665.9292908566403,533.5670034587316 M665.9292908566403,533.5670034587316 L669.9548412092529,535.38571790165 M669.9548412092529,535.38571790165 L674.6071669168452,536.5961962050333 M674.6071669168452,536.5961962050333 L679.6155961605227,537.1278910888495 M679.6155961605227,537.1278910888495 L684.6885699401429,536.9497914387622 M684.6885699401429,536.9497914387622 L689.5308181503831,536.0722869692363 M689.5308181503831,536.0722869692363 L693.8605306219225,534.546531542863 M693.8605306219225,534.546531542863 L697.4258703235266,532.4614418384699 M697.4258703235266,532.4614418384699 L700.0196291215718,529.938476657057 M700.0196291215718,529.938476657057 L701.4912876950092,527.1245038043392 M701.4912876950092,527.1245038043392 L701.7557263820117,524.1832144268783 M701.7557263820117,524.1832144268783 L700.7980284153098,521.285570611657 M700.7980284153098,521.285570611657 L698.674322132844,518.5998953634996 M698.674322132844,518.5998953634996 L695.5083276715268,516.2820499867553 M117.32100651629332,249.14583590939094 L138.93458460401683,238.09820114695532 M138.93458460401683,238.09820114695532 L161.91543930488328,228.02344137394715 M161.91543930488328,228.02344137394715 L186.1328880663621,218.97665779816396 M186.1328880663621,218.97665779816396 L211.4498775854086,211.007226061349 M211.4498775854086,211.007226061349 L237.72366292824253,204.1585045715585 M237.72366292824253,204.1585045715585 L264.8065988691394,198.46769997206403 M264.8065988691394,198.46769997206403 L292.5468908257654,193.9656657667935 M292.5468908257654,193.9656657667935 L320.78947065026,190.67677719223764 M320.78947065026,190.67677719223764 L349.3766317291302,188.61879871018812 M349.3766317291302,188.61879871018812 L378.1489746381391,187.80288729829624 M378.1489746381391,187.80288729829624 L406.9461541419524,188.2334198103073 M406.9461541419524,188.2334198103073 L435.60768625905837,189.9081013733926 M435.60768625905837,189.9081013733926 L463.9737709109969,192.81785151359654 M463.9737709109969,192.81785151359654 L491.8861414855332,196.94694834933443 M491.8861414855332,196.94694834933443 L519.188783973625,202.27306534300908 M519.188783973625,202.27306534300908 L545.7288167096547,208.7673108696761 M545.7288167096547,208.7673108696761 L571.3572465125659,216.39445467801013 M571.3572465125659,216.39445467801013 L595.9297098717826,225.1130012043091 M595.9297098717826,225.1130012043091 L619.3073138074193,234.8754304762957 M619.3073138074193,234.8754304762957 L641.3573341145914,245.62837783979083 M117.32100651629332,249.14583590939094 L117.43807808139559,268.66924287995266 M173.87234479564404,281.75221853158405 L117.32100651629332,249.14583590939094 M173.87234479564404,281.75221853158405 L193.1646956664111,272.0363462249485 M193.1646956664111,272.0363462249485 L213.80213018372666,263.2985061584731 M213.80213018372666,263.2985061584731 L235.636668607199,255.59949008411655 M235.636668607199,255.59949008411655 L258.5123516916685,248.99274281852306 M258.5123516916685,248.99274281852306 L282.2663387824867,243.5240492712014 M282.2663387824867,243.5240492712014 L306.7299750388624,239.23123661136842 M306.7299750388624,239.23123661136842 L331.7299005374928,236.14394128079851 M331.7299005374928,236.14394128079851 L357.08929090700775,234.2834814985744 M357.08929090700775,234.2834814985744 L382.62889657450586,233.6626776404969 M382.62889657450586,233.6626776404969 L408.16834579425927,234.2858147236105 M408.16834579425927,234.2858147236105 L433.5272265262432,236.14858555800464 M433.5272265262432,236.14858555800464 L458.5263048234486,239.238161345238 M458.5263048234486,239.238161345238 L482.98877170350005,243.53321539610752 M482.98877170350005,243.53321539610752 L506.74126619393587,249.0040751382914 M506.74126619393587,249.0040751382914 L529.615156398766,255.61290933635487 M529.615156398766,255.61290933635487 L551.4475882879401,263.31392661028246 M551.4475882879401,263.31392661028246 L572.08264920332,272.0536548157238 M572.08264920332,272.0536548157238 L569.0647535013163,265.25010643159646 M569.0647535013163,265.25010643159646 L568.1125878706838,258.26146567174897 M568.1125878706838,258.26146567174897 L569.2520557856558,251.29234767726047 M569.2520557856558,251.29234767726047 L572.4478553001338,244.54641612074693 M572.4478553001338,244.54641612074693 L577.6048175852478,238.2204242160085 M577.6048175852478,238.2204242160085 L584.5707874502855,232.4985703941586 M584.5707874502855,232.4985703941586 L593.141291255603,227.5471868163478 M633.1955726699815,250.332719348286 L593.141291255603,227.5471868163478 M601.9297857383556,173.7306123711743 L593.3271756539806,188.46822899308324 M593.3271756539806,188.46822899308324 L593.141291255603,227.5471868163478 M601.9297857383556,173.7306123711743 L633.5279393502191,191.65730822229563 M686.4495703785948,221.68153036655298 L678.2410798847995,226.43117539095024 M678.2410798847995,226.43117539095024 L668.5524918055105,230.16655472652891 M668.5524918055105,230.16655472652891 L657.7577704193058,232.74269207114008 M657.7577704193058,232.74269207114008 L646.2742106919374,234.05949953903797 M646.2742106919374,234.05949953903797 L634.5460879495961,234.0657917198841 M634.5460879495961,234.0657917198841 L623.0272613502854,232.76132889148678 M623.0272613502854,232.76132889148678 L612.1633851334211,230.19680995607754 M612.1633851334211,230.19680995607754 L602.3744299386631,226.4718660488046 M602.3744299386631,226.4718660488046 L594.0382823195503,221.7310868229831 M594.0382823195503,221.7310868229831 L587.4760684245895,216.15828191039816 M587.4760684245895,216.15828191039816 L582.9397825395581,209.96921788386243 M582.9397825395581,209.96921788386243 L580.6027013490645,203.4031409950461 M580.6027013490645,203.4031409950461 L580.5529225387122,196.71343598228106 M580.5529225387122,196.71343598228106 L582.7902933135991,190.1577882374593 M582.7902933135991,190.1577882374593 L587.2267045428317,183.98826701845041 M587.2267045428317,183.98826701845041 L593.6897791689939,178.44169258957757 M593.6897791689939,178.44169258957757 L601.9297857383556,173.7306123711743 M654.7643111534901,203.70541656985543 L686.4495703785948,221.68153036655298 M652.6694816885223,204.91096025791722 L654.7643111534901,203.70541656985543 M631.4330939641086,192.86151978118593 L652.6694816885223,204.91096025791722 M652.6694816885223,204.91096025791722 L652.7292304799616,195.11356270497697 M631.4881140082394,183.06687381551055 L652.7292304799616,195.11356270497697 M631.4881140082394,183.06687381551055 L635.7344583891411,178.16792633367373 M648.3027990204802,170.94713008143316 L635.7344583891411,178.16792633367373 M648.244074773682,173.43910786914958 L648.3027990204802,170.94713008143316 M668.9152255528873,273.47626158590805 L669.485060256676,185.47514598624863 M669.485060256676,185.47514598624863 L648.244074773682,173.43910786914958 M654.4036162060881,262.397261486277 L654.7643111534901,203.70541656985543 M662.5653145656852,257.68772351926407 L654.4036162060881,262.397261486277 M662.5653145656852,257.68772351926407 L662.4417179078757,277.21498962558917 M652.7292304799616,195.11356270497697 L669.485060256676,185.47514598624863 M173.87234479564404,281.75221853158405 L173.96459730234756,301.29034086838254 M572.08264920332,272.0536548157238 L571.9989437914602,291.5874046492531 M593.3271756539806,188.46822899308324 L584.6180425126056,193.50527834710533 M584.6180425126056,193.50527834710533 L577.5731460363774,199.33541887457545 M577.5731460363774,199.33541887457545 L572.4062826299004,205.78343891483286 M572.4062826299004,205.78343891483286 L569.2750917064178,212.6552234749012 M569.2750917064178,212.6552234749012 L568.2760792717393,219.74354746729924 M568.2760792717393,219.74354746729924 L569.4415256259731,226.83422767738057 M569.4415256259731,226.83422767738057 L572.7382365693925,233.7126024242074 M572.7382365693925,233.7126024242074 L578.0682881309552,240.17005874042215 M578.0682881309552,240.17005874042215 L585.2718511660371,246.0103553582947 M585.2718511660371,246.0103553582947 L594.1317411599191,251.05574722115514 M594.1317411599191,251.05574722115514 L604.3799867292194,255.15244166824823 M604.3799867292194,255.15244166824823 L615.7059378166,258.1753958823916 M615.7059378166,258.1753958823916 L627.7656526034962,260.0322841598117 M627.7656526034962,260.0322841598117 L640.1926010785892,260.6663307176774 M640.1926010785892,260.6663307176774 L652.6088695083722,260.05814607514196 M652.6088695083722,260.05814607514196 L664.6368578371536,258.2263321424938 M664.6368578371536,258.2263321424938 L675.9109964829084,255.22688016827362 M675.9109964829084,255.22688016827362 L686.0889451971522,251.15143067782546 M686.0889451971522,251.15143067782546 L694.8621641933058,246.12436419475776 M694.8621641933058,246.12436419475776 L694.5859843999516,285.25565827586263 M694.5859843999516,285.25565827586263 L685.9775696695357,290.2114554559237 M685.9775696695357,290.2114554559237 L676.0069799166027,294.24816651649917 M676.0069799166027,294.24816651649917 L664.9665775937132,297.24662204888574 M664.9665775937132,297.24662204888574 L653.1806202188349,299.1182078834387 M653.1806202188349,299.1182078834387 L640.9955852418838,299.8076011762422 M640.9955852418838,299.8076011762422 L628.7699103541522,299.2943991611516 M628.7699103541522,299.2943991611516 L616.8632320234624,297.5937882185763 M616.8632320234624,297.5937882185763 L616.7596231249787,317.13904439658126 M694.8621641933058,246.12436419475776 L686.4495703785948,221.68153036655298 M694.5859843999516,285.25565827586263 L654.4036162060881,262.397261486277 M652.7292304799616,195.11356270497697 L652.7292304799616,187.80310976936988 M635.7344583891411,178.16792633367373 L652.7292304799616,187.80310976936988 M652.7292304799616,187.80310976936988 L665.2974924920652,180.5759230786337 M665.2974924920652,180.5759230786337 L648.3027990204802,170.94713008143316 M669.485060256676,185.47514598624863 L665.2974924920652,180.5759230786337 M616.8632320234624,297.5937882185763 L632.2698911652428,309.4164636417602 M632.2698911652428,309.4164636417602 L645.8947637174037,321.9553771277115 M645.8947637174037,321.9553771277115 L657.6373665688056,335.12211945526565 M657.6373665688056,335.12211945526565 L667.41020161512,348.8235054391738 M667.41020161512,348.8235054391738 L675.1394692138892,362.9622231495571 M675.1394692138892,362.9622231495571 L680.7656430645437,377.43743909745126 M680.7656430645437,377.43743909745126 L684.2440248983511,392.1455598734687 M684.2440248983511,392.1455598734687 L685.545227253395,406.98086613180027 M685.545227253395,406.98086613180027 L684.6554179793932,421.8362967557917 M684.6554179793932,421.8362967557917 L681.576627152519,436.6042355637484 M681.576627152519,436.6042355637484 L676.3268034363851,451.17723523784963 M676.3268034363851,451.17723523784963 L668.9398767942226,465.4488841127488 M668.9398767942226,465.4488841127488 L659.4655353287923,479.3145300286617 M659.4655353287923,479.3145300286617 L647.9690597409011,492.6721293445996 M647.9690597409011,492.6721293445996 L634.5309329457307,505.4230230676283 M634.5309329457307,505.4230230676283 L619.2462965784896,517.4726883764295 M619.2462965784896,517.4726883764295 L602.224343078731,528.7315045743915 M660.2335098089129,562.178442234036 L602.224343078731,528.7315045743915 M662.5653145656852,257.68772351926407 L681.5400023457556,270.26526294685766 M681.5400023457556,270.26526294685766 L698.8298735213151,283.63865847210934 M698.8298735213151,283.63865847210934 L714.3341922273786,297.73384849635517 M714.3341922273786,297.73384849635517 L727.9618027015127,312.4724798557832 M727.9618027015127,312.4724798557832 L739.6316343701874,327.7722708891794 M739.6316343701874,327.7722708891794 L749.2733244900114,343.54747325236286 M749.2733244900114,343.54747325236286 L756.8275496169147,359.7092943376993 M756.8275496169147,359.7092943376993 L762.2466269807583,376.1663451421016 M762.2466269807583,376.1663451421016 L765.4947837270292,392.8251778232581 M765.4947837270292,392.8251778232581 L766.5484105536449,409.5907467542529 M766.5484105536449,409.5907467542529 L765.3964940812807,426.3669611707509 M765.3964940812807,426.3669611707509 L762.0405760587993,443.0572371515471 M762.0405760587993,443.0572371515471 L756.4950854204569,459.56505373828503 M756.4950854204569,459.56505373828503 L748.7871488270911,475.7944849189257 M748.7871488270911,475.7944849189257 L738.9566886151183,491.65085727677456 M738.9566886151183,491.65085727677456 L727.0562489133997,507.0412325401824 M727.0562489133997,507.0412325401824 L713.1508074150009,521.875035323465 M713.1508074150009,521.875035323465 L697.3174200811757,536.0646091308472 M697.3174200811757,536.0646091308472 L679.6449539064677,549.525795443841 M679.6449539064677,549.525795443841 L660.2335098089129,562.178442234036 M695.6480400712761,496.6480193568233 L698.8154629583986,498.9648409030717 M698.8154629583986,498.9648409030717 L700.9401348446731,501.6493301154258 M700.9401348446731,501.6493301154258 L701.8982792044715,504.5456946127605 M701.8982792044715,504.5456946127605 L701.633741349159,507.4856857493089 M701.633741349159,507.4856857493089 L700.1614433958297,510.29841688357146 M700.1614433958297,510.29841688357146 L697.5665418051178,512.8202690308926 M697.5665418051178,512.8202690308926 L693.9996221121811,514.9044390687377 M693.9996221121811,514.9044390687377 L689.6679842719016,516.4295216442586 M689.6679842719016,516.4295216442586 L684.823577400675,517.3066391810687 M684.823577400675,517.3066391810687 L679.7483374720201,517.4846603024941 M679.7483374720201,517.4846603024941 L674.7376667028103,516.9531998602588 M674.7376667028103,516.9531998602588 L670.0832547809412,515.7432553387218 M670.0832547809412,515.7432553387218 L666.0558950443067,513.9253430013382 M666.0558950443067,513.9253430013382 L662.889765051249,511.6053833089093 M662.889765051249,511.6053833089093 L660.7687603471854,508.9184748632877 M660.7687603471854,508.9184748632877 L659.8158173717973,506.02096425701615 M659.8158173717973,506.02096425701615 L660.0858951741093,503.08136505736746 M660.0858951741093,503.08136505736746 L661.5628136921332,500.27046758880573 M661.5628136921332,500.27046758880573 L664.1603467763821,497.7514772886182 M664.1603467763821,497.7514772886182 L667.7273100836495,495.67053931799256 M667.7273100836495,495.67053931799256 L672.0563936669503,494.1483185976856 M672.0563936669503,494.1483185976856 L676.8962295234194,493.2730394374731 M676.8962295234194,493.2730394374731 L681.9659400175943,493.09540554978463 M681.9659400175943,493.09540554978463 L686.9713784698682,493.6257198751205 M686.9713784698682,493.6257198751205 L691.6220579195049,494.83324516547134 M691.6220579195049,494.83324516547134 L695.6480400712761,496.6480193568233 M660.2335098089129,562.178442234036 L660.1092357163867,581.8413478084325 M602.224343078731,528.7315045743915 L602.1261837823772,548.379693970981 M695.5083276715268,516.2820499867553 L695.6480400712761,496.6480193568233" stroke="black"  stroke-width="4"  fill="red"/>
<path d="M478.91826089725134,615.6042379167861 L496.75846312236297,604.2848832116881 M496.75846312236297,604.2848832116881 L512.8988423767775,592.1520214874699 M512.8988423767775,592.1520214874699 L527.2289008041498,579.2921192498079 M527.2289008041498,579.2921192498079 L539.6513954103316,565.7965376781038 M539.6513954103316,565.7965376781038 L550.082927141443,551.7608193190893 M550.082927141443,551.7608193190893 L558.4544226085196,537.2839374078379 M558.4544226085196,537.2839374078379 L564.7116311062496,522.467629754047 M564.7116311062496,522.467629754047 L568.8152518382782,507.415571000509 M568.8152518382782,507.415571000509 L570.7411939314793,492.2326823284087 M570.7411939314793,492.2326823284087 L570.4806176796649,477.02436949846015 M570.4806176796649,477.02436949846015 L568.0398092104163,461.8957761698355 M568.0398092104163,461.8957761698355 L563.4400879325669,446.95106204605486 M563.4400879325669,446.95106204605486 L556.7174671663233,432.2927008792447 M556.7174671663233,432.2927008792447 L547.9223379746169,418.02079420744644 M547.9223379746169,418.02079420744644 L537.1190192324061,404.2324272736515 M537.1190192324061,404.2324272736515 L524.385169524591,391.02103301034145 M478.95068780365887,600.8328299166858 L478.91826089725134,615.6042379167861 M524.4324215139627,376.32417228860936 L537.1705460630163,389.53113890097285 M537.1705460630163,389.53113890097285 L547.9775020205092,403.31489045866255 M547.9775020205092,403.31489045866255 L556.7756036971593,417.5820259671632 M556.7756036971593,417.5820259671632 L563.5005093510088,432.2354932026445 M563.5005093510088,432.2354932026445 L568.1018095256389,447.1752244948641 M568.1018095256389,447.1752244948641 L570.543477176354,462.29878057696783 M570.543477176354,462.29878057696783 L570.8041839939798,477.502036607518 M570.8041839939798,477.502036607518 L568.877639940692,492.67988392530646 M568.877639940692,492.67988392530646 L564.7726858875313,507.72695166115807 M564.7726858875313,507.72695166115807 L558.5134190437088,522.538353173815 M558.5134190437088,522.538353173815 L550.1391517518981,537.010447763923 M550.1391517518981,537.010447763923 L539.7041514364697,551.041530752721 M539.7041514364697,551.041530752721 L527.2775133812938,564.5326609669686 M527.2775133812938,564.5326609669686 L512.9426635839052,577.3883266539062 M512.9426635839052,577.3883266539062 L496.7968769021983,589.5171959373475 M496.7968769021983,589.5171959373475 L478.95068780365887,600.8328299166858 M524.4324215139627,376.32417228860936 L524.385169524591,391.02103301034145 M524.385169524591,391.02103301034145 L520.9429465657378,393.2044313208982 M520.9429465657378,393.2044313208982 L517.2480315720505,395.24683145421426 M517.2480315720505,395.24683145421426 L513.3177456918463,397.1385803599484 M468.19277617098317,609.3758420901103 L486.11840695236754,597.9538098227772 M486.11840695236754,597.9538098227772 L502.22729884490855,585.6698466334398 M502.22729884490855,585.6698466334398 L516.3961028049368,572.6217570199757 M516.3961028049368,572.6217570199757 L528.5172255605214,558.9130753176967 M528.5172255605214,558.9130753176967 L538.4997184912293,544.6521905919228 M538.4997184912293,544.6521905919228 L546.2698149968319,529.9514426871785 M546.2698149968319,529.9514426871785 L551.7713780229918,514.9261752031713 M551.7713780229918,514.9261752031713 L554.9662707637674,499.6938185691645 M554.9662707637674,499.6938185691645 L555.8344744118529,484.37294010534634 M555.8344744118529,484.37294010534634 L554.3740789715536,469.082287280169 M554.3740789715536,469.082287280169 L550.6011982382762,453.93990225920896 M550.6011982382762,453.93990225920896 L544.549637562786,439.06218445566117 M544.549637562786,439.06218445566117 L536.2705627871757,424.563042539004 M536.2705627871757,424.563042539004 L525.831893537216,410.55303503328196 M525.831893537216,410.55303503328196 L513.3177456918463,397.1385803599484 M478.91826089725134,615.6042379167861 L468.19277617098317,609.3758420901103 M361.26065292411033,532.5345601273538 L361.2630406958363,537.4519573014695 M478.95068780365887,600.8328299166858 L361.26065292411033,532.5345601273538 M468.21197918462207,599.5307058869562 L468.19277617098317,609.3758420901103 M468.21197918462207,599.5307058869562 L361.2630406958363,537.4519573014695 M524.4324215139627,376.32417228860936 L515.2059853535204,381.58520100731306 M515.2059853535204,381.58520100731306 L504.5291791445237,385.8467287947498 M504.5291791445237,385.8467287947498 L492.72441257593664,388.97915519877427 M492.72441257593664,388.97915519877427 L480.14875344240954,390.8871297831522 M480.14875344240954,390.8871297831522 L467.1829954639303,391.5125310509035 M467.1829954639303,391.5125310509035 L454.2199403665526,390.8363037102241 M454.2199403665526,390.8363037102241 L441.65231770628446,388.8790521826926 M441.65231770628446,388.8790521826926 L429.8606623472255,385.70039665846 M429.8606623472255,385.70039665846 L419.20162612034034,381.39709447020476 M419.20162612034034,381.39709447020476 L409.99706666719715,376.10000355354344 M409.99706666719715,376.10000355354344 L402.5242466311151,369.9699946306102 M402.5242466311151,369.9699946306102 L397.00748742770475,363.19295090344946 M397.00748742770475,363.19295090344946 L393.6115098510721,355.97401401018334 M393.6115098510721,355.97401401018334 L392.4366466565457,348.53128911586117 M392.4366466565457,348.53128911586117 L393.5160508279093,341.0892034754256 M393.5160508279093,341.0892034754256 L396.8149733771602,333.8717061006445 M396.8149733771602,333.8717061006445 L402.2320655959377,327.09556167457504 M402.2320655959377,327.09556167457504 L409.60268204099424,320.9638932390395 M409.60268204099424,320.9638932390395 L418.7039922955465,315.66018285266415 M33.45158944635506,342.29932160689543 L52.83754471325341,332.12866768251195 M52.83754471325341,332.12866768251195 L73.59484532698883,322.91996076564146 M73.59484532698883,322.91996076564146 L95.58106671261396,314.73442349788957 M95.58106671261396,314.73442349788957 L118.64594336353207,307.6263345286253 M118.64594336353207,307.6263345286253 L142.63238230550007,301.6427328026904 M142.63238230550007,301.6427328026904 L167.37753239229318,296.8231623287593 M167.37753239229318,296.8231623287593 L192.71370807111992,293.1993878967588 M192.71370807111992,293.1993878967588 L218.4695913183151,290.7952995905941 M218.4695913183151,290.7952995905941 L244.47121053552547,289.62672262241693 M244.47121053552547,289.62672262241693 L270.54305649187535,289.7013325142621 M270.54305649187535,289.7013325142621 L296.5091928767247,291.0186482321877 M296.5091928767247,291.0186482321877 L322.1943501134933,293.5699920633143 M322.1943501134933,293.5699920633143 L347.4250137860487,297.3385779455689 M347.4250137860487,297.3385779455689 L372.0305186078885,302.29957736724464 M372.0305186078885,302.29957736724464 L395.8441041006102,308.4202554215705 M395.8441041006102,308.4202554215705 L418.7039922955465,315.66018285266415 M149.1238531923029,409.4266317869721 L33.45158944635506,342.29932160689543 M149.1238531923029,409.4266317869721 L163.33367073429105,402.23980848183123 M163.33367073429105,402.23980848183123 L178.97401872148475,396.13504770963016 M178.97401872148475,396.13504770963016 L195.79954558909952,391.2067495432114 M195.79954558909952,391.2067495432114 L213.54696466150708,387.5310108925148 M213.54696466150708,387.5310108925148 L231.93907819077856,385.16453006055457 M231.93907819077856,385.16453006055457 L250.68899128051407,384.1437738087781 M250.68899128051407,384.1437738087781 L269.50441970081647,384.48446810658857 M269.50441970081647,384.48446810658857 L288.0920958332692,386.18135469696006 M288.0920958332692,386.18135469696006 L306.16218640288093,389.20829897883414 M306.16218640288093,389.20829897883414 L323.43264914438015,393.518639176195 M323.43264914438015,393.518639176195 L339.6334961385723,399.04585675232977 M339.6334961385723,399.04585675232977 L354.5109071583259,405.7045437500691 M354.5109071583259,405.7045437500691 L367.83112845924387,413.3916370950043 M367.83112845924387,413.3916370950043 L379.3840989524172,421.98792054130024 M379.3840989524172,421.98792054130024 L388.9867660136381,431.3597819597454 M388.9867660136381,431.3597819597454 L396.4860204817478,441.36119536209526 M396.4860204817478,441.36119536209526 L401.76120833548725,451.8359131552288 M401.76120833548725,451.8359131552288 L404.72619669953906,462.61983924518114 M404.72619669953906,462.61983924518114 L405.33091740434503,473.54354628545343 M405.33091740434503,473.54354628545343 L403.5623213459114,484.43490131443326 M403.5623213459114,484.43490131443326 L399.44486059233543,495.1217752170796 M399.44486059233543,495.1217752170796 L393.0402873131036,505.4347842364406 M393.0402873131036,505.4347842364406 L384.44690371453197,515.2100019261844 M384.44690371453197,515.2100019261844 L373.7981527476464,524.2916302985096 M373.7981527476464,524.2916302985096 L361.26065292411033,532.5345601273538 M162.422624841523,353.25575339246404 L165.07404148815453,355.21718480542114 M165.07404148815453,355.21718480542114 L166.82927521693466,357.4898148640591 M166.82927521693466,357.4898148640591 L167.58606463696935,359.9417134577598 M167.58606463696935,359.9417134577598 L167.30009970840206,362.4304540872871 M167.30009970840206,362.4304540872871 L165.98765899080695,364.81138188874723 M165.98765899080695,364.81138188874723 L163.72473753758305,366.94599903830334 M163.72473753758305,366.94599903830334 L160.6426857363001,368.7100893406548 M160.6426857363001,368.7100893406548 L156.92063669528952,370.00092309017947 M156.92063669528952,370.00092309017947 L152.77503652539878,370.74330670646304 M152.77503652539878,370.74330670646304 L148.44712294162574,370.8939794962839 M148.44712294162574,370.8939794962839 L144.18875328960186,370.4441591441727 M144.18875328960186,370.4441591441727 L140.24773512453334,369.42006053755483 M140.24773512453334,369.42006053755483 L136.853338180253,367.8813629816248 M136.853338180253,367.8813629816248 L134.20291503455456,365.91766796328335 M134.20291503455456,365.91766796328335 L132.45038616705148,363.6432928607713 M132.45038616705148,363.6432928607713 L131.69739332870313,361.1905675570243 M131.69739332870313,361.1905675570243 L131.98737680333136,358.70210794073495 M131.98737680333136,358.70210794073495 L133.30313743647878,356.3225045017574 M133.30313743647878,356.3225045017574 L135.5679196036208,354.1899516580263 M135.5679196036208,354.1899516580263 L138.64994667080214,352.42819271092475 M138.64994667080214,352.42819271092475 L142.37009119577067,351.139423273916 M142.37009119577067,351.139423273916 L146.51234334811915,350.39836402063065 M146.51234334811915,350.39836402063065 L150.83623242216098,350.24797224379455 M150.83623242216098,350.24797224379455 L155.09082303389656,350.69696587893475 M155.09082303389656,350.69696587893475 L159.02917336599688,351.7193194340276 M159.02917336599688,351.7193194340276 L162.422624841523,353.25575339246404 M459.4186114671239,525.1092560679197 L462.1175345404917,527.1015215930126 M462.1175345404917,527.1015215930126 L463.91750495064565,529.4098813575883 M463.91750495064565,529.4098813575883 L464.713659585313,531.9003322677261 M464.713659585313,531.9003322677261 L464.4593964592359,534.4282089523349 M464.4593964592359,534.4282089523349 L463.1691461058784,536.8465816261728 M463.1691461058784,536.8465816261728 L460.9176077817057,539.0147734103323 M460.9176077817057,539.0147734103323 L457.8354655960987,540.806612953825 M457.8354655960987,540.806612953825 L454.10185519883316,542.1177530205254 M454.10185519883316,542.1177530205254 L449.9338945354778,542.8718157419312 M449.9338945354778,542.8718157419312 L445.5741239314849,543.0248589498254 M445.5741239314849,543.0248589498254 L441.2762571349723,542.5679619719449 M441.2762571349723,542.5679619719449 L437.2904032457157,541.5277526745261 M437.2904032457157,541.5277526745261 L433.84844353595633,539.9648504010415 M433.84844353595633,539.9648504010415 L431.15049848789624,537.9702676691127 M431.15049848789624,537.9702676691127 L429.35325149836893,535.6601215385847 M429.35325149836893,535.6601215385847 L428.56094178821706,533.1688243421731 M428.56094178821706,533.1688243421731 L428.81929051183175,530.6412353251051 M428.81929051183175,530.6412353251051 L430.1129311803101,528.2242183742271 M430.1129311803101,528.2242183742271 L432.36638783793643,526.0581397779929 M432.36638783793643,526.0581397779929 L435.44853692951466,524.2686867954985 M435.44853692951466,524.2686867954985 L439.1802412228882,522.9596599235792 M439.1802412228882,522.9596599235792 L443.3448194163816,522.2069529256688 M443.3448194163816,522.2069529256688 L447.7005060866958,522.0541973850579 M447.7005060866958,522.0541973850579 L451.99452306053513,522.5102480695708 M451.99452306053513,522.5102480695708 L455.977643191541,523.5486709931972 M455.977643191541,523.5486709931972 L459.4186114671239,525.1092560679197 M513.3467928663202,387.34039475937396 L513.3177456918463,397.1385803599484 M513.3467928663202,387.34039475937396 L502.6866773853733,391.33011014424454 M502.6866773853733,391.33011014424454 L490.9993573105117,394.22136405720966 M490.9993573105117,394.22136405720966 L478.6234669617696,395.9298601196547 M478.6234669617696,395.9298601196547 L465.91794692085426,396.4057473122396 M465.91794692085426,396.4057473122396 L453.2514475028516,395.6351410535336 M453.2514475028516,395.6351410535336 L440.99149106066784,393.640527377341 M440.99149106066784,393.640527377341 L429.49357595898147,390.4800940295531 M429.49357595898147,390.4800940295531 L419.09075968060426,386.2459740639475 M419.09075968060426,386.2459740639475 L410.0838622383979,381.06147619577723 M410.0838622383979,381.06147619577723 L402.7327258721441,375.07739791909665 M402.7327258721441,375.07739791909665 L397.2487091323665,368.46752785960183 M397.2487091323665,368.46752785960183 L393.7886789911122,361.42351068607684 M393.7886789911122,361.42351068607684 L392.45063785603946,354.149190062555 M392.45063785603946,354.149190062555 L393.2710994133651,346.854683236056 M393.2710994133651,346.854683236056 L396.2242906523461,339.7502608785348 M396.2242906523461,339.7502608785348 L401.22311132776747,333.0403240781417 M401.22311132776747,333.0403240781417 L408.1218952747566,326.91755895040063 M408.1218952747566,326.91755895040063 L408.1162417010984,336.7022085033547 M408.1162417010984,336.7022085033547 L411.38626235011236,334.4426218157858 M411.38626235011236,334.4426218157858 L414.9170324313174,332.3174721969616 M414.9170324313174,332.3174721969616 L418.6919985390533,330.3366379327349 M418.7039922955465,315.66018285266415 L418.6919985390533,330.3366379327349 M468.21197918462207,599.5307058869562 L486.14161992262984,588.111177203869 M486.14161992262984,588.111177203869 L502.2541093962342,575.8299094661228 M502.2541093962342,575.8299094661228 L516.4260713202273,562.7846863141967 M516.4260713202273,562.7846863141967 L528.5498889292676,549.0790199003796 M528.5498889292676,549.0790199003796 L538.5345940357628,534.821275951809 M538.5345940357628,534.821275951809 L546.3064044913758,520.1237699992014 M546.3064044913758,520.1237699992014 L551.8091717797688,505.10182054520203 M551.8091717797688,505.10182054520203 L555.0047517645028,489.87283232833227 M555.0047517645028,489.87283232833227 L555.8731224247797,474.55534658541626 M555.8731224247797,474.55534658541626 L554.4123746235941,459.2680845159519 M554.4123746235941,459.2680845159519 L550.6386270249492,444.1290620267562 M550.6386270249492,444.1290620267562 L544.5856937413055,429.2546524942636 M544.5856937413055,429.2546524942636 L536.3047531551531,414.7587389694796 M536.3047531551531,414.7587389694796 L525.8637410387435,400.7518549791029 M525.8637410387435,400.7518549791029 L513.3467928663202,387.34039475937396 M149.14982728187795,414.33037205482856 L163.35805605785112,407.1427467494589 M163.35805605785112,407.1427467494589 L178.99665838673639,401.03730431756344 M178.99665838673639,401.03730431756344 L195.82030994061427,396.1084555807714 M195.82030994061427,396.1084555807714 L213.56575315792685,392.4323061309045 M213.56575315792685,392.4323061309045 L231.95582085159037,390.06556074964556 M231.95582085159037,390.06556074964556 L250.70364968701568,389.04469036987206 M250.70364968701568,389.04469036987206 L269.5169875451151,389.38542276096234 M269.5169875451151,389.38542276096234 L288.10259900690056,391.08249906399 M288.10259900690056,391.08249906399 L306.1706826244136,394.1097816872567 M306.1706826244136,394.1097816872567 L323.4392271315014,398.4206035196871 M323.4392271315014,398.4206035196871 L339.63827433197696,403.9484384292079 M339.63827433197696,403.9484384292079 L354.5140320093775,410.60786872360694 M354.5140320093775,410.60786872360694 L367.83277229921003,418.29581960673255 M367.83277229921003,418.29581960673255 L379.38445746656316,426.8930613087737 M379.38445746656316,426.8930613087737 L388.986055347113,436.2659665878164 M388.986055347113,436.2659665878164 L396.48447401194903,446.26849299219555 M396.48447401194903,446.26849299219555 L401.75907315071714,456.7443753744353 M401.75907315071714,456.7443753744353 L404.7237298271092,467.5294992725419 M404.7237298271092,467.5294992725419 L405.32838184110744,478.4544184480798 M405.32838184110744,478.4544184480798 L403.5599819532673,489.3469808212163 M403.5599819532673,489.3469808212163 L399.44297990659646,500.03503823472255 M399.44297990659646,500.03503823472255 L393.03912134761947,510.34918826660146 M393.03912134761947,510.34918826660146 L384.44669781706017,520.1254864758421 M384.44669781706017,520.1254864758421 L373.79913759065465,529.2081178348567 M373.79913759065465,529.2081178348567 L361.2630406958363,537.4519573014695 M149.1238531923029,409.4266317869721 L149.14982728187795,414.33037205482856 M408.1218952747566,326.91755895040063 L384.9232912793079,319.79732839942346 M384.9232912793079,319.79732839942346 L360.7394760615763,313.879413661603 M360.7394760615763,313.879413661603 L335.75434401905574,309.2076619577743 M335.75434401905574,309.2076619577743 L310.1574379185309,305.8166135417683 M310.1574379185309,305.8166135417683 L284.142621857602,303.7313312821906 M284.142621857602,303.7313312821906 L257.9066800925265,302.9671972985541 M257.9066800925265,302.9671972985541 L231.64797812850634,303.52985740643413 M231.64797812850634,303.52985740643413 L205.565010011042,305.41515179176037 M205.565010011042,305.41515179176037 L179.85506920947608,308.60916916276096 M179.85506920947608,308.60916916276096 L154.71282653009555,313.08832405585207 M154.71282653009555,313.08832405585207 L130.32894246343142,318.81948347745436 M130.32894246343142,318.81948347745436 L106.88875030897748,325.76021245936215 M106.88875030897748,325.76021245936215 L84.57089547519274,333.85903742782824 M84.57089547519274,333.85903742782824 L63.546047909428864,343.055734111075 M63.546047909428864,343.055734111075 L43.97565295819396,353.28178926584894 M149.14982728187795,414.33037205482856 L43.97565295819396,353.28178926584894 M162.44705696752624,358.15321146460747 L165.09818156123058,360.11486278317625 M165.09818156123058,360.11486278317625 L166.85322298497852,362.38774758877094 M166.85322298497852,362.38774758877094 L167.6099310778629,364.8399209656924 M167.6099310778629,364.8399209656924 L167.32400059896167,367.32894044514677 M167.32400059896167,367.32894044514677 L166.01170818169408,369.71013495807244 M166.01170818169408,369.71013495807244 L163.74904032318358,371.84499117865016 M163.74904032318358,371.84499117865016 L160.66733270855568,373.60927901930353 M160.66733270855568,373.60927901930353 L156.94569844111868,374.90025729313993 M156.94569844111868,374.90025729313993 L152.80055949342625,375.6427240205373 M152.80055949342625,375.6427240205373 L148.47312670950618,375.793413677754 M148.47312670950618,375.793413677754 L144.21522941721088,375.34354296883674 M144.21522941721088,375.34354296883674 L140.27464764783593,374.3193297080747 M140.27464764783593,374.3193297080747 L136.8806257225806,372.7804598655429 M136.8806257225806,372.7804598655429 L134.23049440659895,370.8165449392394 M134.23049440659895,370.8165449392394 L132.47815724162683,368.54191508795884 M132.47815724162683,368.54191508795884 L131.72524488666028,366.08891500013266 M131.72524488666028,366.08891500013266 L132.0151930198847,363.600176534208 M132.0151930198847,363.600176534208 L133.3308046172827,361.2203063851399 M133.3308046172827,361.2203063851399 L135.59533277908582,359.0875144725307 M135.59533277908582,359.0875144725307 L138.67701566784757,357.3255579895478 M138.67701566784757,357.3255579895478 L142.39674584445254,356.0366440303705 M142.39674584445254,356.0366440303705 L146.5385375193814,355.29550166734634 M146.5385375193814,355.29550166734634 L150.86194668729382,355.14509302340605 M150.86194668729382,355.14509302340605 L155.11606577722884,355.59413701449404 M155.11606577722884,355.59413701449404 L159.0539803038077,356.61660522191954 M159.0539803038077,356.61660522191954 L162.44705696752624,358.15321146460747 M459.4100212560879,530.0258338629856 L462.1086417033229,532.0183192884294 M462.1086417033229,532.0183192884294 L463.9084098526771,534.3269337927095 M463.9084098526771,534.3269337927095 L464.70447440103237,536.8176594768506 M464.70447440103237,536.8176594768506 L464.45023867250814,539.3458150005522 M464.45023867250814,539.3458150005522 L463.16013168614984,541.7644543740955 M463.16013168614984,541.7644543740955 L460.9088444309005,543.9328852175734 M460.9088444309005,543.9328852175734 L457.8270464620897,545.7249222888687 M457.8270464620897,545.7249222888687 L454.0938534236238,547.0362068717236 M454.0938534236238,547.0362068717236 L449.9263589725327,547.79035269937 M449.9263589725327,547.79035269937 L445.5670762722735,547.9434127736549 M445.5670762722735,547.9434127736549 L441.2696906386539,547.4864654419532 M441.2696906386539,547.4864654419532 L437.28428313389327,546.446141497004 M437.28428313389327,546.446141497004 L433.84270903515585,544.8830669463804 M433.84270903515585,544.8830669463804 L431.1450663951683,542.8882643177378 M431.1450663951683,542.8882643177378 L429.3480210577185,540.5778634503096 M429.3480210577185,540.5778634503096 L428.5558005739423,538.086291481223 M428.5558005739423,538.086291481223 L428.814120985856,535.5584236246108 M428.814120985856,535.5584236246108 L430.1076175283941,533.1411399718993 M430.1076175283941,533.1411399718993 L432.3608226872318,530.9748223130296 M432.3608226872318,530.9748223130296 L435.4426275596963,529.1851717989864 M435.4426275596963,529.1851717989864 L439.1739149200316,527.8760004075955 M439.1739149200316,527.8760004075955 L443.33802765756917,527.1232103013162 M443.33802765756917,527.1232103013162 L447.6932273377396,526.9704378938634 M447.6932273377396,526.9704378938634 L451.9867640102659,527.4265389335258 M451.9867640102659,527.4265389335258 L455.9694383689672,528.4650765074869 M455.9694383689672,528.4650765074869 L459.4100212560879,530.0258338629856 M33.45158944635506,342.29932160689543 L33.567735154045806,356.9847510833963 M418.6919985390533,330.3366379327349 L395.8397068984105,323.0942677393905 M395.8397068984105,323.0942677393905 L372.0340297748834,316.97152331890425 M372.0340297748834,316.97152331890425 L347.43669240020006,312.0088482095261 M347.43669240020006,312.0088482095261 L322.2144010520369,308.2389889047446 M322.2144010520369,308.2389889047446 L296.53776567116546,305.6867827182263 M296.53776567116546,305.6867827182263 L270.5802444900386,304.36902166968497 M270.5802444900386,304.36902166968497 L244.51705038020464,304.29438655370893 M244.51705038020464,304.29438655370893 L218.52406273859654,305.4633585752894 M218.52406273859654,305.4633585752894 L192.77673398763923,307.8682594860678 M192.77673398763923,307.8682594860678 L167.44897934246092,311.49325845683694 M167.44897934246092,311.49325845683694 L142.71206119247154,316.31445693339464 M142.71206119247154,316.31445693339464 L118.73361048686547,322.3000788796189 M118.73361048686547,322.3000788796189 L95.67642515857528,329.4105663140394 M95.67642515857528,329.4105663140394 L73.69754663213166,337.5988637089807 M73.69754663213166,337.5988637089807 L52.94719085579544,346.8106733318988 M52.94719085579544,346.8106733318988 L33.567735154045806,356.9847510833963 M43.97565295819396,353.28178926584894 L44.05077036977883,363.0723540640483 M44.05077036977883,363.0723540640483 L33.567735154045806,356.9847510833963 M162.44705696752624,358.15321146460747 L162.422624841523,353.25575339246404 M459.4100212560879,530.0258338629856 L459.4186114671239,525.1092560679197 M408.1162417010984,336.7022085033547 L384.9227777896959,329.58037800254766 M384.9227777896959,329.58037800254766 L360.7443177269496,323.66113270108355 M360.7443177269496,323.66113270108355 L335.76471592478333,318.98833011656393 M335.76471592478333,318.98833011656393 L310.1734740506296,315.59651862951966 M310.1734740506296,315.59651862951966 L284.16441425042956,313.5107670136442 M284.16441425042956,313.5107670136442 L257.9342782508707,312.7464610163679 M257.9342782508707,312.7464610163679 L231.68138870798526,313.3092477853975 M231.68138870798526,313.3092477853975 L205.60419678071696,315.19496652514795 M205.60419678071696,315.19496652514795 L179.89995326936292,318.38970266253824 M179.89995326936292,318.38970266253824 L154.76328680525617,322.8698651758125 M154.76328680525617,322.8698651758125 L130.38481646928687,328.6023132741096 M130.38481646928687,328.6023132741096 L106.94983517570745,335.54460202078593 M106.94983517570745,335.54460202078593 L84.63694924526368,343.64524577753133 M84.63694924526368,343.64524577753133 L63.616791097247074,352.84400619507335 M63.616791097247074,352.84400619507335 L44.05077036977883,363.0723540640483" stroke="black"  stroke-width="4"  fill="red"/>
<path d="M513.2596900465093,416.7218960688468 L525.7682409949085,430.14232769801134 M525.7682409949085,430.14232769801134 L536.2022276646053,444.158569752437 M536.2022276646053,444.158569752437 L544.4775733399667,458.6641555350659 M544.4775733399667,458.6641555350659 L550.526390665272,473.5484766256735 M550.526390665272,473.5484766256735 L554.2975388609557,488.69757321933355 M554.2975388609557,488.69757321933355 L555.7572300863014,503.9949939330483 M555.7572300863014,503.9949939330483 L554.8893602748832,519.3226441889027 M554.8893602748832,519.3226441889027 L551.6958411369053,534.5617240863448 M551.6958411369053,534.5617240863448 L546.1966850553054,549.5936142441026 M546.1966850553054,549.5936142441026 L538.4300141832498,564.3008329560581 M538.4300141832498,564.3008329560581 L528.4519426649717,578.5679865311449 M528.4519426649717,578.5679865311449 L516.3362060240468,592.2826865973076 M516.3362060240468,592.2826865973076 L502.17371377177744,605.3364975094212 M502.17371377177744,605.3364975094212 L486.07201222399885,617.6258406583586 M486.07201222399885,617.6258406583586 L468.1543959773561,629.0528699185668 M468.21197918462207,599.5307058869562 L468.1543959773561,629.0528699185668 M513.3467928663202,387.34039475937396 L525.8637410387435,400.7518549791029 M525.8637410387435,400.7518549791029 L536.3047531551531,414.7587389694796 M536.3047531551531,414.7587389694796 L544.5856937413055,429.2546524942636 M544.5856937413055,429.2546524942636 L550.6386270249492,444.1290620267562 M550.6386270249492,444.1290620267562 L554.4123746235941,459.2680845159519 M554.4123746235941,459.2680845159519 L555.8731224247797,474.55534658541626 M555.8731224247797,474.55534658541626 L555.0047517645028,489.87283232833227 M555.0047517645028,489.87283232833227 L551.8091717797688,505.10182054520203 M551.8091717797688,505.10182054520203 L546.3064044913758,520.1237699992014 M546.3064044913758,520.1237699992014 L538.5345940357628,534.821275951809 M538.5345940357628,534.821275951809 L528.5498889292676,549.0790199003796 M528.5498889292676,549.0790199003796 L516.4260713202273,562.7846863141967 M516.4260713202273,562.7846863141967 L502.2541093962342,575.8299094661228 M502.2541093962342,575.8299094661228 L486.14161992262984,588.111177203869 M486.14161992262984,588.111177203869 L468.21197918462207,599.5307058869562 M513.3467928663202,387.34039475937396 L513.2596900465093,416.7218960688468 M408.1049420661384,356.2585059613915 L401.2107381504687,362.3853906179696 M401.2107381504687,362.3853906179696 L396.2152368012382,369.0998393978855 M396.2152368012382,369.0998393978855 L393.2640064860419,376.2090360237234 M393.2640064860419,376.2090360237234 L392.44408835563354,383.50844167283867 M392.44408835563354,383.50844167283867 L393.78123694232227,390.7876443486813 M393.78123694232227,390.7876443486813 L397.2389615345225,397.83638595133107 M397.2389615345225,397.83638595133107 L402.7193238186072,404.45068652029425 M402.7193238186072,404.45068652029425 L410.0655604618625,410.4387735610714 M410.0655604618625,410.4387735610714 L419.06645331402945,415.62674279453495 M419.06645331402945,415.62674279453495 L429.46233336180785,419.86369657506236 M429.46233336180785,419.86369657506236 L440.9525816423918,423.02624443133 M440.9525816423918,423.02624443133 L453.20436365132673,425.0221923049688 M453.20436365132673,425.0221923049688 L465.86241926947633,425.79331395772226 M465.86241926947633,425.79331395772226 L478.55947253594894,425.31710848826623 M478.55947253594894,425.31710848826623 L490.9271202094417,423.60746965785944 M490.9271202094417,423.60746965785944 L502.60666203787764,420.71428145811524 M502.60666203787764,420.71428145811524 L513.2596900465093,416.7218960688468 M44.20090525847638,382.6404585188083 L63.75818340159367,372.407534334124 M63.75818340159367,372.407534334124 L84.7689689866977,363.20465464337457 M84.7689689866977,363.20465464337457 L107.07192374509236,355.1003805270956 M107.07192374509236,355.1003805270956 L130.4964902641343,348.15497843588804 M130.4964902641343,348.15497843588804 L154.86414034723214,342.4199580913259 M154.86414034723214,342.4199580913259 L179.98966179786146,337.93778432912114 M179.98966179786146,337.93778432912114 L205.68251830050087,334.7416135051793 M205.68251830050087,334.7416135051793 L231.74816551895637,332.85504773658744 M231.74816551895637,332.85504773658744 L257.9894379357091,332.2920081466511 M257.9894379357091,332.2920081466511 L284.2079701093899,333.05665749027924 M284.2079701093899,333.05665749027924 L310.20552502682807,335.1433459605316 M310.20552502682807,335.1433459605316 L335.78544596538177,338.53668056784693 M335.78544596538177,338.53668056784693 L360.7539946280108,343.21158075068575 M360.7539946280108,343.21158075068575 L384.92175149256525,349.13348190589005 M384.92175149256525,349.13348190589005 L408.1049420661384,356.2585059613915 M149.3055505395327,443.7299168202493 L44.20090525847638,382.6404585188083 M149.3055505395327,443.7299168202493 L163.5042541749335,436.53749072871204 M163.5042541749335,436.53749072871204 L179.132390731544,430.4279678652692 M179.132390731544,430.4279678652692 L195.94479917574031,425.49582339695723 M195.94479917574031,425.49582339695723 L213.67839649527497,421.81721488813855 M213.67839649527497,421.81721488813855 L232.0561987267336,419.4488859040302 M232.0561987267336,419.4488859040302 L250.7915317606758,418.42733234918586 M250.7915317606758,418.42733234918586 L269.5923359948239,418.7682927682944 M269.5923359948239,418.7682927682944 L288.1655690583948,420.4665046992328 M288.1655690583948,420.4665046992328 L306.2216203189548,423.49581264724327 M306.2216203189548,423.49581264724327 L323.47866436207767,427.8095175637097 M323.47866436207767,427.8095175637097 L339.66692119229,433.34104784819885 M339.66692119229,433.34104784819885 L354.5327665274089,440.00492753152145 M354.5327665274089,440.00492753152145 L367.8426276621078,447.698011647901 M367.8426276621078,447.698011647901 L379.38660687648826,456.30098946971344 M379.38660687648826,456.30098946971344 L388.98179466955423,465.68014328733966 M388.98179466955423,465.68014328733966 L396.47520242449673,475.689332096474 M396.47520242449673,475.689332096474 L401.74627203102796,486.17218566735033 M401.74627203102796,486.17218566735033 L404.7089401388203,496.96447958588465 M404.7089401388203,496.96447958588465 L405.31318033535393,507.8966545264277 M405.31318033535393,507.8966545264277 L403.5459565578382,518.7964439684483 M403.5459565578382,518.7964439684483 L399.43170460774286,529.4915857702063 M399.43170460774286,529.4915857702063 L393.03213102264453,539.8125657837606 M393.03213102264453,539.8125657837606 L384.4454633982362,549.5953318558315 M384.4454633982362,549.5953318558315 L373.8050420262327,558.6839669632298 M373.8050420262327,558.6839669632298 L361.27735611474304,566.9332513935299 M468.1543959773561,629.0528699185668 L361.27735611474304,566.9332513935299 M162.5935359345356,387.51515071150266 L159.20270640411275,385.9775131609299 M159.20270640411275,385.9775131609299 L155.26740468657587,384.95435863490326 M155.26740468657587,384.95435863490326 L151.01611253410553,384.50501320878857 M151.01611253410553,384.50501320878857 L146.69558056734854,384.6555228206655 M146.69558056734854,384.6555228206655 L142.55654960842253,385.39716268569094 M142.55654960842253,385.39716268569094 L138.83930358502312,386.68694176673984 M138.83930358502312,386.68694176673984 L135.75968415363945,388.4500807157642 M135.75968415363945,388.4500807157642 L133.49667882831858,390.58430371376613 M133.49667882831858,390.58430371376613 L132.1819607371749,392.9657704099723 M132.1819607371749,392.9657704099723 L131.89222447304144,395.4561780904316 M131.89222447304144,395.4561780904316 L132.64465428825122,397.9108230552168 M132.64465428825122,397.9108230552168 L134.39584211798694,400.1869778499095 M134.39584211798694,400.1869778499095 L137.04422380424506,402.1522091596059 M137.04422380424506,402.1522091596059 L140.43599735432946,403.69211032058297 M140.43599735432946,403.69211032058297 L144.37396277773894,404.7170099080874 M144.37396277773894,404.7170099080874 L148.62902811084905,405.16718205588813 M148.62902811084905,405.16718205588813 L152.95357833751905,405.0163914294237 M152.95357833751905,405.0163914294237 L157.09595210575006,404.2734271938466 M157.09595210575006,404.2734271938466 L160.81509967170925,402.981583788508 M160.81509967170925,402.981583788508 L163.89474377962264,401.2161134709363 M163.89474377962264,401.2161134709363 L166.15589126255242,399.0798261553349 M166.15589126255242,399.0798261553349 L167.46729458096945,396.6970350890919 M167.46729458096945,396.6970350890919 L167.7530185349782,394.20634639379176 M167.7530185349782,394.20634639379176 L166.99679803856026,391.75252814376853 M166.99679803856026,391.75252814376853 L165.24290956083172,389.47811840290353 M165.24290956083172,389.47811840290353 L162.5935359345356,387.51515071150266 M459.35852031048654,559.5022232677811 L455.9202479424935,557.9404346628903 M455.9202479424935,557.9404346628903 L451.9402461236991,556.9012108073632 M451.9402461236991,556.9012108073632 L447.6495890041801,556.4448083484627 M447.6495890041801,556.4448083484627 L443.29730897958007,556.5976817185962 M443.29730897958007,556.5976817185962 L439.13598679432323,557.3509693005011 M439.13598679432323,557.3509693005011 L435.4071990770523,558.6610057660074 M435.4071990770523,558.6610057660074 L432.3274579057517,560.4518386769338 M432.3274579057517,560.4518386769338 L430.07576056155386,562.6195873314924 M430.07576056155386,562.6195873314924 L428.7831281007147,565.0384674235013 M428.7831281007147,565.0384674235013 L428.52497742883935,567.5680043731336 M428.52497742883935,567.5680043731336 L429.3166629760859,570.0612210906635 M429.3166629760859,570.0612210906635 L431.112499350695,572.3731467745725 M431.112499350695,572.3731467745725 L433.80832896493496,574.369265671007 M433.80832896493496,574.369265671007 L437.2475912107596,575.9333714456025 M437.2475912107596,575.9333714456025 L441.23032250677966,576.9743816525207 M441.23032250677966,576.9743816525207 L445.52482342397997,577.4316303941763 M445.52482342397997,577.4316303941763 L449.8811809935616,577.2784693603666 M449.8811809935616,577.2784693603666 L454.0458803598442,576.5238260719674 M454.0458803598442,576.5238260719674 L457.77657120367024,575.2116764381793 M457.77657120367024,575.2116764381793 L460.8563054852004,573.4184569961817 M460.8563054852004,573.4184569961817 L463.1060875019703,571.2485951801965 M463.1060875019703,571.2485951801965 L464.39533495492844,568.8283593822279 M464.39533495492844,568.8283593822279 L464.64940642186565,566.298534768662 M464.64940642186565,566.298534768662 L463.8538819636048,563.806164326794 M463.8538819636048,563.806164326794 L462.0553264251439,561.4960249864367 M462.0553264251439,561.4960249864367 L459.35852031048654,559.5022232677811 M361.2630406958363,537.4519573014695 L361.27735611474304,566.9332513935299 M468.21197918462207,599.5307058869562 L361.2630406958363,537.4519573014695 M513.3467928663202,387.34039475937396 L502.6866773853733,391.33011014424454 M502.6866773853733,391.33011014424454 L490.9993573105117,394.22136405720966 M490.9993573105117,394.22136405720966 L478.6234669617696,395.9298601196547 M478.6234669617696,395.9298601196547 L465.91794692085426,396.4057473122396 M465.91794692085426,396.4057473122396 L453.2514475028516,395.6351410535336 M453.2514475028516,395.6351410535336 L440.99149106066784,393.640527377341 M440.99149106066784,393.640527377341 L429.49357595898147,390.4800940295531 M429.49357595898147,390.4800940295531 L419.09075968060426,386.2459740639475 M419.09075968060426,386.2459740639475 L410.0838622383979,381.06147619577723 M410.0838622383979,381.06147619577723 L402.7327258721441,375.07739791909665 M402.7327258721441,375.07739791909665 L397.2487091323665,368.46752785960183 M397.2487091323665,368.46752785960183 L393.7886789911122,361.42351068607684 M393.7886789911122,361.42351068607684 L392.45063785603946,354.149190062555 M392.45063785603946,354.149190062555 L393.2710994133651,346.854683236056 M393.2710994133651,346.854683236056 L396.2242906523461,339.7502608785348 M396.2242906523461,339.7502608785348 L401.22311132776747,333.0403240781417 M401.22311132776747,333.0403240781417 L408.1218952747566,326.91755895040063 M43.97565295819396,353.28178926584894 L63.546047909428864,343.055734111075 M63.546047909428864,343.055734111075 L84.57089547519274,333.85903742782824 M84.57089547519274,333.85903742782824 L106.88875030897748,325.76021245936215 M106.88875030897748,325.76021245936215 L130.32894246343142,318.81948347745436 M130.32894246343142,318.81948347745436 L154.71282653009555,313.08832405585207 M154.71282653009555,313.08832405585207 L179.85506920947608,308.60916916276096 M179.85506920947608,308.60916916276096 L205.565010011042,305.41515179176037 M205.565010011042,305.41515179176037 L231.64797812850634,303.52985740643413 M231.64797812850634,303.52985740643413 L257.9066800925265,302.9671972985541 M257.9066800925265,302.9671972985541 L284.142621857602,303.7313312821906 M284.142621857602,303.7313312821906 L310.1574379185309,305.8166135417683 M310.1574379185309,305.8166135417683 L335.75434401905574,309.2076619577743 M335.75434401905574,309.2076619577743 L360.7394760615763,313.879413661603 M360.7394760615763,313.879413661603 L384.9232912793079,319.79732839942346 M384.9232912793079,319.79732839942346 L408.1218952747566,326.91755895040063 M149.14982728187795,414.33037205482856 L43.97565295819396,353.28178926584894 M149.14982728187795,414.33037205482856 L163.35805605785112,407.1427467494589 M163.35805605785112,407.1427467494589 L178.99665838673639,401.03730431756344 M178.99665838673639,401.03730431756344 L195.82030994061427,396.1084555807714 M195.82030994061427,396.1084555807714 L213.56575315792685,392.4323061309045 M213.56575315792685,392.4323061309045 L231.95582085159037,390.06556074964556 M231.95582085159037,390.06556074964556 L250.70364968701568,389.04469036987206 M250.70364968701568,389.04469036987206 L269.5169875451151,389.38542276096234 M269.5169875451151,389.38542276096234 L288.10259900690056,391.08249906399 M288.10259900690056,391.08249906399 L306.1706826244136,394.1097816872567 M306.1706826244136,394.1097816872567 L323.4392271315014,398.4206035196871 M323.4392271315014,398.4206035196871 L339.63827433197696,403.9484384292079 M339.63827433197696,403.9484384292079 L354.5140320093775,410.60786872360694 M354.5140320093775,410.60786872360694 L367.83277229921003,418.29581960673255 M367.83277229921003,418.29581960673255 L379.38445746656316,426.8930613087737 M379.38445746656316,426.8930613087737 L388.986055347113,436.2659665878164 M388.986055347113,436.2659665878164 L396.48447401194903,446.26849299219555 M396.48447401194903,446.26849299219555 L401.75907315071714,456.7443753744353 M401.75907315071714,456.7443753744353 L404.7237298271092,467.5294992725419 M404.7237298271092,467.5294992725419 L405.32838184110744,478.4544184480798 M405.32838184110744,478.4544184480798 L403.5599819532673,489.3469808212163 M403.5599819532673,489.3469808212163 L399.44297990659646,500.03503823472255 M399.44297990659646,500.03503823472255 L393.03912134761947,510.34918826660146 M393.03912134761947,510.34918826660146 L384.44669781706017,520.1254864758421 M384.44669781706017,520.1254864758421 L373.79913759065465,529.2081178348567 M373.79913759065465,529.2081178348567 L361.2630406958363,537.4519573014695 M162.44705696752624,358.15321146460747 L165.09818156123058,360.11486278317625 M165.09818156123058,360.11486278317625 L166.85322298497852,362.38774758877094 M166.85322298497852,362.38774758877094 L167.6099310778629,364.8399209656924 M167.6099310778629,364.8399209656924 L167.32400059896167,367.32894044514677 M167.32400059896167,367.32894044514677 L166.01170818169408,369.71013495807244 M166.01170818169408,369.71013495807244 L163.74904032318358,371.84499117865016 M163.74904032318358,371.84499117865016 L160.66733270855568,373.60927901930353 M160.66733270855568,373.60927901930353 L156.94569844111868,374.90025729313993 M156.94569844111868,374.90025729313993 L152.80055949342625,375.6427240205373 M152.80055949342625,375.6427240205373 L148.47312670950618,375.793413677754 M148.47312670950618,375.793413677754 L144.21522941721088,375.34354296883674 M144.21522941721088,375.34354296883674 L140.27464764783593,374.3193297080747 M140.27464764783593,374.3193297080747 L136.8806257225806,372.7804598655429 M136.8806257225806,372.7804598655429 L134.23049440659895,370.8165449392394 M134.23049440659895,370.8165449392394 L132.47815724162683,368.54191508795884 M132.47815724162683,368.54191508795884 L131.72524488666028,366.08891500013266 M131.72524488666028,366.08891500013266 L132.0151930198847,363.600176534208 M132.0151930198847,363.600176534208 L133.3308046172827,361.2203063851399 M133.3308046172827,361.2203063851399 L135.59533277908582,359.0875144725307 M135.59533277908582,359.0875144725307 L138.67701566784757,357.3255579895478 M138.67701566784757,357.3255579895478 L142.39674584445254,356.0366440303705 M142.39674584445254,356.0366440303705 L146.5385375193814,355.29550166734634 M146.5385375193814,355.29550166734634 L150.86194668729382,355.14509302340605 M150.86194668729382,355.14509302340605 L155.11606577722884,355.59413701449404 M155.11606577722884,355.59413701449404 L159.0539803038077,356.61660522191954 M159.0539803038077,356.61660522191954 L162.44705696752624,358.15321146460747 M459.4100212560879,530.0258338629856 L462.1086417033229,532.0183192884294 M462.1086417033229,532.0183192884294 L463.9084098526771,534.3269337927095 M463.9084098526771,534.3269337927095 L464.70447440103237,536.8176594768506 M464.70447440103237,536.8176594768506 L464.45023867250814,539.3458150005522 M464.45023867250814,539.3458150005522 L463.16013168614984,541.7644543740955 M463.16013168614984,541.7644543740955 L460.9088444309005,543.9328852175734 M460.9088444309005,543.9328852175734 L457.8270464620897,545.7249222888687 M457.8270464620897,545.7249222888687 L454.0938534236238,547.0362068717236 M454.0938534236238,547.0362068717236 L449.9263589725327,547.79035269937 M449.9263589725327,547.79035269937 L445.5670762722735,547.9434127736549 M445.5670762722735,547.9434127736549 L441.2696906386539,547.4864654419532 M441.2696906386539,547.4864654419532 L437.28428313389327,546.446141497004 M437.28428313389327,546.446141497004 L433.84270903515585,544.8830669463804 M433.84270903515585,544.8830669463804 L431.1450663951683,542.8882643177378 M431.1450663951683,542.8882643177378 L429.3480210577185,540.5778634503096 M429.3480210577185,540.5778634503096 L428.5558005739423,538.086291481223 M428.5558005739423,538.086291481223 L428.814120985856,535.5584236246108 M428.814120985856,535.5584236246108 L430.1076175283941,533.1411399718993 M430.1076175283941,533.1411399718993 L432.3608226872318,530.9748223130296 M432.3608226872318,530.9748223130296 L435.4426275596963,529.1851717989864 M435.4426275596963,529.1851717989864 L439.1739149200316,527.8760004075955 M439.1739149200316,527.8760004075955 L443.33802765756917,527.1232103013162 M443.33802765756917,527.1232103013162 L447.6932273377396,526.9704378938634 M447.6932273377396,526.9704378938634 L451.9867640102659,527.4265389335258 M451.9867640102659,527.4265389335258 L455.9694383689672,528.4650765074869 M455.9694383689672,528.4650765074869 L459.4100212560879,530.0258338629856 M408.1218952747566,326.91755895040063 L408.1049420661384,356.2585059613915 M43.97565295819396,353.28178926584894 L44.20090525847638,382.6404585188083 M149.14982728187795,414.33037205482856 L149.3055505395327,443.7299168202493 M162.5935359345356,387.51515071150266 L162.44705696752624,358.15321146460747 M459.35852031048654,559.5022232677811 L459.4100212560879,530.0258338629856" stroke="black"  stroke-width="4"  fill="red"/></svg>