<svg version="1.1" xmlns="http://www.w3.org/2000/svg" viewBox="-48.55200543830938 -23.336590400426882 126.61445467732206 52.931544954653454" fill="none" stroke="black" stroke-width="0.6%" vector-effect="non-scaling-stroke">
    <path d="M -4.01758 28.03753 L -4.01758 8.38318 L -0.02606 8.94061 L 7.20099 7.16729 L 3.20947 6.60986 L -4.01758 8.38318" />
    <path d="M -0.02606 28.59495 L -0.02606 8.94061" />
    <path d="M -4.01758 28.03753 L -0.02606 28.59495 L 7.20099 26.82163 L 7.20099 7.16729" />
    <path d="M 65.31579 11.17864 A 50.5 9.34825 180 0 0 7.20099 11.24741" />
    <path d="M -4.01758 13.28428 A 50.5 9.34825 180 0 0 -12.84881 16.89307" />
    <path d="M 66.24303 10.95112 L 65.31579 11.17864" />
    <path d="M 66.24303 10.95112 L 69.8354 11.4528 L 69.8354 -8.20154 L 77.06245 -9.97487 L 73.07093 -10.53229 L 65.84388 -8.75897 L 69.8354 -8.20154" />
    <path d="M 69.8354 11.4528 L 77.06245 9.67948 L 77.06245 -9.97487" />
    <path d="M -27.47757 18.8585 A 64 11.84728 180 0 0 -4.01758 28.02585" />
    <path d="M -4.01758 20.50185 A 50.5 9.34825 360 0 1 -13.97757 14.92763 A 50.5 9.34825 360 0 1 -4.01758 9.35341" />
    <path d="M 7.20099 7.31655 A 50.5 9.34825 360 0 1 65.31579 7.24777 L 65.31579 11.17864" />
    <path d="M 66.24303 7.02025 L 65.31579 7.24777" />
    <path d="M 65.84388 6.96451 L 66.24303 7.02025" />
    <path d="M -1.77075 5.43501 A 64 11.84728 360 0 1 65.84388 4.39687" />
    <path d="M -4.01758 9.1982 A 12 2.22137 360 0 1 -20.88964 9.6923" />
    <path d="M -4.01758 24.09498 A 64 11.84728 360 0 1 -27.47757 14.92763 L -27.47757 18.8585" />
    <path d="M -27.47757 14.92763 A 64 11.84728 360 0 1 -20.88964 9.6923" />
    <path d="M 66.24303 10.95112 L 66.24303 7.02025" />
    <path d="M 65.84388 6.96451 L 65.84388 -8.75897" />
    <path d="M -4.75419 1.52465 A 12 2.22137 360 0 1 -1.77075 2.99046 L -1.77075 7.83187" />
    <path d="M -1.77075 2.99046 A 12 2.22137 360 0 1 -21.77097 4.64613 L -20.56141 4.34934 A 10 1.85114 180 0 0 -3.86168 2.74139" />
    <path d="M -21.77097 4.64613 L -21.77097 10.03741" />
    <path d="M -23.60287 10.86799 L -23.60287 -14.55871 L -5.53525 -18.99202 L -29.48439 -22.33659 L -47.552 -17.90327 L -23.60287 -14.55871" />
    <path d="M -5.53525 0.45983 L -5.53525 -18.99202" />
    <path d="M -16.07469 -7.56147 L -13.06342 -8.30036" />
    <path d="M -16.07469 -7.56147 L -16.07469 -3.6306 L -15.67554 -3.57486 L -12.66427 -4.31374 L -12.66427 -8.24461 L -13.06342 -8.30036" />
    <path d="M -17.51949 -3.27609 L -16.07469 -3.6306" />
    <path d="M -17.51949 -3.27609 L -17.67398 -2.89203 L -17.83626 -2.48797 L -18.00672 -2.06287 L -18.1858 -1.61567 L -18.37394 -1.14526 L -18.57162 -0.65046 L -18.77933 -0.13002 L -18.99759 0.41736 L -19.22695 0.99305 L -19.46799 1.59849 L -19.7213 2.2352 L -19.98752 2.90478 L -20.26733 3.60891 L -20.56141 4.34934" />
    <path d="M -12.66427 -4.46743 L -11.61863 -4.724 A 5 0.92557 360 0 1 -8.81622 -4.01309 L -3.86168 2.74139" />
    <path d="M -47.552 11.57824 L -47.552 -17.90327" />
    <path d="M -47.552 11.57824 L -27.41185 14.39087" />
    <path d="M -15.67554 -7.50573 L -12.66427 -8.24461" />
    <path d="M -16.07469 -7.56147 L -15.67554 -7.50573" />
    <path d="M -15.67554 -3.57486 L -15.67554 -7.50573" />
    <path d="M -8.81622 -4.01309 A 5 0.92557 360 0 1 -17.51949 -3.27609" />
</svg>