<svg version="1.1" xmlns="http://www.w3.org/2000/svg" viewBox="-36.670671379306704 -16.841676002570395 97.09027009774323 37.84547803689675" fill="none" stroke="black" stroke-width="0.6%" vector-effect="non-scaling-stroke">
    <path d="M -27.72134 -7.58253 L -27.27869 -7.55001 L -27.27869 -9.53036 L -24.95351 -10.14938 L -25.62867 -11.11016 L -28.28455 -11.30526 L -30.14469 -10.81005 L -27.48882 -10.61495 L -25.62867 -11.11016" />
    <path d="M -30.81986 -9.79049 L -27.27869 -9.53036 L -27.48882 -10.61495" />
    <path d="M -30.81986 -6.75763 L -30.81986 -9.79049 L -30.14469 -10.81005" />
    <path d="M -35.67067 11.9828 A 64 8.95011 180 0 0 -2.76094 19.80589" />
    <path d="M -2.76094 19.8087 L -0.10506 20.0038 L 6.40545 18.27055 L 6.40545 -1.53292 L 3.74957 -1.72802 L -2.76094 0.00523 L -0.10506 0.20033 L 6.40545 -1.53292" />
    <path d="M -18.58775 9.37013 A 50.5 7.06219 180 0 0 -20.14455 10.00245" />
    <path d="M -18.58775 9.37013 A 12 1.67815 180 0 0 -13.67823 8.06309" />
    <path d="M 50.25321 5.62084 A 50.5 7.06219 180 0 0 6.40545 5.62084" />
    <path d="M -2.76094 6.41764 A 50.5 7.06219 180 0 0 -13.67823 8.06309" />
    <path d="M 50.25321 5.69505 L 52.90909 5.89015 L 59.4196 4.15689 L 59.4196 -15.64658 L 56.76372 -15.84168 L 50.25321 -14.10842 L 52.90909 -13.91332 L 59.4196 -15.64658" />
    <path d="M -2.76094 15.8452 A 64 8.95011 0 0 1 -35.67067 8.0221 A 64 8.95011 0 0 1 -32.11977 5.08233" />
    <path d="M -2.76094 13.58726 A 50.5 7.06219 0 0 1 -22.17067 8.0221 A 50.5 7.06219 0 0 1 -18.58775 5.40943 L -18.58775 9.37013" />
    <path d="M -18.58775 5.40943 A 12 1.67815 0 0 1 -32.11977 5.47052" />
    <path d="M -31.1858 -6.6602 L -31.24701 -6.38452 L -31.30903 -6.10518 L -31.37186 -5.82216 L -31.43551 -5.53539 L -31.5 -5.24484 L -31.56533 -4.95044 L -31.63152 -4.65216 L -31.69857 -4.34993 L -31.7665 -4.04371 L -31.83533 -3.73345 L -31.90506 -3.41908 L -31.9757 -3.10057 L -32.04727 -2.77785 L -32.11977 -2.45086 A 12 1.67815 180 0 0 -13.67345 -3.86631 L -13.67345 4.05508 A 12 1.67815 0 0 1 -13.67823 4.1024 A 50.5 7.06219 0 0 1 -2.76094 2.45695" />
    <path d="M -32.11977 -2.45086 L -32.11977 5.47052" />
    <path d="M -31.1858 -6.6602 L -27.72134 -7.58253" />
    <path d="M -21.93169 -9.12387 A 10 1.39845 0 0 1 -15.69842 -7.92576 A 10 1.39845 0 0 1 -31.1858 -6.6602" />
    <path d="M -24.95351 -8.31939 L -21.93169 -9.12387" />
    <path d="M -27.27869 -7.55001 L -24.95351 -8.16903 L -24.95351 -10.14938" />
    <path d="M -2.76094 19.8087 L -2.76094 0.00523" />
    <path d="M -13.67345 -3.86631 A 12 1.67815 180 0 0 -13.70341 -3.98482" />
    <path d="M -13.67823 4.1024 L -13.67823 8.06309" />
    <path d="M 6.40545 1.66015 A 50.5 7.06219 0 0 1 50.25321 1.66015" />
    <path d="M -13.67345 1.2692 A 64 8.95011 0 0 1 -2.76094 0.19901" />
    <path d="M 6.40545 -0.38648 A 64 8.95011 0 0 1 50.25321 -0.38648" />
    <path d="M 37.52844 0.00977 A 3.5 0.48946 0 0 1 44.12696 0.23739 A 3.5 0.48946 0 0 1 37.12696 0.23739 A 3.5 0.48946 0 0 1 37.52844 0.00977 Z" />
    <path d="M -0.10506 20.0038 L -0.10506 0.20033" />
    <path d="M 50.25321 5.69505 L 50.25321 -14.10842" />
    <path d="M 52.90909 5.89015 L 52.90909 -13.91332" />
    <path d="M -35.67067 8.0221 L -35.67067 11.9828" />
    <path d="M -15.69842 -7.92576 L -13.70341 -3.98482" />
</svg>