<svg version="1.1" xmlns="http://www.w3.org/2000/svg" viewBox="-47.59881483026606 -23.11876793529563 124.10069207834056 52.612944050799776" fill="none" stroke="black" stroke-width="0.6%" vector-effect="non-scaling-stroke">
    <path d="M -0.71823 5.1123 A 64 11.90133 0 0 1 64.82134 4.11275" />
    <path d="M 64.82134 10.88895 L 64.68914 10.9226 A 50.5 9.39089 180 0 0 8.25802 10.93916" />
    <path d="M 64.68914 6.99237 L 64.68914 10.9226" />
    <path d="M 64.82134 6.95872 L 64.68914 6.99237" />
    <path d="M 8.25802 7.00893 A 50.5 9.39089 0 0 1 64.68914 6.99237" />
    <path d="M -4.67786 -18.82809 L -28.90306 -22.11877 L -46.59881 -17.61389 L -22.37361 -14.32322 L -4.67786 -18.82809 Z" />
    <path d="M -4.67786 -4.79839 L -4.67786 -18.82809" />
    <path d="M -7.12967 14.00294 A 50.5 9.39089 180 0 0 -12.84228 16.75412" />
    <path d="M -2.42252 28.00748 L -2.80784 28.10557" />
    <path d="M -27.46032 18.71924 A 64 11.90133 180 0 0 -2.80784 28.10557" />
    <path d="M -7.12967 14.00294 A 12 2.2315 180 0 0 -2.42252 13.1745" />
    <path d="M -20.57942 1.92351 L -20.57942 9.78397 L -22.37361 10.24072 L -22.54913 10.21688" />
    <path d="M -19.39475 -2.30831 L -19.4724 -2.03115 L -19.55106 -1.75032 L -19.63075 -1.46578 L -19.71149 -1.17749 L -19.79329 -0.88538 L -19.87615 -0.58941 L -19.96011 -0.28953 L -20.04516 0.01431 L -20.13133 0.32216 L -20.21863 0.63408 L -20.30707 0.95012 L -20.39667 1.27034 L -20.48745 1.59478 L -20.57942 1.92351" />
    <path d="M -19.39475 -2.30831 L -15.00038 -3.427 L -14.59663 -3.37216 L -14.59663 -5.33727 L -11.64734 -6.08808 L -12.34602 -7.05041" />
    <path d="M -15.00038 -5.39212 L -15.00038 -3.427" />
    <path d="M -15.00038 -5.39212 C -14.99 -5.44 -14.97 -5.49 -14.96115 -5.5328 C -14.95 -5.58 -14.94 -5.63 -14.9221 -5.67284 C -14.91 -5.72 -14.9 -5.77 -14.88326 -5.81212 C -14.87 -5.86 -14.86 -5.9 -14.84467 -5.95053 C -14.84 -5.97 -14.83 -5.99 -14.827 -6.01388 C -14.82 -6.03 -14.82 -6.06 -14.8094 -6.07701 C -14.8 -6.1 -14.8 -6.12 -14.79186 -6.13988 C -14.79 -6.16 -14.78 -6.18 -14.77441 -6.20249 C -14.77 -6.22 -14.76 -6.24 -14.75703 -6.2648 C -14.75 -6.29 -14.75 -6.31 -14.73974 -6.32679 C -14.73 -6.35 -14.73 -6.37 -14.72255 -6.38846 C -14.72 -6.41 -14.71 -6.43 -14.70545 -6.44975 L -12.34602 -7.05041" />
    <path d="M -11.64734 -4.2806 L -7.65672 -5.29651 A 10 1.85958 0 0 1 -2.7631 -3.86869 L -0.77208 0.02635 A 12 2.2315 0 0 1 -0.71823 0.23751 A 12 2.2315 0 0 1 -20.57942 1.92351" />
    <path d="M -22.37361 10.24072 L -22.37361 -14.32322" />
    <path d="M -7.12967 10.07271 L -7.12967 14.00294" />
    <path d="M -7.12967 10.07271 A 12 2.2315 0 0 1 -20.57942 9.78397" />
    <path d="M -46.59881 11.86284 L -27.43671 14.46576" />
    <path d="M -46.59881 11.86284 L -46.59881 -17.61389" />
    <path d="M -2.42252 20.76344 A 50.5 9.39089 0 0 1 -13.96032 14.78901 A 50.5 9.39089 0 0 1 -7.12967 10.07271" />
    <path d="M -2.80784 24.17534 A 64 11.90133 0 0 1 -27.46032 14.78901 L -27.46032 18.71924" />
    <path d="M -27.46032 14.78901 A 64 11.90133 0 0 1 -22.54913 10.21688" />
    <path d="M -2.80784 24.17534 L -2.80784 28.10557" />
    <path d="M -2.42252 24.07725 L -2.80784 24.17534" />
    <path d="M -2.7631 -3.86869 A 10 1.85958 0 0 1 -19.39475 -2.30831" />
    <path d="M -14.59663 -3.37216 L -11.64734 -4.12297 L -11.64734 -6.08808" />
    <path d="M -15.00038 -5.39212 L -14.59663 -5.33727 L -14.70545 -6.44975" />
    <path d="M -2.42252 28.16511 L -2.42252 8.51396 L 0 8.84302 L 8.25802 6.74075 L 5.8355 6.41168 L -2.42252 8.51396" />
    <path d="M 0 28.49418 L 0 8.84302" />
    <path d="M -2.42252 28.16511 L 0 28.49418 L 8.25802 26.3919 L 8.25802 6.74075" />
    <path d="M 64.82134 11.04658 L 64.82134 -8.60458 L 67.24386 -8.27551 L 75.50188 -10.37779 L 73.07936 -10.70685 L 64.82134 -8.60458" />
    <path d="M 67.24386 11.37564 L 67.24386 -8.27551" />
    <path d="M 64.82134 11.04658 L 67.24386 11.37564 L 75.50188 9.27337 L 75.50188 -10.37779" />
    <path d="M -0.71823 0.23751 L -0.71823 8.08009" />
</svg>