<svg version="1.1" xmlns="http://www.w3.org/2000/svg" viewBox="-48.555536609725394 -23.30730440413091 126.61342889101289 52.84513162748743" fill="none" stroke="black" stroke-width="0.6%" vector-effect="non-scaling-stroke">
    <path d="M -4.00163 27.98277 L -4.00163 8.32566 L -0.00949 8.88071 L 7.21558 7.11417 L 3.22343 6.55912 L -4.00163 8.32566" />
    <path d="M -0.00949 28.53783 L -0.00949 8.88071" />
    <path d="M -4.00163 27.98277 L -0.00949 28.53783 L 7.21558 26.77128 L 7.21558 7.11417" />
    <path d="M 65.31291 11.18836 A 50.5 9.31103 180 0 0 7.21558 11.25679" />
    <path d="M -4.00163 13.28417 A 50.5 9.31103 180 0 0 -12.83365 16.87303" />
    <path d="M 66.23989 10.96171 L 65.31291 11.18836" />
    <path d="M 66.23989 10.96171 L 69.83282 11.46126 L 69.83282 -8.19586 L 77.05789 -9.9624 L 73.06575 -10.51745 L 65.84068 -8.75091 L 69.83282 -8.19586" />
    <path d="M 69.83282 11.46126 L 77.05789 9.69472 L 77.05789 -9.9624" />
    <path d="M -27.47187 18.83874 A 64 11.80012 180 0 0 -4.00163 27.97114" />
    <path d="M -4.00163 20.46189 A 50.5 9.31103 360 0 1 -13.97187 14.90732 A 50.5 9.31103 360 0 1 -4.00163 9.35275" />
    <path d="M 7.21558 7.32536 A 50.5 9.31103 360 0 1 65.31291 7.25693 L 65.31291 11.18836" />
    <path d="M 66.23989 7.03028 L 65.31291 7.25693" />
    <path d="M 65.84068 6.97478 L 66.23989 7.03028" />
    <path d="M -1.7729 5.45357 A 64 11.80012 0 0 1 65.84068 4.41763" />
    <path d="M -4.00163 9.19794 A 12 2.21252 0 0 1 -20.88979 9.69502" />
    <path d="M -4.00163 24.03972 A 64 11.80012 0 0 1 -27.47187 14.90732 L -27.47187 18.83874" />
    <path d="M -27.47187 14.90732 A 64 11.80012 0 0 1 -20.88979 9.69502" />
    <path d="M 66.23989 10.96171 L 66.23989 7.03028" />
    <path d="M 65.84068 6.97478 L 65.84068 -8.75091" />
    <path d="M -5.19478 -4.44498 A 12 2.21252 0 0 1 -1.7729 -2.8978 L -1.7729 7.78073" />
    <path d="M -1.7729 -2.8978 A 12 2.21252 0 0 1 -21.77127 -1.24841 L -20.56204 -1.54407 A 10 1.84377 180 0 0 -3.95043 -3.24368" />
    <path d="M -21.77127 -1.24841 L -21.77127 10.039" />
    <path d="M -23.60266 10.86662 L -23.60266 -14.56061 L -5.54 -18.97697 L -29.49287 -22.3073 L -47.55554 -17.89095 L -23.60266 -14.56061" />
    <path d="M -5.54 -4.77825 L -5.54 -18.97697" />
    <path d="M -16.07655 -12.46934 L -13.06611 -13.2054" />
    <path d="M -16.07655 -12.46934 L -16.07655 -7.55506 L -15.67734 -7.49955 L -12.66689 -8.23561 L -12.66689 -13.14989 L -13.06611 -13.2054" />
    <path d="M -17.52095 -7.2019 L -16.07655 -7.55506" />
    <path d="M -17.52095 -7.2019 L -17.6754 -6.91686 L -17.83763 -6.61698 L -18.00805 -6.3015 L -18.18708 -5.96965 L -18.37517 -5.62059 L -18.5728 -5.25344 L -18.78045 -4.86728 L -18.99865 -4.46115 L -19.22795 -4.03403 L -19.46892 -3.58485 L -19.72216 -3.11247 L -19.98831 -2.61573 L -20.26804 -2.09336 L -20.56204 -1.54407" />
    <path d="M -12.66689 -8.38873 L -11.62171 -8.64428 A 5 0.92188 0 0 1 -8.86167 -7.98502 L -3.95043 -3.24368" />
    <path d="M -47.55554 11.59472 L -47.55554 -17.89095" />
    <path d="M -47.55554 11.59472 L -27.41163 14.39547" />
    <path d="M -15.67734 -12.41383 L -12.66689 -13.14989" />
    <path d="M -16.07655 -12.46934 L -15.67734 -12.41383" />
    <path d="M -15.67734 -7.49955 L -15.67734 -12.41383" />
    <path d="M -8.86167 -7.98502 A 5 0.92188 0 0 1 -17.52095 -7.2019" />
</svg>