<svg viewBox="0 0 800 800" xmlns="http://www.w3.org/2000/svg"><path d="M647.7167223586562,261.4155894231609 L641.2431633423394,265.15019480221997 M641.3573341145914,245.62837783979083 L641.2431633423394,265.15019480221997 M633.1955726699815,250.332719348286 L641.3573341145914,245.62837783979083 M633.5279393502191,191.65730822229563 L633.1955726699815,250.332719348286 M633.5279393502191,191.65730822229563 L631.4330939641086,192.86151978118593 M631.4330939641086,192.86151978118593 L631.4881140082394,183.06687381551055 M648.244074773682,173.43910786914958 L631.4881140082394,183.06687381551055 M647.7167223586562,261.4155894231609 L648.244074773682,173.43910786914958 M662.4417179078757,277.21498962558917 L668.9152255528873,273.47626158590805 M668.9152255528873,273.47626158590805 L647.7167223586562,261.4155894231609 M641.2431633423394,265.15019480221997 L619.2029236818603,254.39238364746166 M619.2029236818603,254.39238364746166 L595.8356717522622,244.62553456946836 M595.8356717522622,244.62553456946836 L571.2740736884615,235.90303758446265 M571.2740736884615,235.90303758446265 L545.6569620555445,228.27243532312943 M545.6569620555445,228.27243532312943 L519.1286378842718,221.77524319162524 M519.1286378842718,221.77524319162524 L491.8380301461056,216.44670833049892 M491.8380301461056,216.44670833049892 L463.937954851326,212.31573624282458 M463.937954851326,212.31573624282458 L435.5843591931268,209.404664209745 M435.5843591931268,209.404664209745 L406.9354421417941,207.7292216874738 M406.9354421417941,207.7292216874738 L378.15093556802697,207.29849352731526 M378.15093556802697,207.29849352731526 L349.39125499509066,208.11477570985943 M349.39125499509066,208.11477570985943 L320.81667725188396,210.17368926952832 M320.81667725188396,210.17368926952832 L292.58653370363334,213.46407185130556 M292.58653370363334,213.46407185130556 L264.85846352308505,217.96815043726394 M264.85846352308505,217.96815043726394 L237.78746839650086,223.66153806765558 M237.78746839650086,223.66153806765558 L211.52527765203965,230.51336642608118 M211.52527765203965,230.51336642608118 L186.21947280799233,238.486411046332 M186.21947280799233,238.486411046332 L162.0127369281809,247.53729280401413 M162.0127369281809,247.53729280401413 L139.04206359848786,257.6166125376237 M139.04206359848786,257.6166125376237 L117.43807808139559,268.66924287995266 M173.96459730234756,301.29034086838254 L117.43807808139559,268.66924287995266 M571.9989437914602,291.5874046492531 L551.373028605425,282.8437329655566 M551.373028605425,282.8437329655566 L529.5502606185273,275.1392383344345 M529.5502606185273,275.1392383344345 L506.68648436531794,268.5274180379369 M506.68648436531794,268.5274180379369 L482.94448302944176,263.05408503772037 M482.94448302944176,263.05408503772037 L458.49281541052176,258.75708843759503 M458.49281541052176,258.75708843759503 L433.50476754835023,255.66611484873482 M433.50476754835023,255.66611484873482 L408.157072165473,253.80250106362996 M408.157072165473,253.80250106362996 L382.62888601173245,253.1790819639887 M382.62888601173245,253.1790819639887 L357.100543477437,253.80016678266284 M357.100543477437,253.80016678266284 L331.75233867643675,255.6614684700507 M331.75233867643675,255.6614684700507 L306.7634439777614,258.75016057123344 M306.7634439777614,258.75016057123344 L282.3106074864535,263.04491476799126 M282.3106074864535,263.04491476799126 L258.5671141940659,268.5160805963208 M258.5671141940659,268.5160805963208 L235.70154583539832,275.12581302070555 M235.70154583539832,275.12581302070555 L213.87667222517467,282.82830555311176 M213.87667222517467,282.82830555311176 L193.24838446511154,291.57008825166906 M193.24838446511154,291.57008825166906 L173.96459730234756,301.29034086838254 M571.9989437914602,291.5874046492531 L577.3769696807101,298.4018128137943 M577.3769696807101,298.4018128137943 L584.8169684461435,304.5541986381822 M584.8169684461435,304.5541986381822 L594.0734871997513,309.8396469871566 M594.0734871997513,309.8396469871566 L604.8401143612347,314.08183402372947 M604.8401143612347,314.08183402372947 L616.7596231249787,317.13904439658126 M602.1261837823772,548.379693970981 L619.1405830840015,537.11591388177 M619.1405830840015,537.11591388177 L634.4184527223298,525.060930328905 M634.4184527223298,525.060930328905 L647.8506479658447,512.3044024766909 M647.8506479658447,512.3044024766909 L659.3420682241799,498.94089390383203 M659.3420682241799,498.94089390383203 L668.8122647322338,485.0691063483774 M668.8122647322338,485.0691063483774 L676.1959838521857,470.7911278839459 M676.1959838521857,470.7911278839459 L681.4435573423173,456.21165647383174 M681.4435573423173,456.21165647383174 L684.521067891495,441.4371506024036 M684.521067891495,441.4371506024036 L685.4105722511624,426.57510511529824 M685.4105722511624,426.57510511529824 L684.1100386264142,411.73318405327524 M684.1100386264142,411.73318405327524 L680.633290415647,397.01849640183764 M680.633290415647,397.01849640183764 L675.0096995070559,382.5368090286461 M675.0096995070559,382.5368090286461 L667.2839419542757,368.3917621550361 M667.2839419542757,368.3917621550361 L657.5155154817205,354.68423506958794 M657.5155154817205,354.68423506958794 L645.778185100724,341.51158412387537 M645.778185100724,341.51158412387537 L632.1594085353163,328.96703724607806 M632.1594085353163,328.96703724607806 L616.7596231249787,317.13904439658126 M660.1092357163867,581.8413478084325 L602.1261837823772,548.379693970981 M660.1092357163867,581.8413478084325 L679.5120666092723,569.1831393503214 M679.5120666092723,569.1831393503214 L697.1767121605761,555.7160288593052 M697.1767121605761,555.7160288593052 L713.003115091184,541.520202386339 M713.003115091184,541.520202386339 L726.9024466193243,526.6798543560361 M726.9024466193243,526.6798543560361 L738.797683345835,511.2826788638009 M738.797683345835,511.2826788638009 L748.6238744123499,495.4192903637256 M748.6238744123499,495.4192903637256 L756.32849668893,479.18266744582525 M756.32849668893,479.18266744582525 L761.8716429756499,462.66752483961017 M761.8716429756499,462.66752483961017 L765.2261958696487,445.9698306678696 M765.2261958696487,445.9698306678696 L766.37772992616,429.18614851776556 M766.37772992616,429.18614851776556 L765.3247011007719,412.4131052272493 M765.3247011007719,412.4131052272493 L762.0781149085512,395.746834518534 M762.0781149085512,395.746834518534 L756.6615672683238,379.2824247665988 M756.6615672683238,379.2824247665988 L749.1108123899459,363.1133660949124 M749.1108123899459,363.1133660949124 L739.4735093112147,347.33108909922925 M739.4735093112147,347.33108909922925 L727.8089528325236,332.024427030503 M727.8089528325236,332.024427030503 L714.1874724588876,317.27916770164734 M714.1874724588876,317.27916770164734 L698.6901011205028,303.17763085037063 M698.6901011205028,303.17763085037063 L681.4079528424356,289.7982060861135 M681.4079528424356,289.7982060861135 L662.4417179078757,277.21498962558917 M695.5083276715268,516.2820499867553 L691.4841536550387,514.4664736739695 M691.4841536550387,514.4664736739695 L686.8355570729237,513.258414589515 M686.8355570729237,513.258414589515 L681.8323554680919,512.7278658167913 M681.8323554680919,512.7278658167913 L676.7649061870382,512.905578236155 M676.7649061870382,512.905578236155 L671.927224923612,513.7812443373464 M671.927224923612,513.7812443373464 L667.6000644459461,515.3041379230051 M667.6000644459461,515.3041379230051 L664.0346811884043,517.3859955765538 M664.0346811884043,517.3859955765538 L661.4382932633349,519.9060989253318 M661.4382932633349,519.9060989253318 L659.9620182594855,522.7182381226899 M659.9620182594855,522.7182381226899 L659.6920445754706,525.6591355641851 M659.6920445754706,525.6591355641851 L660.6445457944384,528.557925482537 M660.6445457944384,528.557925482537 L662.7645881540358,531.2460199517056 M662.7645881540358,531.2460199517056 L665.9292908566403,533.5670034587316 M665.9292908566403,533.5670034587316 L669.9548412092529,535.38571790165 M669.9548412092529,535.38571790165 L674.6071669168452,536.5961962050333 M674.6071669168452,536.5961962050333 L679.6155961605227,537.1278910888495 M679.6155961605227,537.1278910888495 L684.6885699401429,536.9497914387622 M684.6885699401429,536.9497914387622 L689.5308181503831,536.0722869692363 M689.5308181503831,536.0722869692363 L693.8605306219225,534.546531542863 M693.8605306219225,534.546531542863 L697.4258703235266,532.4614418384699 M697.4258703235266,532.4614418384699 L700.0196291215718,529.938476657057 M700.0196291215718,529.938476657057 L701.4912876950092,527.1245038043392 M701.4912876950092,527.1245038043392 L701.7557263820117,524.1832144268783 M701.7557263820117,524.1832144268783 L700.7980284153098,521.285570611657 M700.7980284153098,521.285570611657 L698.674322132844,518.5998953634996 M698.674322132844,518.5998953634996 L695.5083276715268,516.2820499867553 M117.32100651629332,249.14583590939094 L138.93458460401683,238.09820114695532 M138.93458460401683,238.09820114695532 L161.91543930488328,228.02344137394715 M161.91543930488328,228.02344137394715 L186.1328880663621,218.97665779816396 M186.1328880663621,218.97665779816396 L211.4498775854086,211.007226061349 M211.4498775854086,211.007226061349 L237.72366292824253,204.1585045715585 M237.72366292824253,204.1585045715585 L264.8065988691394,198.46769997206403 M264.8065988691394,198.46769997206403 L292.5468908257654,193.9656657667935 M292.5468908257654,193.9656657667935 L320.78947065026,190.67677719223764 M320.78947065026,190.67677719223764 L349.3766317291302,188.61879871018812 M349.3766317291302,188.61879871018812 L378.1489746381391,187.80288729829624 M378.1489746381391,187.80288729829624 L406.9461541419524,188.2334198103073 M406.9461541419524,188.2334198103073 L435.60768625905837,189.9081013733926 M435.60768625905837,189.9081013733926 L463.9737709109969,192.81785151359654 M463.9737709109969,192.81785151359654 L491.8861414855332,196.94694834933443 M491.8861414855332,196.94694834933443 L519.188783973625,202.27306534300908 M519.188783973625,202.27306534300908 L545.7288167096547,208.7673108696761 M545.7288167096547,208.7673108696761 L571.3572465125659,216.39445467801013 M571.3572465125659,216.39445467801013 L595.9297098717826,225.1130012043091 M595.9297098717826,225.1130012043091 L619.3073138074193,234.8754304762957 M619.3073138074193,234.8754304762957 L641.3573341145914,245.62837783979083 M117.32100651629332,249.14583590939094 L117.43807808139559,268.66924287995266 M173.87234479564404,281.75221853158405 L117.32100651629332,249.14583590939094 M173.87234479564404,281.75221853158405 L193.1646956664111,272.0363462249485 M193.1646956664111,272.0363462249485 L213.80213018372666,263.2985061584731 M213.80213018372666,263.2985061584731 L235.636668607199,255.59949008411655 M235.636668607199,255.59949008411655 L258.5123516916685,248.99274281852306 M258.5123516916685,248.99274281852306 L282.2663387824867,243.5240492712014 M282.2663387824867,243.5240492712014 L306.7299750388624,239.23123661136842 M306.7299750388624,239.23123661136842 L331.7299005374928,236.14394128079851 M331.7299005374928,236.14394128079851 L357.08929090700775,234.2834814985744 M357.08929090700775,234.2834814985744 L382.62889657450586,233.6626776404969 M382.62889657450586,233.6626776404969 L408.16834579425927,234.2858147236105 M408.16834579425927,234.2858147236105 L433.5272265262432,236.14858555800464 M433.5272265262432,236.14858555800464 L458.5263048234486,239.238161345238 M458.5263048234486,239.238161345238 L482.98877170350005,243.53321539610752 M482.98877170350005,243.53321539610752 L506.74126619393587,249.0040751382914 M506.74126619393587,249.0040751382914 L529.615156398766,255.61290933635487 M529.615156398766,255.61290933635487 L551.4475882879401,263.31392661028246 M551.4475882879401,263.31392661028246 L572.08264920332,272.0536548157238 M572.08264920332,272.0536548157238 L569.0647535013163,265.25010643159646 M569.0647535013163,265.25010643159646 L568.1125878706838,258.26146567174897 M568.1125878706838,258.26146567174897 L569.2520557856558,251.29234767726047 M569.2520557856558,251.29234767726047 L572.4478553001338,244.54641612074693 M572.4478553001338,244.54641612074693 L577.6048175852478,238.2204242160085 M577.6048175852478,238.2204242160085 L584.5707874502855,232.4985703941586 M584.5707874502855,232.4985703941586 L593.141291255603,227.5471868163478 M633.1955726699815,250.332719348286 L593.141291255603,227.5471868163478 M601.9297857383556,173.7306123711743 L593.3271756539806,188.46822899308324 M593.3271756539806,188.46822899308324 L593.141291255603,227.5471868163478 M601.9297857383556,173.7306123711743 L633.5279393502191,191.65730822229563 M686.4495703785948,221.68153036655298 L678.2410798847995,226.43117539095024 M678.2410798847995,226.43117539095024 L668.5524918055105,230.16655472652891 M668.5524918055105,230.16655472652891 L657.7577704193058,232.74269207114008 M657.7577704193058,232.74269207114008 L646.2742106919374,234.05949953903797 M646.2742106919374,234.05949953903797 L634.5460879495961,234.0657917198841 M634.5460879495961,234.0657917198841 L623.0272613502854,232.76132889148678 M623.0272613502854,232.76132889148678 L612.1633851334211,230.19680995607754 M612.1633851334211,230.19680995607754 L602.3744299386631,226.4718660488046 M602.3744299386631,226.4718660488046 L594.0382823195503,221.7310868229831 M594.0382823195503,221.7310868229831 L587.4760684245895,216.15828191039816 M587.4760684245895,216.15828191039816 L582.9397825395581,209.96921788386243 M582.9397825395581,209.96921788386243 L580.6027013490645,203.4031409950461 M580.6027013490645,203.4031409950461 L580.5529225387122,196.71343598228106 M580.5529225387122,196.71343598228106 L582.7902933135991,190.1577882374593 M582.7902933135991,190.1577882374593 L587.2267045428317,183.98826701845041 M587.2267045428317,183.98826701845041 L593.6897791689939,178.44169258957757 M593.6897791689939,178.44169258957757 L601.9297857383556,173.7306123711743 M654.7643111534901,203.70541656985543 L686.4495703785948,221.68153036655298 M652.6694816885223,204.91096025791722 L654.7643111534901,203.70541656985543 M631.4330939641086,192.86151978118593 L652.6694816885223,204.91096025791722 M652.6694816885223,204.91096025791722 L652.7292304799616,195.11356270497697 M631.4881140082394,183.06687381551055 L652.7292304799616,195.11356270497697 M631.4881140082394,183.06687381551055 L635.7344583891411,178.16792633367373 M648.3027990204802,170.94713008143316 L635.7344583891411,178.16792633367373 M648.244074773682,173.43910786914958 L648.3027990204802,170.94713008143316 M668.9152255528873,273.47626158590805 L669.485060256676,185.47514598624863 M669.485060256676,185.47514598624863 L648.244074773682,173.43910786914958 M654.4036162060881,262.397261486277 L654.7643111534901,203.70541656985543 M662.5653145656852,257.68772351926407 L654.4036162060881,262.397261486277 M662.5653145656852,257.68772351926407 L662.4417179078757,277.21498962558917 M652.7292304799616,195.11356270497697 L669.485060256676,185.47514598624863 M173.87234479564404,281.75221853158405 L173.96459730234756,301.29034086838254 M572.08264920332,272.0536548157238 L571.9989437914602,291.5874046492531 M593.3271756539806,188.46822899308324 L584.6180425126056,193.50527834710533 M584.6180425126056,193.50527834710533 L577.5731460363774,199.33541887457545 M577.5731460363774,199.33541887457545 L572.4062826299004,205.78343891483286 M572.4062826299004,205.78343891483286 L569.2750917064178,212.6552234749012 M569.2750917064178,212.6552234749012 L568.2760792717393,219.74354746729924 M568.2760792717393,219.74354746729924 L569.4415256259731,226.83422767738057 M569.4415256259731,226.83422767738057 L572.7382365693925,233.7126024242074 M572.7382365693925,233.7126024242074 L578.0682881309552,240.17005874042215 M578.0682881309552,240.17005874042215 L585.2718511660371,246.0103553582947 M585.2718511660371,246.0103553582947 L594.1317411599191,251.05574722115514 M594.1317411599191,251.05574722115514 L604.3799867292194,255.15244166824823 M604.3799867292194,255.15244166824823 L615.7059378166,258.1753958823916 M615.7059378166,258.1753958823916 L627.7656526034962,260.0322841598117 M627.7656526034962,260.0322841598117 L640.1926010785892,260.6663307176774 M640.1926010785892,260.6663307176774 L652.6088695083722,260.05814607514196 M652.6088695083722,260.05814607514196 L664.6368578371536,258.2263321424938 M664.6368578371536,258.2263321424938 L675.9109964829084,255.22688016827362 M675.9109964829084,255.22688016827362 L686.0889451971522,251.15143067782546 M686.0889451971522,251.15143067782546 L694.8621641933058,246.12436419475776 M694.8621641933058,246.12436419475776 L694.5859843999516,285.25565827586263 M694.5859843999516,285.25565827586263 L685.9775696695357,290.2114554559237 M685.9775696695357,290.2114554559237 L676.0069799166027,294.24816651649917 M676.0069799166027,294.24816651649917 L664.9665775937132,297.24662204888574 M664.9665775937132,297.24662204888574 L653.1806202188349,299.1182078834387 M653.1806202188349,299.1182078834387 L640.9955852418838,299.8076011762422 M640.9955852418838,299.8076011762422 L628.7699103541522,299.2943991611516 M628.7699103541522,299.2943991611516 L616.8632320234624,297.5937882185763 M616.8632320234624,297.5937882185763 L616.7596231249787,317.13904439658126 M694.8621641933058,246.12436419475776 L686.4495703785948,221.68153036655298 M694.5859843999516,285.25565827586263 L654.4036162060881,262.397261486277 M652.7292304799616,195.11356270497697 L652.7292304799616,187.80310976936988 M635.7344583891411,178.16792633367373 L652.7292304799616,187.80310976936988 M652.7292304799616,187.80310976936988 L665.2974924920652,180.5759230786337 M665.2974924920652,180.5759230786337 L648.3027990204802,170.94713008143316 M669.485060256676,185.47514598624863 L665.2974924920652,180.5759230786337 M616.8632320234624,297.5937882185763 L632.2698911652428,309.4164636417602 M632.2698911652428,309.4164636417602 L645.8947637174037,321.9553771277115 M645.8947637174037,321.9553771277115 L657.6373665688056,335.12211945526565 M657.6373665688056,335.12211945526565 L667.41020161512,348.8235054391738 M667.41020161512,348.8235054391738 L675.1394692138892,362.9622231495571 M675.1394692138892,362.9622231495571 L680.7656430645437,377.43743909745126 M680.7656430645437,377.43743909745126 L684.2440248983511,392.1455598734687 M684.2440248983511,392.1455598734687 L685.545227253395,406.98086613180027 M685.545227253395,406.98086613180027 L684.6554179793932,421.8362967557917 M684.6554179793932,421.8362967557917 L681.576627152519,436.6042355637484 M681.576627152519,436.6042355637484 L676.3268034363851,451.17723523784963 M676.3268034363851,451.17723523784963 L668.9398767942226,465.4488841127488 M668.9398767942226,465.4488841127488 L659.4655353287923,479.3145300286617 M659.4655353287923,479.3145300286617 L647.9690597409011,492.6721293445996 M647.9690597409011,492.6721293445996 L634.5309329457307,505.4230230676283 M634.5309329457307,505.4230230676283 L619.2462965784896,517.4726883764295 M619.2462965784896,517.4726883764295 L602.224343078731,528.7315045743915 M660.2335098089129,562.178442234036 L602.224343078731,528.7315045743915 M662.5653145656852,257.68772351926407 L681.5400023457556,270.26526294685766 M681.5400023457556,270.26526294685766 L698.8298735213151,283.63865847210934 M698.8298735213151,283.63865847210934 L714.3341922273786,297.73384849635517 M714.3341922273786,297.73384849635517 L727.9618027015127,312.4724798557832 M727.9618027015127,312.4724798557832 L739.6316343701874,327.7722708891794 M739.6316343701874,327.7722708891794 L749.2733244900114,343.54747325236286 M749.2733244900114,343.54747325236286 L756.8275496169147,359.7092943376993 M756.8275496169147,359.7092943376993 L762.2466269807583,376.1663451421016 M762.2466269807583,376.1663451421016 L765.4947837270292,392.8251778232581 M765.4947837270292,392.8251778232581 L766.5484105536449,409.5907467542529 M766.5484105536449,409.5907467542529 L765.3964940812807,426.3669611707509 M765.3964940812807,426.3669611707509 L762.0405760587993,443.0572371515471 M762.0405760587993,443.0572371515471 L756.4950854204569,459.56505373828503 M756.4950854204569,459.56505373828503 L748.7871488270911,475.7944849189257 M748.7871488270911,475.7944849189257 L738.9566886151183,491.65085727677456 M738.9566886151183,491.65085727677456 L727.0562489133997,507.0412325401824 M727.0562489133997,507.0412325401824 L713.1508074150009,521.875035323465 M713.1508074150009,521.875035323465 L697.3174200811757,536.0646091308472 M697.3174200811757,536.0646091308472 L679.6449539064677,549.525795443841 M679.6449539064677,549.525795443841 L660.2335098089129,562.178442234036 M695.6480400712761,496.6480193568233 L698.8154629583986,498.9648409030717 M698.8154629583986,498.9648409030717 L700.9401348446731,501.6493301154258 M700.9401348446731,501.6493301154258 L701.8982792044715,504.5456946127605 M701.8982792044715,504.5456946127605 L701.633741349159,507.4856857493089 M701.633741349159,507.4856857493089 L700.1614433958297,510.29841688357146 M700.1614433958297,510.29841688357146 L697.5665418051178,512.8202690308926 M697.5665418051178,512.8202690308926 L693.9996221121811,514.9044390687377 M693.9996221121811,514.9044390687377 L689.6679842719016,516.4295216442586 M689.6679842719016,516.4295216442586 L684.823577400675,517.3066391810687 M684.823577400675,517.3066391810687 L679.7483374720201,517.4846603024941 M679.7483374720201,517.4846603024941 L674.7376667028103,516.9531998602588 M674.7376667028103,516.9531998602588 L670.0832547809412,515.7432553387218 M670.0832547809412,515.7432553387218 L666.0558950443067,513.9253430013382 M666.0558950443067,513.9253430013382 L662.889765051249,511.6053833089093 M662.889765051249,511.6053833089093 L660.7687603471854,508.9184748632877 M660.7687603471854,508.9184748632877 L659.8158173717973,506.02096425701615 M659.8158173717973,506.02096425701615 L660.0858951741093,503.08136505736746 M660.0858951741093,503.08136505736746 L661.5628136921332,500.27046758880573 M661.5628136921332,500.27046758880573 L664.1603467763821,497.7514772886182 M664.1603467763821,497.7514772886182 L667.7273100836495,495.67053931799256 M667.7273100836495,495.67053931799256 L672.0563936669503,494.1483185976856 M672.0563936669503,494.1483185976856 L676.8962295234194,493.2730394374731 M676.8962295234194,493.2730394374731 L681.9659400175943,493.09540554978463 M681.9659400175943,493.09540554978463 L686.9713784698682,493.6257198751205 M686.9713784698682,493.6257198751205 L691.6220579195049,494.83324516547134 M691.6220579195049,494.83324516547134 L695.6480400712761,496.6480193568233 M660.2335098089129,562.178442234036 L660.1092357163867,581.8413478084325 M602.224343078731,528.7315045743915 L602.1261837823772,548.379693970981 M695.5083276715268,516.2820499867553 L695.6480400712761,496.6480193568233" stroke="black"  stroke-width="4"  fill="red"/>
<path d="M478.91826089725134,615.6042379167861 L497.5880847379075,603.7099026942122 M497.5880847379075,603.7099026942122 L514.3816662103941,590.9251303803594 M514.3816662103941,590.9251303803594 L529.1725648751934,577.3501332803263 M529.1725648751934,577.3501332803263 L541.8505092412807,563.0909614628836 M541.8505092412807,563.0909614628836 L552.3220422688572,548.2585894749631 M552.3220422688572,548.2585894749631 L560.5112338882817,532.9680150298386 M560.5112338882817,532.9680150298386 L566.3600320027472,517.3372828040558 M566.3600320027472,517.3372828040558 L569.8287156940053,501.48660477819686 M569.8287156940053,501.48660477819686 L570.8959040018813,485.5373319516172 M570.8959040018813,485.5373319516172 L569.5586534045112,469.6110592110822 M569.5586534045112,469.6110592110822 L565.8323292324181,453.8286908390184 M565.8323292324181,453.8286908390184 L559.7502632000975,438.30952051731606 M559.7502632000975,438.30952051731606 L551.3634104966687,423.17033683254044 M551.3634104966687,423.17033683254044 L540.7397868463778,408.52461782364736 M540.7397868463778,408.52461782364736 L527.9638671855135,394.48167782233503 M527.9638671855135,394.48167782233503 L513.1357820008609,381.1459140662001 M513.1357820008609,381.1459140662001 L496.3705031330069,368.6161139112616 M496.3705031330069,368.6161139112616 L477.7969105358796,356.9847510833966 M477.7969105358796,356.9847510833966 L457.55677134551973,346.337377197941 M457.55677134551973,346.337377197941 L435.8036282186185,336.7520747002209 M435.8036282186185,336.7520747002209 L412.70167370136795,328.2989376477991 M412.70167370136795,328.2989376477991 L388.42455757746836,321.0396210523364 M388.42455757746836,321.0396210523364 L363.154073083207,315.02695312178804 M363.154073083207,315.02695312178804 L337.0789086131414,310.3046235207154 M337.0789086131414,310.3046235207154 L310.393342526518,306.9068813329121 M310.393342526518,306.9068813329121 L283.2958144245505,304.85834793983014 M283.2958144245505,304.85834793983014 L255.9876257800874,304.1738457813113 M255.9876257800874,304.1738457813113 L228.67153172553827,304.8583427410224 M228.67153172553827,304.8583427410224 L201.55033055762772,306.90688254258316 M201.55033055762772,306.90688254258316 L174.82546439965964,310.30461889725444 M174.82546439965964,310.30461889725444 L148.69571640128584,315.02695659087885 M148.69571640128584,315.02695659087885 L123.3557049283188,321.03961873833975 M123.3557049283188,321.03961873833975 L98.9946454079336,328.2989399633286 M98.9946454079336,328.2989399633286 L75.79495621275345,336.7520747002209 M75.79495621275345,336.7520747002209 L53.93098973624876,346.337382996294 M53.93098973624876,346.337382996294 L33.567735154045806,356.9847510833963 M33.45158944635506,342.29932160689543 L33.567735154045806,356.9847510833963 M33.45158944635506,342.29932160689543 L53.82167316967309,331.65553669708726 M53.82167316967309,331.65553669708726 L75.69295616477984,322.07345709997105 M75.69295616477984,322.07345709997105 L98.90039452657288,313.6231720129883 M98.90039452657288,313.6231720129883 L123.26957837808993,306.3662997177492 M123.26957837808993,306.3662997177492 L148.61802951327178,300.3556671491008 M148.61802951327178,300.3556671491008 L174.75647070723858,295.6349242523698 M174.75647070723858,295.6349242523698 L201.49022025066066,292.23833577695734 M201.49022025066066,292.23833577695734 L228.62043046474952,290.1904882159006 M228.62043046474952,290.1904882159006 L255.94559395459356,289.5062225890572 M255.94559395459356,289.5062225890572 L283.26284678183856,290.19049341295147 M283.26284678183856,290.19049341295147 L310.36936820483567,292.23833456769495 M310.36936820483567,292.23833456769495 L337.0637915798812,295.634928874269 M337.0637915798812,295.634928874269 L363.14761298040037,300.3556636811813 M363.14761298040037,300.3556636811813 L388.42649094170594,306.36630203096485 M388.42649094170594,306.36630203096485 L412.71167560635627,313.6231696982395 M412.71167560635627,313.6231696982395 L435.82131430614044,322.0734570999711 M435.82131430614044,322.0734570999711 L457.58170023405546,331.6555309006866 M457.58170023405546,331.6555309006866 L477.8285866379762,342.2993216068952 M477.8285866379762,342.2993216068952 L496.4083798514117,353.92677403832994 M496.4083798514117,353.92677403832994 L513.1792652920253,366.4523663344267 M513.1792652920253,366.4523663344267 L528.0123194970341,379.7836567929377 M528.0123194970341,379.7836567929377 L540.7925314094414,393.8218921096771 M540.7925314094414,393.8218921096771 L551.4197359553827,408.46271085646634 M551.4197359553827,408.46271085646634 L559.8094285482395,423.5968360047146 M559.8094285482395,423.5968360047146 L565.8935690635617,439.1108280320693 M565.8935690635617,439.1108280320693 L569.6211834163812,454.88793777350065 M569.6211834163812,454.88793777350065 L570.9589267486155,470.8089115866856 M570.9589267486155,470.8089115866856 L569.8914265179197,486.7528855365274 M569.8914265179197,486.7528855365274 L566.4216251485655,502.5983050794497 M566.4216251485655,502.5983050794497 L560.570908729325,518.2238592455284 M560.570908729325,518.2238592455284 L552.3790095682124,533.5093754803877 M552.3790095682124,533.5093754803877 L541.9039974748997,548.3368476038771 M541.9039974748997,548.3368476038771 L529.2218264622284,562.5913151985535 M529.2218264622284,562.5913151985535 L514.4259836781812,576.1618395160702 M514.4259836781812,576.1618395160702 L497.62677669114987,588.9424045223288 M497.62677669114987,588.9424045223288 L478.95068780365887,600.8328299166858 M478.95068780365887,600.8328299166858 L478.91826089725134,615.6042379167861 M44.05077036977883,363.0723540640483 L33.567735154045806,356.9847510833963 M478.91826089725134,615.6042379167861 L468.19277617098317,609.3758420901103 M468.19277617098317,609.3758420901103 L485.97450776932084,598.053962912495 M485.97450776932084,598.053962912495 L501.9711153204687,585.883854929142 M501.9711153204687,585.883854929142 L516.0621367465108,572.9607865284273 M516.0621367465108,572.9607865284273 L528.1423740146183,559.3855801267081 M528.1423740146183,559.3855801267081 L538.1226478587889,545.2637835293935 M538.1226478587889,545.2637835293935 L545.930409991979,530.7047857989027 M545.930409991979,530.7047857989027 L551.5101364356609,515.8209270955244 M551.5101364356609,515.8209270955244 L554.8236579047618,500.72659230080325 M554.8236579047618,500.72659230080325 L555.8503357229533,485.53732725389716 M555.8503357229533,485.53732725389716 L554.5870690900633,470.36893345042137 M554.5870690900633,470.36893345042137 L551.0481386061064,455.33656146227054 M551.0481386061064,455.33656146227054 L545.2650170667919,440.55388108772553 M545.2650170667919,440.55388108772553 L537.2859402753718,426.1322063161019 M537.2859402753718,426.1322063161019 L527.1754460551997,412.17971064309444 M527.1754460551997,412.17971064309444 L515.0137558956282,398.80062812318465 M515.0137558956282,398.80062812318465 L500.8960652273671,386.0945526526775 M500.8960652273671,386.0945526526775 L484.9317532586422,374.1557117076668 M484.9317532586422,374.1557117076668 L467.24348788584206,363.07235406404845 M467.24348788584206,363.07235406404845 L447.9662473396041,352.92614363378 M447.9662473396041,352.92614363378 L427.24630849545997,343.79161228948925 M427.24630849545997,343.79161228948925 L405.2401374871008,335.73568701248485 M405.2401374871008,335.73568701248485 L382.11321414195805,328.81725110378005 M382.11321414195805,328.81725110378005 L358.03888547540646,323.0867643584788 M358.03888547540646,323.0867643584788 L333.19706440111963,318.5859509754919 M333.19706440111963,318.5859509754919 L307.7730162745662,315.34753649353934 M307.7730162745662,315.34753649353934 L281.9560199093069,313.39503627103346 M281.9560199093069,313.39503627103346 L255.93809588969503,312.74262846955094 M255.93809588969503,312.74262846955094 L229.91262040230012,313.39503627103346 M229.91262040230012,313.39503627103346 L204.07305346234102,315.3475336025457 M204.07305346234102,315.3475336025457 L178.61156842405865,318.5859532889704 M178.61156842405865,318.5859532889704 L153.7177110488952,323.0867689873365 M153.7177110488952,323.0867689873365 L129.5771160679061,328.81725110377994 M129.5771160679061,328.81725110377994 L106.37019884757785,335.73568701248473 M106.37019884757785,335.73568701248473 L84.27088183199737,343.79161228948914 M84.27088183199737,343.79161228948914 L63.445329749927396,352.9261413130457 M63.445329749927396,352.9261413130457 L44.05077036977883,363.0723540640483 M468.21197918462207,599.5307058869562 L468.19277617098317,609.3758420901103 M468.21197918462207,599.5307058869562 L43.97565295819396,353.28178926584894 M43.97565295819396,353.28178926584894 L44.05077036977883,363.0723540640483 M478.95068780365887,600.8328299166858 L33.45158944635506,342.29932160689543 M162.422624841523,353.25575339246404 L165.07404148815453,355.21718480542114 M165.07404148815453,355.21718480542114 L166.82927521693466,357.4898148640591 M166.82927521693466,357.4898148640591 L167.58606463696935,359.9417134577598 M167.58606463696935,359.9417134577598 L167.30009970840206,362.4304540872871 M167.30009970840206,362.4304540872871 L165.98765899080695,364.81138188874723 M165.98765899080695,364.81138188874723 L163.72473753758305,366.94599903830334 M163.72473753758305,366.94599903830334 L160.6426857363001,368.7100893406548 M160.6426857363001,368.7100893406548 L156.92063669528952,370.00092309017947 M156.92063669528952,370.00092309017947 L152.77503652539878,370.74330670646304 M152.77503652539878,370.74330670646304 L148.44712294162574,370.8939794962839 M148.44712294162574,370.8939794962839 L144.18875328960186,370.4441591441727 M144.18875328960186,370.4441591441727 L140.24773512453334,369.42006053755483 M140.24773512453334,369.42006053755483 L136.853338180253,367.8813629816248 M136.853338180253,367.8813629816248 L134.20291503455456,365.91766796328335 M134.20291503455456,365.91766796328335 L132.45038616705148,363.6432928607713 M132.45038616705148,363.6432928607713 L131.69739332870313,361.1905675570243 M131.69739332870313,361.1905675570243 L131.98737680333136,358.70210794073495 M131.98737680333136,358.70210794073495 L133.30313743647878,356.3225045017574 M133.30313743647878,356.3225045017574 L135.5679196036208,354.1899516580263 M135.5679196036208,354.1899516580263 L138.64994667080214,352.42819271092475 M138.64994667080214,352.42819271092475 L142.37009119577067,351.139423273916 M142.37009119577067,351.139423273916 L146.51234334811915,350.39836402063065 M146.51234334811915,350.39836402063065 L150.83623242216098,350.24797224379455 M150.83623242216098,350.24797224379455 L155.09082303389656,350.69696587893475 M155.09082303389656,350.69696587893475 L159.02917336599688,351.7193194340276 M159.02917336599688,351.7193194340276 L162.422624841523,353.25575339246404 M459.4186114671239,525.1092560679197 L462.1175345404917,527.1015215930126 M462.1175345404917,527.1015215930126 L463.91750495064565,529.4098813575883 M463.91750495064565,529.4098813575883 L464.713659585313,531.9003322677261 M464.713659585313,531.9003322677261 L464.4593964592359,534.4282089523349 M464.4593964592359,534.4282089523349 L463.1691461058784,536.8465816261728 M463.1691461058784,536.8465816261728 L460.9176077817057,539.0147734103323 M460.9176077817057,539.0147734103323 L457.8354655960987,540.806612953825 M457.8354655960987,540.806612953825 L454.10185519883316,542.1177530205254 M454.10185519883316,542.1177530205254 L449.9338945354778,542.8718157419312 M449.9338945354778,542.8718157419312 L445.5741239314849,543.0248589498254 M445.5741239314849,543.0248589498254 L441.2762571349723,542.5679619719449 M441.2762571349723,542.5679619719449 L437.2904032457157,541.5277526745261 M437.2904032457157,541.5277526745261 L433.84844353595633,539.9648504010415 M433.84844353595633,539.9648504010415 L431.15049848789624,537.9702676691127 M431.15049848789624,537.9702676691127 L429.35325149836893,535.6601215385847 M429.35325149836893,535.6601215385847 L428.56094178821706,533.1688243421731 M428.56094178821706,533.1688243421731 L428.81929051183175,530.6412353251051 M428.81929051183175,530.6412353251051 L430.1129311803101,528.2242183742271 M430.1129311803101,528.2242183742271 L432.36638783793643,526.0581397779929 M432.36638783793643,526.0581397779929 L435.44853692951466,524.2686867954985 M435.44853692951466,524.2686867954985 L439.1802412228882,522.9596599235792 M439.1802412228882,522.9596599235792 L443.3448194163816,522.2069529256688 M443.3448194163816,522.2069529256688 L447.7005060866958,522.0541973850579 M447.7005060866958,522.0541973850579 L451.99452306053513,522.5102480695708 M451.99452306053513,522.5102480695708 L455.977643191541,523.5486709931972 M455.977643191541,523.5486709931972 L459.4186114671239,525.1092560679197 M286.90361817415857,452.3583002811716 L278.506320688547,446.55764713020744 M278.506320688547,446.55764713020744 L271.9876929801427,440.0035943399898 M271.9876929801427,440.0035943399898 L267.54464466007147,432.8964325685088 M267.54464466007147,432.8964325685088 L265.31037654255886,425.45297307974715 M265.31037654255886,425.45297307974715 L265.350604968726,417.89983072648204 M265.350604968726,417.89983072648204 L267.66179247153383,410.46650002041366 M267.66179247153383,410.46650002041366 L272.1715406208986,403.37837532183653 M272.1715406208986,403.37837532183653 L278.74105885451763,396.8499672126032 M278.74105885451763,396.8499672126032 L287.16958817640545,391.07847998596617 M287.16958817640545,391.07847998596617 L297.20064608885406,386.23796357130993 M297.20064608885406,386.23796357130993 L308.52984801201103,382.4741833816496 M308.52984801201103,382.4741833816496 L320.8141234432041,379.9003486796382 M320.8141234432041,379.9003486796382 L333.68198958756153,378.59380807572745 M333.68198958756153,378.59380807572745 L346.7446352026999,378.593808148493 M346.7446352026999,378.593808148493 L359.6074636148076,379.9003482429932 M359.6074636148076,379.9003482429932 L371.8818089289863,382.47418309048476 M371.8818089289863,382.47418309048476 L383.1964906793084,386.2379629887808 M383.1964906793084,386.2379629887808 L393.20887284998736,391.07847998596617 M393.20887284998736,391.07847998596617 L401.61513878731165,396.849967795695 M401.61513878731165,396.849967795695 L408.1594698931104,403.3783761969933 M408.1594698931104,403.3783761969933 L412.64187025834747,410.46649958255324 M412.64187025834747,410.46649958255324 L414.9243780463947,417.8998313837164 M414.9243780463947,417.8998313837164 L414.9354665467436,425.4529736643565 M414.9354665467436,425.4529736643565 L412.67248254620444,432.8964325685088 M412.67248254620444,432.8964325685088 L408.20201071218906,440.00359199846156 M408.20201071218906,440.00359199846156 L401.6581014999898,446.55764713020744 M401.6581014999898,446.55764713020744 L393.23842507245917,452.3583002811716 M393.23842507245917,452.3583002811716 L383.19840193176424,457.22798031586325 M383.19840193176424,457.22798031586325 L371.8434921385457,461.01740762667157 M371.8434921385457,461.01740762667157 L359.519866917222,463.6102795094992 M359.519866917222,463.6102795094992 L346.6037580436237,464.9269495642526 M346.6037580436237,464.9269495642526 L333.4897953062555,464.9269495642526 M333.4897953062555,464.9269495642526 L320.5787661507363,463.6102795094992 M320.5787661507363,463.6102795094992 L308.265142198167,461.0174111456654 M308.265142198167,461.0174111456654 L296.92485609482594,457.2279814884582 M296.92485609482594,457.2279814884582 L286.90361817415857,452.3583002811716 M468.21197918462207,599.5307058869562 L485.9976885747084,588.2113083296736 M485.9976885747084,588.2113083296736 L501.9978687124085,576.0438707762137 M501.9978687124085,576.0438707762137 L516.0920309124075,563.1236412996356 M516.0920309124075,563.1236412996356 L528.1749541654677,549.5514207165801 M528.1749541654677,549.5514207165801 L538.1574400092622,535.4327341094452 M538.1574400092622,535.4327341094452 L545.9669248513612,520.8769468702278 M545.9669248513612,520.8769468702278 L551.5478733552841,505.9963747217698 M551.5478733552841,505.9963747217698 L554.8621088635141,490.9053775287423 M554.8621088635141,490.9053775287423 L555.8889893131676,475.71947572058747 M555.8889893131676,475.71947572058747 L554.6254144641126,460.55444518591185 M554.6254144641126,460.55444518591185 L551.0856693464797,445.52541089248206 M551.0856693464797,445.52541089248206 L545.3012349730468,430.7460172247753 M545.3012349730468,430.7460172247753 L537.3203590161733,416.3275531502241 M537.3203590161733,416.3275531502241 L527.207594681473,402.3781677199497 M527.207594681473,402.3781677199497 L515.0431821837398,389.00207131320803 M515.0431821837398,389.00207131320803 L500.9223388370518,376.2988350935851 M500.9223388370518,376.2988350935851 L484.9544686933823,364.3626649282806 M484.9544686933823,364.3626649282806 L467.26226723873833,353.28178926584917 M467.26226723873833,353.28178926584917 L447.9807428128365,343.1378531300154 M447.9807428128365,343.1378531300154 L427.2562046927831,334.00537108919633 M427.2562046927831,334.00537108919633 L405.24515346451915,325.95125453264285 M405.24515346451915,325.95125453264285 L382.1131052085118,319.0343730011747 M382.1131052085118,319.0343730011747 L358.03344475673447,313.30517446665175 M358.03344475673447,313.30517446665175 L333.18612413717096,308.8053733295912 M333.18612413717096,308.8053733295912 L307.7564488758808,305.56768742957206 M307.7564488758808,305.56768742957206 L281.9337387481928,303.6156265850208 M281.9337387481928,303.6156265850208 L255.91005584436192,302.9633656143144 M255.91005584436192,302.9633656143144 L229.8788181307976,303.6156265850208 M229.8788181307976,303.6156265850208 L204.03352743261925,305.567684539229 M204.03352743261925,305.567684539229 L178.56639867830475,308.80537564254934 M178.56639867830475,308.80537564254934 L153.6670187075165,313.30517909446854 M153.6670187075165,313.30517909446854 L129.52106258359964,319.0343730011746 M129.52106258359964,319.0343730011746 L106.30898500065558,325.9512545326428 M106.30898500065558,325.9512545326428 L84.20474647054772,334.0053710891963 M84.20474647054772,334.0053710891963 L63.37454827157518,343.1378508098016 M63.37454827157518,343.1378508098016 L43.97565295819396,353.28178926584894 M162.44705696752624,358.15321146460747 L165.09818156123058,360.11486278317625 M165.09818156123058,360.11486278317625 L166.85322298497852,362.38774758877094 M166.85322298497852,362.38774758877094 L167.6099310778629,364.8399209656924 M167.6099310778629,364.8399209656924 L167.32400059896167,367.32894044514677 M167.32400059896167,367.32894044514677 L166.01170818169408,369.71013495807244 M166.01170818169408,369.71013495807244 L163.74904032318358,371.84499117865016 M163.74904032318358,371.84499117865016 L160.66733270855568,373.60927901930353 M160.66733270855568,373.60927901930353 L156.94569844111868,374.90025729313993 M156.94569844111868,374.90025729313993 L152.80055949342625,375.6427240205373 M152.80055949342625,375.6427240205373 L148.47312670950618,375.793413677754 M148.47312670950618,375.793413677754 L144.21522941721088,375.34354296883674 M144.21522941721088,375.34354296883674 L140.27464764783593,374.3193297080747 M140.27464764783593,374.3193297080747 L136.8806257225806,372.7804598655429 M136.8806257225806,372.7804598655429 L134.23049440659895,370.8165449392394 M134.23049440659895,370.8165449392394 L132.47815724162683,368.54191508795884 M132.47815724162683,368.54191508795884 L131.72524488666028,366.08891500013266 M131.72524488666028,366.08891500013266 L132.0151930198847,363.600176534208 M132.0151930198847,363.600176534208 L133.3308046172827,361.2203063851399 M133.3308046172827,361.2203063851399 L135.59533277908582,359.0875144725307 M135.59533277908582,359.0875144725307 L138.67701566784757,357.3255579895478 M138.67701566784757,357.3255579895478 L142.39674584445254,356.0366440303705 M142.39674584445254,356.0366440303705 L146.5385375193814,355.29550166734634 M146.5385375193814,355.29550166734634 L150.86194668729382,355.14509302340605 M150.86194668729382,355.14509302340605 L155.11606577722884,355.59413701449404 M155.11606577722884,355.59413701449404 L159.0539803038077,356.61660522191954 M159.0539803038077,356.61660522191954 L162.44705696752624,358.15321146460747 M459.4100212560879,530.0258338629856 L462.1086417033229,532.0183192884294 M462.1086417033229,532.0183192884294 L463.9084098526771,534.3269337927095 M463.9084098526771,534.3269337927095 L464.70447440103237,536.8176594768506 M464.70447440103237,536.8176594768506 L464.45023867250814,539.3458150005522 M464.45023867250814,539.3458150005522 L463.16013168614984,541.7644543740955 M463.16013168614984,541.7644543740955 L460.9088444309005,543.9328852175734 M460.9088444309005,543.9328852175734 L457.8270464620897,545.7249222888687 M457.8270464620897,545.7249222888687 L454.0938534236238,547.0362068717236 M454.0938534236238,547.0362068717236 L449.9263589725327,547.79035269937 M449.9263589725327,547.79035269937 L445.5670762722735,547.9434127736549 M445.5670762722735,547.9434127736549 L441.2696906386539,547.4864654419532 M441.2696906386539,547.4864654419532 L437.28428313389327,546.446141497004 M437.28428313389327,546.446141497004 L433.84270903515585,544.8830669463804 M433.84270903515585,544.8830669463804 L431.1450663951683,542.8882643177378 M431.1450663951683,542.8882643177378 L429.3480210577185,540.5778634503096 M429.3480210577185,540.5778634503096 L428.5558005739423,538.086291481223 M428.5558005739423,538.086291481223 L428.814120985856,535.5584236246108 M428.814120985856,535.5584236246108 L430.1076175283941,533.1411399718993 M430.1076175283941,533.1411399718993 L432.3608226872318,530.9748223130296 M432.3608226872318,530.9748223130296 L435.4426275596963,529.1851717989864 M435.4426275596963,529.1851717989864 L439.1739149200316,527.8760004075955 M439.1739149200316,527.8760004075955 L443.33802765756917,527.1232103013162 M443.33802765756917,527.1232103013162 L447.6932273377396,526.9704378938634 M447.6932273377396,526.9704378938634 L451.9867640102659,527.4265389335258 M451.9867640102659,527.4265389335258 L455.9694383689672,528.4650765074869 M455.9694383689672,528.4650765074869 L459.4100212560879,530.0258338629856 M286.91428543450616,457.266820550833 L278.5179208937908,451.4655226454362 M278.5179208937908,451.4655226454362 L272.00001592259105,444.91074094950227 M272.00001592259105,444.91074094950227 L267.5574584319766,437.80278826769586 M267.5574584319766,437.80278826769586 L265.32343472229104,430.35849989663205 M265.32343472229104,430.35849989663205 L265.363654193385,422.80451587442985 M265.363654193385,422.80451587442985 L267.6745801656736,415.3703562871887 M267.6745801656736,415.3703562871887 L272.18382263848093,408.2814406805359 M272.18382263848093,408.2814406805359 L278.75260680589054,401.752303668176 M278.75260680589054,401.752303668176 L287.18019623022707,395.9801716904693 M287.18019623022707,395.9801716904693 L297.21013705751307,391.13911426673474 M297.21013705751307,391.13911426673474 L308.5380785586953,387.3749132476422 M308.5380785586953,387.3749132476422 L320.82098826976767,384.80079068190486 M320.82098826976767,384.80079068190486 L333.6874244989403,383.4941039257887 M333.6874244989403,383.4941039257887 L346.7486189686688,383.4941039985623 M346.7486189686688,383.4941039985623 L359.6100185851813,384.800790245211 M359.6100185851813,384.800790245211 L371.8830003856468,387.37491295644486 M371.8830003856468,387.37491295644486 L383.1964249408447,391.1391136841405 M383.1964249408447,391.1391136841405 L393.2076941773406,395.9801716904693 M393.2076941773406,395.9801716904693 L401.61302516716864,401.7523042513329 M401.61302516716864,401.7523042513329 L408.1566278080079,408.2814415557906 M408.1566278080079,408.2814415557906 L412.6385285801822,415.37035584927946 M412.6385285801822,415.37035584927946 L414.9207812195919,422.8045165317376 M414.9207812195919,422.8045165317376 L414.93186725159256,430.35850048130646 M414.93186725159256,430.35850048130646 L412.66913405348623,437.80278826769586 M412.66913405348623,437.80278826769586 L408.19915915719923,444.91073860771354 M408.19915915719923,444.91073860771354 L401.6559783159816,451.4655226454362 M401.6559783159816,451.4655226454362 L393.2372398213094,457.266820550833 M393.2372398213094,457.266820550833 L383.1983357679567,462.13704159769674 M383.1983357679567,462.13704159769674 L371.84469212493445,465.9268897407655 M371.84469212493445,465.9268897407655 L359.5224413870968,468.52004948954425 M359.5224413870968,468.52004948954425 L346.60777316988407,469.8368656976814 M346.60777316988407,469.8368656976814 L333.4952730014342,469.8368656976814 M333.4952730014342,469.8368656976814 L320.58568336933996,468.52004948954425 M320.58568336933996,468.52004948954425 L308.27343166958383,465.92689326015005 M308.27343166958383,465.92689326015005 L296.93440845604107,462.13704277042194 M296.93440845604107,462.13704277042194 L286.91428543450616,457.266820550833 M162.44705696752624,358.15321146460747 L162.422624841523,353.25575339246404 M459.4100212560879,530.0258338629856 L459.4186114671239,525.1092560679197 M286.91428543450616,457.266820550833 L286.90361817415857,452.3583002811716" stroke="black"  stroke-width="4"  fill="red"/>
<path d="M468.1543959773561,629.0528699185668 L485.92817732759346,617.7260375866787 M485.92817732759346,617.7260375866787 L501.91764448964204,605.5505995856886 M501.91764448964204,605.5505995856886 L516.0023885651657,592.6218648497455 M516.0023885651657,592.6218648497455 L528.0772574440965,579.0406989048232 M528.0772574440965,579.0406989048232 L538.0531102283556,564.9126949083251 M538.0531102283556,564.9126949083251 L545.8574292223946,550.3472891660585 M545.8574292223946,550.3472891660585 L551.4347131497891,535.4568706131167 M551.4347131497891,535.4568706131167 L554.7468074620323,520.3558740628762 M554.7468074620323,520.3558740628762 L555.7730802530133,505.15989607097373 M555.7730802530133,505.15989607097373 L554.5104296049038,489.9847892438587 M554.5104296049038,489.9847892438587 L550.9731272650729,474.9457552590774 M550.9731272650729,474.9457552590774 L545.1926296076762,460.15651464123295 M545.1926296076762,460.15651464123295 L537.217148715096,445.72843132422054 M537.217148715096,445.72843132422054 L527.1111916680425,431.7697275964956 M527.1111916680425,431.7697275964956 L514.9549425311232,418.3846847701152 M514.9549425311232,418.3846847701152 L500.84355299842946,405.67294211808496 M500.84355299842946,405.67294211808496 L484.88635262449753,393.728770250331 M484.88635262449753,393.728770250331 L467.20595416366154,382.6404585188051 M467.20595416366154,382.6404585188051 L447.9372756686764,372.4897085391849 M447.9372756686764,372.4897085391849 L427.2265292549324,363.35108672611096 M427.2265292549324,363.35108672611096 L405.2301121971018,355.29155118538944 M405.2301121971018,355.29155118538944 L382.1134318641539,348.37001268596697 M382.1134318641539,348.37001268596697 L358.04975968771737,342.6369546244869 M358.04975968771737,342.6369546244869 L333.2189304038132,338.13412075948173 M333.2189304038132,338.13412075948173 L307.80612907893027,334.8942519988039 M307.80612907893027,334.8942519988039 L282.0005526562172,332.94087475989215 M282.0005526562172,332.94087475989215 L255.99413876198815,332.28817387809386 M255.99413876198815,332.28817387809386 L229.9801800772251,332.94087475989215 M229.9801800772251,332.94087475989215 L204.15205305149334,334.8942491065118 M204.15205305149334,334.8942491065118 L178.70184794445757,338.134123073999 M178.70184794445757,338.134123073999 L153.8190284144711,342.63695925542214 M153.8190284144711,342.63695925542214 L129.6891485805266,348.37001268596686 M129.6891485805266,348.37001268596686 L106.49254520526176,355.2915511853893 M106.49254520526176,355.2915511853893 L84.40306464715155,363.3510867261109 M84.40306464715155,363.3510867261109 L63.586798584072824,372.4897062174118 M63.586798584072824,372.4897062174118 L44.20090525847638,382.6404585188083 M43.97565295819396,353.28178926584894 L44.20090525847638,382.6404585188083 M43.97565295819396,353.28178926584894 L63.37454827157518,343.1378508098016 M63.37454827157518,343.1378508098016 L84.20474647054772,334.0053710891963 M84.20474647054772,334.0053710891963 L106.30898500065558,325.9512545326428 M106.30898500065558,325.9512545326428 L129.52106258359964,319.0343730011746 M129.52106258359964,319.0343730011746 L153.6670187075165,313.30517909446854 M153.6670187075165,313.30517909446854 L178.56639867830475,308.80537564254934 M178.56639867830475,308.80537564254934 L204.03352743261925,305.567684539229 M204.03352743261925,305.567684539229 L229.8788181307976,303.6156265850208 M229.8788181307976,303.6156265850208 L255.91005584436192,302.9633656143144 M255.91005584436192,302.9633656143144 L281.9337387481928,303.6156265850208 M281.9337387481928,303.6156265850208 L307.7564488758808,305.56768742957206 M307.7564488758808,305.56768742957206 L333.18612413717096,308.8053733295912 M333.18612413717096,308.8053733295912 L358.03344475673447,313.30517446665175 M358.03344475673447,313.30517446665175 L382.1131052085118,319.0343730011747 M382.1131052085118,319.0343730011747 L405.24515346451915,325.95125453264285 M405.24515346451915,325.95125453264285 L427.2562046927831,334.00537108919633 M427.2562046927831,334.00537108919633 L447.9807428128365,343.1378531300154 M447.9807428128365,343.1378531300154 L467.26226723873754,353.2817892658488 M467.26226723873754,353.2817892658488 L484.9544686933823,364.3626649282806 M484.9544686933823,364.3626649282806 L500.9223388370518,376.2988350935851 M500.9223388370518,376.2988350935851 L515.0431821837398,389.00207131320803 M515.0431821837398,389.00207131320803 L527.207594681473,402.3781677199497 M527.207594681473,402.3781677199497 L537.3203590161733,416.3275531502241 M537.3203590161733,416.3275531502241 L545.3012349730468,430.7460172247753 M545.3012349730468,430.7460172247753 L551.0856693464797,445.52541089248206 M551.0856693464797,445.52541089248206 L554.6254144641126,460.55444518591185 M554.6254144641126,460.55444518591185 L555.8889893131676,475.71947572058747 M555.8889893131676,475.71947572058747 L554.8621088635141,490.9053775287423 M554.8621088635141,490.9053775287423 L551.5478733552841,505.9963747217698 M551.5478733552841,505.9963747217698 L545.9669248513612,520.8769468702278 M545.9669248513612,520.8769468702278 L538.1574400092622,535.4327341094452 M538.1574400092622,535.4327341094452 L528.1749541654677,549.5514207165801 M528.1749541654677,549.5514207165801 L516.0920309124075,563.1236412996356 M516.0920309124075,563.1236412996356 L501.9978687124085,576.0438707762137 M501.9978687124085,576.0438707762137 L485.9976885747084,588.2113083296736 M485.9976885747084,588.2113083296736 L468.21197918462207,599.5307058869562 M468.21197918462207,599.5307058869562 L468.1543959773561,629.0528699185668 M468.1543959773561,629.0528699185668 L44.20090525847638,382.6404585188083 M162.5935359345356,387.51515071150266 L159.20270640411275,385.9775131609299 M159.20270640411275,385.9775131609299 L155.26740468657587,384.95435863490326 M155.26740468657587,384.95435863490326 L151.01611253410553,384.50501320878857 M151.01611253410553,384.50501320878857 L146.69558056734854,384.6555228206655 M146.69558056734854,384.6555228206655 L142.55654960842253,385.39716268569094 M142.55654960842253,385.39716268569094 L138.83930358502312,386.68694176673984 M138.83930358502312,386.68694176673984 L135.75968415363945,388.4500807157642 M135.75968415363945,388.4500807157642 L133.49667882831858,390.58430371376613 M133.49667882831858,390.58430371376613 L132.1819607371749,392.9657704099723 M132.1819607371749,392.9657704099723 L131.89222447304144,395.4561780904316 M131.89222447304144,395.4561780904316 L132.64465428825122,397.9108230552168 M132.64465428825122,397.9108230552168 L134.39584211798694,400.1869778499095 M134.39584211798694,400.1869778499095 L137.04422380424506,402.1522091596059 M137.04422380424506,402.1522091596059 L140.43599735432946,403.69211032058297 M140.43599735432946,403.69211032058297 L144.37396277773894,404.7170099080874 M144.37396277773894,404.7170099080874 L148.62902811084905,405.16718205588813 M148.62902811084905,405.16718205588813 L152.95357833751905,405.0163914294237 M152.95357833751905,405.0163914294237 L157.09595210575006,404.2734271938466 M157.09595210575006,404.2734271938466 L160.81509967170925,402.981583788508 M160.81509967170925,402.981583788508 L163.89474377962264,401.2161134709363 M163.89474377962264,401.2161134709363 L166.15589126255242,399.0798261553349 M166.15589126255242,399.0798261553349 L167.46729458096945,396.6970350890919 M167.46729458096945,396.6970350890919 L167.7530185349782,394.20634639379176 M167.7530185349782,394.20634639379176 L166.99679803856026,391.75252814376853 M166.99679803856026,391.75252814376853 L165.24290956083172,389.47811840290353 M165.24290956083172,389.47811840290353 L162.5935359345356,387.51515071150266 M459.35852031048654,559.5022232677811 L455.9202479424935,557.9404346628903 M455.9202479424935,557.9404346628903 L451.9402461236991,556.9012108073632 M451.9402461236991,556.9012108073632 L447.6495890041801,556.4448083484627 M447.6495890041801,556.4448083484627 L443.29730897958007,556.5976817185962 M443.29730897958007,556.5976817185962 L439.13598679432323,557.3509693005011 M439.13598679432323,557.3509693005011 L435.4071990770523,558.6610057660074 M435.4071990770523,558.6610057660074 L432.3274579057517,560.4518386769338 M432.3274579057517,560.4518386769338 L430.07576056155386,562.6195873314924 M430.07576056155386,562.6195873314924 L428.7831281007147,565.0384674235013 M428.7831281007147,565.0384674235013 L428.52497742883935,567.5680043731336 M428.52497742883935,567.5680043731336 L429.3166629760859,570.0612210906635 M429.3166629760859,570.0612210906635 L431.112499350695,572.3731467745725 M431.112499350695,572.3731467745725 L433.80832896493496,574.369265671007 M433.80832896493496,574.369265671007 L437.2475912107596,575.9333714456025 M437.2475912107596,575.9333714456025 L441.23032250677966,576.9743816525207 M441.23032250677966,576.9743816525207 L445.52482342397997,577.4316303941763 M445.52482342397997,577.4316303941763 L449.8811809935616,577.2784693603666 M449.8811809935616,577.2784693603666 L454.0458803598442,576.5238260719674 M454.0458803598442,576.5238260719674 L457.77657120367024,575.2116764381793 M457.77657120367024,575.2116764381793 L460.8563054852004,573.4184569961817 M460.8563054852004,573.4184569961817 L463.1060875019703,571.2485951801965 M463.1060875019703,571.2485951801965 L464.39533495492844,568.8283593822279 M464.39533495492844,568.8283593822279 L464.64940642186565,566.298534768662 M464.64940642186565,566.298534768662 L463.8538819636048,563.806164326794 M463.8538819636048,563.806164326794 L462.0553264251439,561.4960249864367 M462.0553264251439,561.4960249864367 L459.35852031048654,559.5022232677811 M286.9782390912802,486.6949783312822 L278.5874678695534,480.88982095131763 M278.5874678695534,480.88982095131763 L272.073895958366,474.3306760488184 M272.073895958366,474.3306760488184 L267.63428116880726,467.2179889959377 M267.63428116880726,467.2179889959377 L265.4017227842707,459.7687389467463 M265.4017227842707,459.7687389467463 L265.4418885876661,452.209716697775 M265.4418885876661,452.209716697775 L267.7512466186154,444.7705954233831 M267.7512466186154,444.7705954233831 L272.25745741178196,437.67694542946043 M272.25745741178196,437.67694542946043 L278.8218406245234,431.1434451860708 M278.8218406245234,431.1434451860708 L287.24379506265296,425.36745370848047 M287.24379506265296,425.36745370848047 L297.2670386003199,420.52315778400737 M297.2670386003199,420.52315778400737 L308.58742345526355,416.75643766177905 M308.58742345526355,416.75643766177905 L320.8621452184569,414.1805919302073 M320.8621452184569,414.1805919302073 L333.72000862572185,412.87303029974106 M333.72000862572185,412.87303029974106 L346.77250298928124,412.87303037256345 M346.77250298928124,412.87303037256345 L359.6253364935945,414.1805914932211 M359.6253364935945,414.1805914932211 L371.89014356919654,416.75643737038666 M371.89014356919654,416.75643737038666 L383.1960308166894,420.5231572010232 M383.1960308166894,420.5231572010232 L393.2006276404044,425.3674537084806 M393.2006276404044,425.3674537084806 L401.6003533097185,431.1434457696174 M401.6003533097185,431.1434457696174 L408.1395885641854,437.67694630529974 M408.1395885641854,437.67694630529974 L412.61849411509365,444.77059498518145 M412.61849411509365,444.77059498518145 L414.89921705975866,452.2097173555212 M414.89921705975866,452.2097173555212 L414.91028829896334,459.7687395318105 M414.91028829896334,459.7687395318105 L412.6490587488238,467.2179889959377 M412.6490587488238,467.2179889959377 L408.1820631603996,474.33067370547053 M408.1820631603996,474.33067370547053 L401.6432491423459,480.88982095131763 M401.6432491423459,480.88982095131763 L393.2301338594457,486.6949783312822 M393.2301338594457,486.6949783312822 L383.1979390947178,491.56843785195827 M383.1979390947178,491.56843785195827 L371.85188642709284,495.3608050751269 M371.85188642709284,495.3608050751269 L359.53787615590096,497.9556879733962 M359.53787615590096,497.9556879733962 L346.63184513253094,499.2733790471529 M346.63184513253094,499.2733790471529 L333.5281135312664,499.2733790471529 M333.5281135312664,499.2733790471529 L320.627154303204,497.9556879733962 M320.627154303204,497.9556879733962 L308.323129701714,495.36080859685046 M308.323129701714,495.36080859685046 L296.99167792406007,491.56843902546314 M296.99167792406007,491.56843902546314 L286.9782390912802,486.6949783312822 M468.21197918462207,599.5307058869562 L43.97565295819396,353.28178926584894 M162.44705696752624,358.15321146460747 L165.09818156123058,360.11486278317625 M165.09818156123058,360.11486278317625 L166.85322298497852,362.38774758877094 M166.85322298497852,362.38774758877094 L167.6099310778629,364.8399209656924 M167.6099310778629,364.8399209656924 L167.32400059896167,367.32894044514677 M167.32400059896167,367.32894044514677 L166.01170818169408,369.71013495807244 M166.01170818169408,369.71013495807244 L163.74904032318358,371.84499117865016 M163.74904032318358,371.84499117865016 L160.66733270855568,373.60927901930353 M160.66733270855568,373.60927901930353 L156.94569844111868,374.90025729313993 M156.94569844111868,374.90025729313993 L152.80055949342625,375.6427240205373 M152.80055949342625,375.6427240205373 L148.47312670950618,375.793413677754 M148.47312670950618,375.793413677754 L144.21522941721088,375.34354296883674 M144.21522941721088,375.34354296883674 L140.27464764783593,374.3193297080747 M140.27464764783593,374.3193297080747 L136.8806257225806,372.7804598655429 M136.8806257225806,372.7804598655429 L134.23049440659895,370.8165449392394 M134.23049440659895,370.8165449392394 L132.47815724162683,368.54191508795884 M132.47815724162683,368.54191508795884 L131.72524488666028,366.08891500013266 M131.72524488666028,366.08891500013266 L132.0151930198847,363.600176534208 M132.0151930198847,363.600176534208 L133.3308046172827,361.2203063851399 M133.3308046172827,361.2203063851399 L135.59533277908582,359.0875144725307 M135.59533277908582,359.0875144725307 L138.67701566784757,357.3255579895478 M138.67701566784757,357.3255579895478 L142.39674584445254,356.0366440303705 M142.39674584445254,356.0366440303705 L146.5385375193814,355.29550166734634 M146.5385375193814,355.29550166734634 L150.86194668729382,355.14509302340605 M150.86194668729382,355.14509302340605 L155.11606577722884,355.59413701449404 M155.11606577722884,355.59413701449404 L159.0539803038077,356.61660522191954 M159.0539803038077,356.61660522191954 L162.44705696752624,358.15321146460747 M459.4100212560879,530.0258338629856 L462.1086417033229,532.0183192884294 M462.1086417033229,532.0183192884294 L463.9084098526771,534.3269337927095 M463.9084098526771,534.3269337927095 L464.70447440103237,536.8176594768506 M464.70447440103237,536.8176594768506 L464.45023867250814,539.3458150005522 M464.45023867250814,539.3458150005522 L463.16013168614984,541.7644543740955 M463.16013168614984,541.7644543740955 L460.9088444309005,543.9328852175734 M460.9088444309005,543.9328852175734 L457.8270464620897,545.7249222888687 M457.8270464620897,545.7249222888687 L454.0938534236238,547.0362068717236 M454.0938534236238,547.0362068717236 L449.9263589725327,547.79035269937 M449.9263589725327,547.79035269937 L445.5670762722735,547.9434127736549 M445.5670762722735,547.9434127736549 L441.2696906386539,547.4864654419532 M441.2696906386539,547.4864654419532 L437.28428313389327,546.446141497004 M437.28428313389327,546.446141497004 L433.84270903515585,544.8830669463804 M433.84270903515585,544.8830669463804 L431.1450663951683,542.8882643177378 M431.1450663951683,542.8882643177378 L429.3480210577185,540.5778634503096 M429.3480210577185,540.5778634503096 L428.5558005739423,538.086291481223 M428.5558005739423,538.086291481223 L428.814120985856,535.5584236246108 M428.814120985856,535.5584236246108 L430.1076175283941,533.1411399718993 M430.1076175283941,533.1411399718993 L432.3608226872318,530.9748223130296 M432.3608226872318,530.9748223130296 L435.4426275596963,529.1851717989864 M435.4426275596963,529.1851717989864 L439.1739149200316,527.8760004075955 M439.1739149200316,527.8760004075955 L443.33802765756917,527.1232103013162 M443.33802765756917,527.1232103013162 L447.6932273377396,526.9704378938634 M447.6932273377396,526.9704378938634 L451.9867640102659,527.4265389335258 M451.9867640102659,527.4265389335258 L455.9694383689672,528.4650765074869 M455.9694383689672,528.4650765074869 L459.4100212560879,530.0258338629856 M286.91428543450616,457.266820550833 L278.5179208937908,451.4655226454362 M278.5179208937908,451.4655226454362 L272.00001592259105,444.91074094950227 M272.00001592259105,444.91074094950227 L267.5574584319766,437.80278826769586 M267.5574584319766,437.80278826769586 L265.32343472229104,430.35849989663205 M265.32343472229104,430.35849989663205 L265.363654193385,422.80451587442985 M265.363654193385,422.80451587442985 L267.6745801656736,415.3703562871887 M267.6745801656736,415.3703562871887 L272.18382263848093,408.2814406805359 M272.18382263848093,408.2814406805359 L278.75260680589054,401.752303668176 M278.75260680589054,401.752303668176 L287.18019623022707,395.9801716904693 M287.18019623022707,395.9801716904693 L297.21013705751307,391.13911426673474 M297.21013705751307,391.13911426673474 L308.5380785586953,387.3749132476422 M308.5380785586953,387.3749132476422 L320.82098826976767,384.80079068190486 M320.82098826976767,384.80079068190486 L333.6874244989403,383.4941039257887 M333.6874244989403,383.4941039257887 L346.7486189686688,383.4941039985623 M346.7486189686688,383.4941039985623 L359.6100185851813,384.800790245211 M359.6100185851813,384.800790245211 L371.8830003856468,387.37491295644486 M371.8830003856468,387.37491295644486 L383.1964249408447,391.1391136841405 M383.1964249408447,391.1391136841405 L393.2076941773406,395.9801716904693 M393.2076941773406,395.9801716904693 L401.61302516716864,401.7523042513329 M401.61302516716864,401.7523042513329 L408.1566278080079,408.2814415557906 M408.1566278080079,408.2814415557906 L412.6385285801822,415.37035584927946 M412.6385285801822,415.37035584927946 L414.9207812195919,422.8045165317376 M414.9207812195919,422.8045165317376 L414.93186725159256,430.35850048130646 M414.93186725159256,430.35850048130646 L412.66913405348623,437.80278826769586 M412.66913405348623,437.80278826769586 L408.19915915719923,444.91073860771354 M408.19915915719923,444.91073860771354 L401.6559783159816,451.4655226454362 M401.6559783159816,451.4655226454362 L393.2372398213094,457.266820550833 M393.2372398213094,457.266820550833 L383.1983357679567,462.13704159769674 M383.1983357679567,462.13704159769674 L371.84469212493445,465.9268897407655 M371.84469212493445,465.9268897407655 L359.5224413870968,468.52004948954425 M359.5224413870968,468.52004948954425 L346.60777316988407,469.8368656976814 M346.60777316988407,469.8368656976814 L333.4952730014342,469.8368656976814 M333.4952730014342,469.8368656976814 L320.58568336933996,468.52004948954425 M320.58568336933996,468.52004948954425 L308.27343166958383,465.92689326015005 M308.27343166958383,465.92689326015005 L296.93440845604107,462.13704277042194 M296.93440845604107,462.13704277042194 L286.91428543450616,457.266820550833 M162.5935359345356,387.51515071150266 L162.44705696752624,358.15321146460747 M459.35852031048654,559.5022232677811 L459.4100212560879,530.0258338629856 M286.9782390912802,486.6949783312822 L286.91428543450616,457.266820550833" stroke="black"  stroke-width="4"  fill="red"/></svg>